<svg viewBox="0 0 73 88" fill="none" xmlns="http://www.w3.org/2000/svg">
<g opacity="0.9">
<path d="M36.2486 23.7673C29.6986 23.7673 24.374 18.4367 24.374 11.8867C24.374 5.33663 29.6986 0 36.2486 0C42.7987 0 48.1232 5.33059 48.1232 11.8806C48.1232 18.4307 42.7987 23.7613 36.2486 23.7613V23.7673ZM36.2486 0.362214C29.8978 0.362214 24.7362 5.52981 24.7362 11.8806C24.7362 18.2315 29.8978 23.3991 36.2486 23.3991C42.5994 23.3991 47.761 18.2315 47.761 11.8806C47.761 5.52981 42.5934 0.362214 36.2486 0.362214Z" fill="currentColor"/>
<path d="M36.2726 26.3812C35.856 26.3812 35.4395 26.363 35.0169 26.3208C28.1046 25.6386 23.0397 19.4629 23.7158 12.5446C24.0478 9.19408 25.6597 6.17562 28.2556 4.03856C30.8575 1.90149 34.1295 0.905401 37.48 1.23743C44.3922 1.9196 49.4572 8.09536 48.7811 15.0137C48.449 18.3641 46.8372 21.3826 44.2413 23.5197C41.9654 25.3851 39.1763 26.3812 36.2726 26.3812ZM36.2243 1.53928C33.4051 1.53928 30.6945 2.50518 28.485 4.32229C25.9615 6.39899 24.3919 9.33292 24.072 12.5868C23.414 19.3059 28.334 25.3066 35.0471 25.9646C38.2949 26.2846 41.4764 25.3187 44.0059 23.242C46.5293 21.1653 48.0989 18.2313 48.4188 14.9774C49.0769 8.25835 44.1568 2.25767 37.4437 1.59965C37.0332 1.55739 36.6288 1.53928 36.2243 1.53928Z" fill="currentColor"/>
<path d="M36.2726 29.1041C35.4456 29.1041 34.6125 29.0256 33.7794 28.8747C26.5049 27.5164 21.6995 20.4895 23.0578 13.2089C23.7159 9.68339 25.708 6.62872 28.6601 4.60031C31.6182 2.57191 35.186 1.8173 38.7055 2.47532C45.98 3.83363 50.7853 10.8606 49.427 18.1411C48.769 21.6667 46.7768 24.7213 43.8248 26.7497C41.567 28.3012 38.947 29.1041 36.2666 29.1041H36.2726ZM36.2183 2.60814C33.6103 2.60814 31.0628 3.39293 28.8653 4.89612C25.9918 6.87019 24.0539 9.84639 23.414 13.2754C22.0919 20.3566 26.7705 27.1904 33.8518 28.5185C37.2808 29.1585 40.752 28.428 43.6256 26.4539C46.4991 24.4799 48.437 21.5037 49.0769 18.0747C50.399 10.9934 45.7204 4.15962 38.6391 2.8315C37.8301 2.68058 37.0212 2.60814 36.2123 2.60814H36.2183Z" fill="currentColor"/>
<path d="M36.2728 31.9169C35.0353 31.9169 33.7856 31.7539 32.5601 31.4279C24.9295 29.3874 20.3716 21.5213 22.4061 13.8786C23.3901 10.178 25.7566 7.08102 29.0708 5.16732C32.3851 3.24759 36.2427 2.73445 39.9433 3.7245C47.5739 5.76498 52.1318 13.6311 50.0974 21.2738C49.1133 24.9744 46.7469 28.0713 43.4326 29.985C41.2231 31.2649 38.7661 31.9229 36.2789 31.9229L36.2728 31.9169ZM36.2246 3.59169C33.7977 3.59169 31.4071 4.2316 29.2519 5.4752C26.0222 7.34665 23.7161 10.3591 22.7562 13.9691C20.7701 21.4126 25.2132 29.0856 32.6507 31.0717C36.2547 32.0316 40.0157 31.5365 43.2455 29.6651C46.4752 27.7937 48.7813 24.7812 49.7412 21.1712C51.7273 13.7277 47.2842 6.05475 39.8467 4.0686C38.6514 3.74865 37.4319 3.59169 36.2246 3.59169Z" fill="currentColor"/>
<path d="M36.2607 34.7968C34.6066 34.7968 32.9404 34.5252 31.3286 33.9758C23.3357 31.2592 19.0374 22.5419 21.748 14.543C23.0641 10.6673 25.8048 7.53415 29.4692 5.72307C33.1336 3.912 37.287 3.64034 41.1627 4.95639C49.1556 7.673 53.4539 16.3843 50.7433 24.3892C49.4272 28.2649 46.6865 31.398 43.0221 33.2091C40.885 34.2656 38.5789 34.7968 36.2607 34.7968ZM36.2366 4.50362C33.9728 4.50362 31.727 5.02279 29.6383 6.0551C26.0584 7.82392 23.378 10.8786 22.0982 14.6637C19.448 22.4755 23.6436 30.9875 31.4493 33.6377C35.2284 34.9236 39.2852 34.6519 42.8651 32.8892C46.445 31.1264 49.1254 28.0657 50.4052 24.2805C53.0554 16.4688 48.8598 7.95673 41.054 5.30653C39.4784 4.76924 37.8545 4.50362 36.2366 4.50362Z" fill="currentColor"/>
<path d="M36.2484 37.7368C34.1657 37.7368 32.089 37.3323 30.1028 36.5294C21.7477 33.1367 17.7091 23.5803 21.0958 15.2192C22.7378 11.1684 25.8528 7.99902 29.8795 6.29661C33.9 4.5942 38.3432 4.55798 42.394 6.20002C50.749 9.59276 54.7877 19.1492 51.401 27.5103C49.759 31.5611 46.6439 34.7304 42.6173 36.4328C40.5708 37.3022 38.4096 37.7368 36.2484 37.7368ZM36.2484 5.35485C34.1355 5.35485 32.0226 5.77744 30.0183 6.62864C26.0822 8.29483 23.0336 11.3918 21.4278 15.352C18.1135 23.5259 22.0677 32.8771 30.2356 36.1914C34.1958 37.7972 38.5364 37.767 42.4724 36.1008C46.4085 34.4346 49.4571 31.3377 51.063 27.3775C54.3772 19.2035 50.4231 9.85235 42.2551 6.53809C40.3173 5.75329 38.2768 5.35485 36.2484 5.35485Z" fill="currentColor"/>
<path d="M36.2363 40.7249C33.725 40.7249 31.2257 40.1755 28.8773 39.0828C20.1601 35.02 16.3749 24.6124 20.4378 15.889C22.4058 11.6632 25.9012 8.4576 30.2779 6.86386C34.6547 5.27011 39.3876 5.47537 43.6134 7.4434C52.3307 11.5062 56.1159 21.9139 52.053 30.6372C50.085 34.863 46.5896 38.0686 42.2129 39.6624C40.263 40.3747 38.2466 40.7249 36.2363 40.7249ZM36.2605 6.16358C34.2864 6.16358 32.3123 6.50768 30.4047 7.20192C26.1185 8.76548 22.6956 11.9047 20.7698 16.04C16.7915 24.5822 20.4981 34.7664 29.0343 38.7508C33.1696 40.6766 37.8059 40.8818 42.0921 39.3183C46.3783 37.7547 49.8013 34.6155 51.727 30.4802C55.7054 21.938 51.9987 11.7538 43.4625 7.76939C41.1685 6.70086 38.7175 6.15754 36.2605 6.15754V6.16358Z" fill="currentColor"/>
<path d="M36.2243 43.7493C33.2722 43.7493 30.3503 43.037 27.6579 41.6304C18.5784 36.8914 15.0468 25.6447 19.7858 16.5591C22.0798 12.1582 25.9494 8.91639 30.6824 7.42527C35.4153 5.94019 40.438 6.38089 44.8389 8.68095C53.9184 13.4199 57.45 24.6667 52.7111 33.7522C50.417 38.1531 46.5474 41.3949 41.8144 42.8861C39.9792 43.4656 38.0957 43.7493 36.2243 43.7493ZM36.2665 6.93024C34.4313 6.93024 32.59 7.21398 30.785 7.77541C26.1487 9.23634 22.3514 12.4118 20.0997 16.7281C15.4573 25.6326 18.9164 36.662 27.8209 41.3104C32.1312 43.5622 37.0634 43.9969 41.6997 42.542C46.3421 41.081 50.1333 37.9056 52.3851 33.5892C57.0274 24.6848 53.5683 13.6554 44.6639 9.00694C42.0257 7.63053 39.1582 6.93024 36.2605 6.93024H36.2665Z" fill="currentColor"/>
<path d="M36.2184 46.804C32.8196 46.804 29.4691 45.9166 26.4386 44.184C17.0029 38.7689 13.7248 26.683 19.1339 17.2352C21.7539 12.6592 25.9979 9.38121 31.087 7.99876C36.1761 6.61631 41.4946 7.30451 46.0646 9.92453C55.5002 15.3396 58.7783 27.4255 53.3692 36.8733C50.7492 41.4493 46.5052 44.7273 41.4161 46.1098C39.6956 46.5746 37.9509 46.81 36.2184 46.81V46.804ZM36.2787 7.66673C34.5763 7.66673 32.8618 7.89613 31.1775 8.3489C26.185 9.7072 22.0196 12.9249 19.4478 17.4163C14.1353 26.689 17.353 38.5576 26.6197 43.8701C31.1051 46.4418 36.327 47.1179 41.3195 45.7596C46.3121 44.4013 50.4775 41.1836 53.0493 36.6922C58.3617 27.4195 55.1441 15.5509 45.8774 10.2384C42.9072 8.53604 39.6111 7.66673 36.2787 7.66673Z" fill="currentColor"/>
<path d="M36.2064 49.8887C32.3549 49.8887 28.5697 48.8142 25.2132 46.7314C15.4153 40.6462 12.3908 27.7152 18.47 17.9052C21.416 13.1542 26.0342 9.83386 31.4735 8.56007C36.9127 7.28629 42.527 8.20993 47.272 11.1559C57.0699 17.2411 60.0944 30.1722 54.0153 39.9822C51.0693 44.7332 46.451 48.0475 41.0118 49.3273C39.418 49.7016 37.8062 49.8887 36.2064 49.8887ZM36.2849 8.37293C34.7153 8.37293 33.1336 8.55404 31.564 8.92229C26.2153 10.1719 21.6816 13.4319 18.7839 18.1044C12.8073 27.7393 15.7775 40.447 25.4064 46.4296C30.0729 49.3273 35.5846 50.2328 40.9273 48.9832C46.276 47.7336 50.8097 44.4736 53.7074 39.8011C59.6839 30.1662 56.7138 17.4585 47.0849 11.4759C43.7888 9.42939 40.07 8.37293 36.2849 8.37293Z" fill="currentColor"/>
<path d="M36.2001 52.998C31.8898 52.998 27.67 51.7302 23.9935 49.2853C13.8334 42.524 11.0624 28.7538 17.8177 18.5816C21.0897 13.6555 26.0823 10.2989 31.8777 9.13382C37.6731 7.9687 43.5712 9.12779 48.4973 12.3998C58.6574 19.1611 61.4284 32.9313 54.6731 43.0975C51.4011 48.0236 46.4085 51.3801 40.6131 52.5452C39.1461 52.841 37.6671 52.9859 36.2001 52.9859V52.998ZM36.2907 9.06138C34.8479 9.06138 33.399 9.20627 31.9501 9.49604C26.2513 10.6431 21.3373 13.9452 18.1196 18.7868C11.4729 28.79 14.2016 42.3368 24.1927 48.9834C29.0343 52.2072 34.8418 53.3481 40.5407 52.2011C46.2395 51.0541 51.1535 47.7519 54.3712 42.9043C61.0178 32.9011 58.2892 19.3543 48.2981 12.7077C44.682 10.305 40.5346 9.05534 36.2907 9.05534V9.06138Z" fill="currentColor"/>
<path d="M36.2001 56.1251C31.4189 56.1251 26.7645 54.6581 22.7801 51.8389C12.2578 44.4074 9.74038 29.7921 17.1658 19.2637C20.7638 14.1625 26.1306 10.7698 32.2822 9.7073C38.4278 8.64481 44.6216 10.0454 49.7228 13.6434C60.2451 21.0748 62.7625 35.6901 55.3371 46.2185C51.7391 51.3197 46.3723 54.7124 40.2207 55.7749C38.8805 56.0043 37.5343 56.119 36.2001 56.119V56.1251ZM36.2967 9.72541C34.9867 9.72541 33.6646 9.84011 32.3426 10.0635C26.2875 11.1079 21.0052 14.4463 17.4616 19.469C10.1509 29.8343 12.626 44.2203 22.9854 51.5431C28.002 55.0867 34.0993 56.4631 40.1543 55.4188C46.2093 54.3744 51.4916 51.036 55.0353 46.0133C62.346 35.6479 59.8709 21.2619 49.5115 13.9392C45.5875 11.1682 41.0055 9.71938 36.2967 9.71938V9.72541Z" fill="currentColor"/>
<path d="M36.1945 59.2703C30.9424 59.2703 25.8472 57.5921 21.555 54.3986C10.6704 46.291 8.40661 30.8365 16.5081 19.9459C20.4321 14.6697 26.1732 11.2407 32.675 10.2869C39.1767 9.33304 45.6604 10.969 50.9366 14.893C61.8212 23.0006 64.085 38.4551 55.9835 49.3457C52.0595 54.6219 46.3184 58.0509 39.8166 59.0047C38.6093 59.1798 37.3958 59.2703 36.1945 59.2703ZM36.2971 10.3774C35.1139 10.3774 33.9186 10.4619 32.7293 10.637C26.3241 11.5788 20.6676 14.9594 16.7979 20.1572C8.81712 30.8908 11.0508 46.1159 21.7723 54.1027C26.9641 57.9724 33.3571 59.5843 39.7623 58.6425C46.1675 57.7007 51.824 54.3201 55.6937 49.1223C63.6745 38.3887 61.4408 23.1636 50.7193 15.1768C46.4935 12.0255 41.4707 10.3714 36.2971 10.3714V10.3774Z" fill="currentColor"/>
<path d="M36.1943 62.4219C30.4653 62.4219 24.9295 60.5263 20.3414 56.9403C9.09465 48.1627 7.08436 31.863 15.856 20.6102C20.106 15.1589 26.2214 11.6877 33.0793 10.8425C39.9372 9.99735 46.7106 11.8688 52.1559 16.1248C63.4027 24.9025 65.413 41.2021 56.6413 52.4549C52.3913 57.9062 46.276 61.3775 39.418 62.2226C38.3374 62.3554 37.2629 62.4219 36.1943 62.4219ZM36.297 11.0116C35.2405 11.0116 34.184 11.078 33.1155 11.2108C26.3542 12.0439 20.3233 15.4668 16.1337 20.8457C7.4828 31.9415 9.46894 48.0118 20.5587 56.6626C25.9316 60.8583 32.6084 62.7056 39.3697 61.8665C46.1311 61.0334 52.1619 57.6104 56.3516 52.2376C65.0024 41.1418 63.0163 25.0715 51.9265 16.4206C47.3988 12.889 41.9415 11.0176 36.2909 11.0176L36.297 11.0116Z" fill="currentColor"/>
<path d="M36.1942 65.5911C29.9823 65.5911 24.0057 63.4721 19.1219 59.4938C7.5129 50.046 5.75616 32.9073 15.1979 21.2923C19.7739 15.6659 26.2635 12.1584 33.4716 11.4159C40.6857 10.6794 47.7489 12.7863 53.3692 17.3622C64.9782 26.81 66.735 43.9488 57.2932 55.5638C52.7173 61.1902 46.2276 64.6976 39.0195 65.4402C38.0778 65.5367 37.13 65.585 36.1942 65.585V65.5911ZM36.2969 11.6392C35.3732 11.6392 34.4435 11.6875 33.5078 11.7841C26.3963 12.5146 19.9912 15.9737 15.4756 21.5277C6.16063 32.9857 7.89322 49.8951 19.3452 59.2221C24.8932 63.7377 31.8658 65.8205 38.9773 65.09C46.0887 64.3596 52.4939 60.8944 57.0095 55.3464C66.3244 43.8884 64.5919 26.979 53.1398 17.652C48.3224 13.728 42.4243 11.6392 36.2908 11.6392H36.2969Z" fill="currentColor"/>
<path d="M36.2004 68.7725C29.4995 68.7725 23.0822 66.4302 17.9026 62.0534C5.93138 51.9295 4.42819 33.9516 14.54 21.9744C19.442 16.1729 26.3059 12.6293 33.8702 11.9893C41.4284 11.3494 48.7934 13.7038 54.5889 18.6058C66.554 28.7297 68.0632 46.7076 57.9514 58.6848C53.0494 64.4863 46.1855 68.03 38.6212 68.6699C37.8123 68.7363 37.0033 68.7725 36.1944 68.7725H36.2004ZM36.297 12.2489C35.5002 12.2489 34.7033 12.2852 33.9004 12.3516C26.4327 12.9794 19.6533 16.4808 14.8177 22.2098C4.83266 34.0361 6.32378 51.7846 18.138 61.7757C23.861 66.6173 31.1234 68.9355 38.5971 68.3077C46.0647 67.6798 52.8442 64.1784 57.6798 58.4494C67.6648 46.6231 66.1737 28.8746 54.3595 18.8835C49.2522 14.5611 42.9135 12.2489 36.297 12.2489Z" fill="currentColor"/>
<path d="M36.2063 71.9599C29.0164 71.9599 22.1524 69.3882 16.689 64.6069C4.35559 53.8129 3.09991 34.9899 13.8879 22.6504C19.1158 16.6739 26.3541 13.088 34.2685 12.5627C42.1828 12.0315 49.8376 14.6213 55.8081 19.8493C68.1355 30.6433 69.3972 49.4664 58.6093 61.8058C53.3813 67.7823 46.1431 71.3683 38.2287 71.8935C37.5525 71.9357 36.8764 71.9599 36.2063 71.9599ZM36.2908 12.8525C35.6268 12.8525 34.9627 12.8767 34.2926 12.9189C26.4688 13.4441 19.3211 16.9818 14.1595 22.8859C3.50438 35.0744 4.74799 53.6681 16.9244 64.3292C22.8225 69.4908 30.3807 72.0504 38.2045 71.5252C46.0284 71 53.1761 67.4624 58.3376 61.5583C68.9928 49.3698 67.7492 30.7761 55.5727 20.1149C50.1757 15.3941 43.3963 12.8525 36.2908 12.8525Z" fill="currentColor"/>
<path d="M36.2124 75.1535C28.5274 75.1535 21.2167 72.3463 15.4695 67.1546C2.77997 55.6905 1.77181 36.0343 13.2299 23.3266C18.7778 17.175 26.3903 13.5529 34.6609 13.1303C42.9314 12.7017 50.876 15.533 57.0216 21.087C69.7112 32.551 70.7193 52.2132 59.2613 64.9149C53.7133 71.0665 46.1008 74.6887 37.8303 75.1112C37.2869 75.1414 36.7496 75.1535 36.2063 75.1535H36.2124ZM36.2848 13.4503C35.7536 13.4503 35.2163 13.4623 34.685 13.4925C26.5111 13.9091 18.9891 17.489 13.5015 23.5742C2.17628 36.1249 3.17237 55.5577 15.7171 66.889C21.7962 72.3765 29.6382 75.1656 37.8182 74.7551C45.9922 74.3385 53.5141 70.7586 59.0017 64.6734C70.3269 52.1227 69.3308 32.6899 56.7861 21.3586C51.1054 16.2272 43.8792 13.4563 36.2848 13.4563V13.4503Z" fill="currentColor"/>
<path d="M36.2182 78.3591C28.0382 78.3591 20.2808 75.3165 14.2499 69.7142C1.19813 57.574 0.443519 37.0727 12.5717 24.0088C18.4456 17.6821 26.4324 14.0177 35.0591 13.7038C43.6738 13.3959 51.9202 16.4506 58.2409 22.3306C71.2927 34.4647 72.0473 54.9721 59.9191 68.036C54.0452 74.3626 46.0584 78.0271 37.4316 78.341C37.0272 78.353 36.6167 78.3651 36.2122 78.3651L36.2182 78.3591ZM36.2786 14.0419C35.8802 14.0419 35.4757 14.0479 35.0773 14.066C26.5471 14.3799 18.6508 18.0021 12.8433 24.2563C0.847992 37.1753 1.59053 57.4472 14.4974 69.4486C20.7517 75.2621 28.8894 78.2866 37.4196 77.9788C45.9497 77.6648 53.846 74.0427 59.6535 67.7885C71.6428 54.8695 70.9003 34.5975 57.9934 22.5962C52.0349 17.0543 44.362 14.0479 36.2726 14.0479L36.2786 14.0419Z" fill="currentColor"/>
<path d="M36.2245 81.5708C27.5434 81.5708 19.3392 78.2867 13.0307 72.2679C-0.383338 59.4576 -0.884403 38.1111 11.9138 24.685C18.1137 18.1833 26.4749 14.4826 35.4517 14.2713C44.4407 14.048 52.9588 17.3622 59.4545 23.5621C72.8685 36.3725 73.3696 57.7129 60.5713 71.139C54.3714 77.6407 46.0103 81.3414 37.0334 81.5527C36.7618 81.5587 36.4901 81.5647 36.2184 81.5647L36.2245 81.5708ZM36.2667 14.6275C36.0011 14.6275 35.7294 14.6275 35.4638 14.6396C26.5835 14.8509 18.313 18.5093 12.1795 24.9386C-0.479929 38.2198 0.0150975 59.3308 13.2842 72.0023C19.7135 78.1418 28.141 81.4138 37.0274 81.1965C45.9077 80.9852 54.1782 77.3268 60.3117 70.8975C72.9711 57.6163 72.4761 36.4992 59.207 23.8338C52.9708 17.8814 44.8512 14.6336 36.2667 14.6336V14.6275Z" fill="currentColor"/>
<path d="M36.2364 84.7825C27.0542 84.7825 18.3973 81.2509 11.8171 74.8155C-1.95913 61.3351 -2.21268 39.1495 11.2557 25.3612C17.7816 18.6844 26.517 14.9475 35.85 14.8389C45.1891 14.7302 53.997 18.2739 60.6738 24.7998C74.45 38.2802 74.7036 60.4658 61.2352 74.2541C54.7093 80.9309 45.9739 84.6678 36.6409 84.7764C36.508 84.7764 36.3692 84.7764 36.2364 84.7764V84.7825ZM36.2605 15.2011C36.1277 15.2011 35.9949 15.2011 35.8561 15.2011C26.6196 15.3037 17.9747 19.0043 11.5213 25.6147C-1.8082 39.2581 -1.56069 61.2144 12.0767 74.5559C18.6811 81.0154 27.3984 84.5229 36.6409 84.4142C45.8773 84.3116 54.5222 80.611 60.9756 74.0005C74.3051 60.3571 74.0576 38.4009 60.4202 25.0593C53.9125 18.6904 45.34 15.2011 36.2545 15.2011H36.2605Z" fill="currentColor"/>
<path d="M36.2486 87.9999C26.5594 87.9999 17.4557 84.2268 10.6038 77.3689C-3.53461 63.2184 -3.53461 40.1936 10.6038 26.0431C17.4557 19.1852 26.5594 15.4121 36.2486 15.4121C45.9378 15.4121 55.0415 19.1852 61.8934 26.0431C76.0318 40.1936 76.0318 63.2184 61.8934 77.3689C55.0415 84.2268 45.9378 87.9999 36.2486 87.9999ZM36.2486 15.7743C26.656 15.7743 17.6429 19.5112 10.8574 26.2967C-3.14221 40.3083 -3.14221 63.1037 10.8574 77.1153C17.6368 83.9008 26.656 87.6377 36.2486 87.6377C45.8413 87.6377 54.8544 83.9008 61.6398 77.1153C75.6394 63.1037 75.6394 40.3083 61.6398 26.2967C54.8604 19.5112 45.8413 15.7743 36.2486 15.7743Z" fill="currentColor"/>
</g>
</svg>
