<svg width="74" height="90" viewBox="0 0 74 90" fill="none" xmlns="http://www.w3.org/2000/svg">
<g opacity="0.9">
<path d="M37.234 24.4958C43.7189 24.4958 48.9759 19.2361 48.9759 12.7479C48.9759 6.25971 43.7189 1 37.234 1C30.7492 1 25.4922 6.25971 25.4922 12.7479C25.4922 19.2361 30.7492 24.4958 37.234 24.4958Z" stroke="currenColor" stroke-width="0.6" stroke-miterlimit="10"/>
<path d="M49.7038 14.698C49.7254 7.81146 44.163 2.21128 37.2798 2.18966C30.3966 2.16803 24.7992 7.73315 24.7775 14.6197C24.7559 21.5062 30.3183 27.1064 37.2015 27.128C44.0847 27.1496 49.6821 21.5845 49.7038 14.698Z" stroke="currenColor" stroke-width="0.6" stroke-miterlimit="10"/>
<path d="M37.2544 29.8594C44.5929 29.8466 50.5316 23.8817 50.5187 16.5365C50.5059 9.1913 44.5465 3.2472 37.208 3.26001C29.8694 3.27282 23.9308 9.23768 23.9436 16.5829C23.9564 23.9281 29.9159 29.8722 37.2544 29.8594Z" stroke="currenColor" stroke-width="0.6" stroke-miterlimit="10"/>
<path d="M37.2642 32.6767C45.1083 32.6602 51.4538 26.2826 51.4374 18.4319C51.4209 10.5812 45.0487 4.23019 37.2047 4.24662C29.3606 4.26305 23.0151 10.6407 23.0315 18.4914C23.048 26.3421 29.4202 32.6931 37.2642 32.6767Z" stroke="currenColor" stroke-width="0.6" stroke-miterlimit="10"/>
<path d="M37.2341 35.5704C45.6238 35.5704 52.4251 28.7637 52.4251 20.3672C52.4251 11.9707 45.6238 5.16406 37.2341 5.16406C28.8443 5.16406 22.043 11.9707 22.043 20.3672C22.043 28.7637 28.8443 35.5704 37.2341 35.5704Z" stroke="currenColor" stroke-width="0.6" stroke-miterlimit="10"/>
<path d="M37.2339 38.517C46.1995 38.517 53.4676 31.2435 53.4676 22.2712C53.4676 13.2989 46.1995 6.02539 37.2339 6.02539C28.2683 6.02539 21.0003 13.2989 21.0003 22.2712C21.0003 31.2435 28.2683 38.517 37.2339 38.517Z" stroke="currenColor" stroke-width="0.6" stroke-miterlimit="10"/>
<path d="M37.2341 41.518C46.8056 41.518 54.5649 33.7533 54.5649 24.175C54.5649 14.5967 46.8056 6.83203 37.2341 6.83203C27.6625 6.83203 19.9032 14.5967 19.9032 24.175C19.9032 33.7533 27.6625 41.518 37.2341 41.518Z" stroke="currenColor" stroke-width="0.6" stroke-miterlimit="10"/>
<path d="M55.694 26.1198C55.7136 15.9155 47.4627 7.6274 37.2651 7.60782C27.0675 7.58824 18.7848 15.8446 18.7652 26.0489C18.7456 36.2532 26.9965 44.5413 37.1941 44.5608C47.3917 44.5804 55.6744 36.3241 55.694 26.1198Z" stroke="currenColor" stroke-width="0.6" stroke-miterlimit="10"/>
<path d="M54.2678 37.7533C48.8788 47.1673 36.8824 50.4226 27.4805 45.0275C18.0725 39.6325 14.8233 27.63 20.2123 18.2159C25.6013 8.80185 37.5977 5.54663 47.0057 10.9417C56.4137 16.3367 59.6629 28.3392 54.2739 37.7533H54.2678Z" stroke="currenColor" stroke-width="0.6" stroke-miterlimit="10"/>
<path d="M37.234 50.7259C48.734 50.7259 58.0565 41.3979 58.0565 29.8912C58.0565 18.3846 48.734 9.05664 37.234 9.05664C25.7341 9.05664 16.4116 18.3846 16.4116 29.8912C16.4116 41.3979 25.7341 50.7259 37.234 50.7259Z" stroke="currenColor" stroke-width="0.6" stroke-miterlimit="10"/>
<path d="M37.234 53.8473C49.4035 53.8473 59.2689 43.9738 59.2689 31.7943C59.2689 19.6147 49.4035 9.74121 37.234 9.74121C25.0645 9.74121 15.1992 19.6147 15.1992 31.7943C15.1992 43.9738 25.0645 53.8473 37.234 53.8473Z" stroke="currenColor" stroke-width="0.6" stroke-miterlimit="10"/>
<path d="M37.234 56.9875C50.0865 56.9875 60.5055 46.5604 60.5055 33.6979C60.5055 20.8353 50.0865 10.4082 37.234 10.4082C24.3815 10.4082 13.9626 20.8353 13.9626 33.6979C13.9626 46.5604 24.3815 56.9875 37.234 56.9875Z" stroke="currenColor" stroke-width="0.6" stroke-miterlimit="10"/>
<path d="M37.234 60.1456C50.7795 60.1456 61.7603 49.1566 61.7603 35.6011C61.7603 22.0456 50.7795 11.0566 37.234 11.0566C23.6885 11.0566 12.7077 22.0456 12.7077 35.6011C12.7077 49.1566 23.6885 60.1456 37.234 60.1456Z" stroke="currenColor" stroke-width="0.6" stroke-miterlimit="10"/>
<path d="M37.2339 63.3161C51.4758 63.3161 63.0211 51.76 63.0211 37.5048C63.0211 23.2495 51.4758 11.6934 37.2339 11.6934C22.9921 11.6934 11.4468 23.2495 11.4468 37.5048C11.4468 51.76 22.9921 63.3161 37.2339 63.3161Z" stroke="currenColor" stroke-width="0.6" stroke-miterlimit="10"/>
<path d="M37.234 66.492C52.1822 66.492 64.3002 54.3659 64.3002 39.4076C64.3002 24.4493 52.1822 12.3232 37.234 12.3232C22.2858 12.3232 10.1678 24.4493 10.1678 39.4076C10.1678 54.3659 22.2858 66.492 37.234 66.492Z" stroke="currenColor" stroke-width="0.6" stroke-miterlimit="10"/>
<path d="M58.8929 59.6301C48.7878 71.6023 30.8932 73.1057 18.9332 62.9884C6.97313 52.8712 5.46979 34.9705 15.581 22.9983C25.6861 11.0262 43.5807 9.52282 55.5407 19.6401C67.5008 29.7573 69.0041 47.658 58.8929 59.6301Z" stroke="currenColor" stroke-width="0.6" stroke-miterlimit="10"/>
<path d="M59.5538 62.7581C48.7698 75.094 30.0386 76.3427 17.7149 65.5587C5.39113 54.7686 4.13633 36.0253 14.9204 23.6894C25.7044 11.3535 44.4356 10.1048 56.7593 20.8888C69.0831 31.6789 70.3379 50.4222 59.5538 62.7581Z" stroke="currenColor" stroke-width="0.6" stroke-miterlimit="10"/>
<path d="M60.2145 65.8803C48.7576 78.5798 29.1838 79.5801 16.4964 68.1171C3.80282 56.6541 2.80261 37.0622 14.2595 24.3626C25.7164 11.663 45.2902 10.6628 57.9776 22.1258C70.6712 33.5887 71.6714 53.1807 60.2145 65.8803Z" stroke="currenColor" stroke-width="0.6" stroke-miterlimit="10"/>
<path d="M60.8753 69.0079C48.7455 82.0712 28.3291 82.8229 15.2719 70.6871C2.21465 58.5512 1.46298 38.1167 13.5928 25.0534C25.7225 11.9901 46.1389 11.2384 59.1961 23.3743C72.2534 35.5101 73.005 55.9446 60.8753 69.0079Z" stroke="currenColor" stroke-width="0.6" stroke-miterlimit="10"/>
<path d="M61.536 72.1295C48.7334 85.5626 27.4745 86.0597 14.0535 73.2509C0.632544 60.4362 0.135471 39.1651 12.9381 25.732C25.7408 12.299 46.9997 11.8019 60.4207 24.6106C73.8416 37.4254 74.3447 58.6964 61.536 72.1295Z" stroke="currenColor" stroke-width="0.6" stroke-miterlimit="10"/>
<path d="M62.1968 75.2574C48.7213 89.0542 26.6197 89.3028 12.8351 75.8151C-0.949588 62.3275 -1.20419 40.2138 12.2774 26.417C25.7529 12.6202 47.8544 12.3717 61.6391 25.8593C75.4238 39.347 75.6723 61.4667 62.1968 75.2574Z" stroke="currenColor" stroke-width="0.6" stroke-miterlimit="10"/>
<path d="M62.8575 78.3793C48.7091 92.5398 25.765 92.5398 11.6105 78.3793C-2.53785 64.2188 -2.53785 41.2625 11.6166 27.096C25.765 12.9355 48.7091 12.9355 62.8635 27.096C77.0119 41.2565 77.0119 64.2188 62.8635 78.3793H62.8575Z" stroke="currenColor" stroke-width="0.6" stroke-miterlimit="10"/>
</g>
</svg>
