<svg viewBox="0 0 81 88" fill="none" xmlns="http://www.w3.org/2000/svg">
<g opacity="0.9">
<path d="M72.7397 26.1715C73.0616 26.6104 73.3615 27.0712 73.6248 27.554C77.9112 23.0994 79.0303 18.1474 76.7847 13.6197C76.2581 12.7273 75.4973 11.5716 74.9195 10.7158C77.9989 14.8778 77.2528 21.2634 72.7397 26.1642V26.1715Z" fill="currentColor"/>
<path d="M74.5977 29.704C74.7951 30.2453 74.9634 30.8012 75.1024 31.3791C78.9498 28.3874 80.5078 24.4156 79.6447 20.9485L79.6301 20.89C79.3814 19.961 78.9864 18.7322 78.6938 17.8179C80.0763 21.5776 78.6719 26.193 74.5977 29.704Z" fill="currentColor"/>
<path d="M75.5557 33.8812C75.6288 34.5029 75.6727 35.1393 75.6946 35.7903C79.0667 33.808 80.749 31.0431 80.6466 28.3221L80.5954 27.1664L80.4198 25.228C80.7856 28.2709 79.1252 31.5039 75.5557 33.8885V33.8812Z" fill="currentColor"/>
<path d="M75.636 38.577C75.5848 39.2573 75.5116 39.9522 75.4165 40.6544C78.3496 39.4694 79.9808 37.6262 80.2514 35.6L80.5074 33.3618L80.5733 32.5791C80.4197 34.8832 78.7519 37.0776 75.6433 38.5697L75.636 38.577Z" fill="currentColor"/>
<path d="M74.8679 43.6536C74.707 44.3778 74.5168 45.1092 74.3047 45.848C76.8428 45.314 78.3277 44.2022 78.7227 42.7832C78.9714 41.8981 79.2566 40.7059 79.4834 39.8135C79.1103 41.4666 77.5597 42.8636 74.8679 43.6463V43.6536Z" fill="currentColor"/>
<path d="M73.2957 48.9636C73.0177 49.7097 72.7252 50.4631 72.4033 51.2165C74.5757 51.2384 75.8558 50.7191 76.2288 49.8267C76.5946 48.9563 77.0408 47.7786 77.3845 46.9082C76.9822 48.0127 75.6144 48.7661 73.2957 48.9636Z" fill="currentColor"/>
<path d="M70.933 54.3841C70.5526 55.1375 70.1503 55.8909 69.7188 56.6443C71.5474 57.1709 72.5787 57.1563 72.8274 56.7101L74.3562 53.8647C74.0417 54.4938 72.9079 54.7059 70.933 54.3914V54.3841Z" fill="currentColor"/>
<path d="M66.2954 61.9693C67.7803 62.9641 68.519 63.4102 68.5556 63.3517L68.8921 62.8909L70.4501 60.6161C70.3111 60.8282 69.448 60.5722 67.8169 59.7749C67.3341 60.5137 66.8294 61.2524 66.3027 61.9766L66.2954 61.9693Z" fill="currentColor"/>
<path d="M62.1699 67.0524C63.2964 68.5227 63.684 69.4004 63.4207 69.6784L64.6349 68.3032L65.6663 67.0817C65.7248 66.8476 65.3006 66.3137 63.9693 64.9678C63.6987 65.2969 63.4207 65.6261 63.1427 65.9479C62.8209 66.321 62.4991 66.6867 62.1699 67.0451V67.0524Z" fill="currentColor"/>
<path d="M57.7372 75.2744L59.9169 73.2775L60.1583 73.0435C60.6265 72.59 60.4729 71.4855 59.5659 69.73C58.9368 70.3371 58.3004 70.9223 57.6567 71.4855C58.3955 73.4385 58.3736 74.7112 57.7299 75.2671L57.7372 75.2744Z" fill="currentColor"/>
<path d="M52.9978 75.0987C53.3123 77.5564 52.8003 79.2095 51.6812 79.9556C52.4711 79.4216 53.4805 78.6682 54.2559 78.1123C55.1556 77.4321 55.4555 75.9399 54.9581 73.6943C54.3071 74.1844 53.6561 74.6525 52.9978 75.0987Z" fill="currentColor"/>
<path d="M48.3017 77.8414C48.1261 80.8477 46.9851 82.8519 45.2808 83.6857C46.1073 83.2761 47.1825 82.6836 47.9945 82.2448C49.4427 81.4329 50.2986 79.575 50.262 76.8027C49.611 77.1758 48.9527 77.5196 48.3017 77.8414Z" fill="currentColor"/>
<path d="M43.6788 79.692C42.8961 83.3127 40.9577 85.6387 38.522 86.3775C39.3851 86.1142 40.5189 85.6973 41.3673 85.3974C44.6296 84.0807 45.3026 80.5405 45.5878 79.0337C44.9442 79.2824 44.3078 79.5018 43.6788 79.692Z" fill="currentColor"/>
<path d="M41.0824 80.3359C40.4679 80.453 39.8681 80.5407 39.2757 80.5993C37.7177 84.9441 34.6748 87.5188 31.3394 87.8407L32.3561 87.7236L34.3749 87.4018C37.3227 86.8605 39.8755 84.3736 41.0897 80.3359H41.0824Z" fill="currentColor"/>
<path d="M36.8397 80.6868C36.2765 80.6649 35.7205 80.621 35.1793 80.5405C32.6192 85.69 28.0622 88.3379 23.7686 87.7015C24.4342 87.7966 25.3339 87.8697 26.0068 87.9429L26.9723 87.9941C30.8637 88.1404 34.7258 85.4925 36.8397 80.6941V80.6868Z" fill="currentColor"/>
<path d="M32.9851 80.0359C32.4804 79.8749 31.9976 79.6848 31.5222 79.4653C27.3675 85.4706 21.6109 87.6942 16.125 85.4194C17.0686 85.8363 18.3486 86.3191 19.3215 86.6702C21.7499 87.3578 27.9307 88.0965 32.9851 80.0286V80.0359Z" fill="currentColor"/>
<path d="M29.6493 78.361C29.5981 78.3244 29.5469 78.2878 29.503 78.2513C29.13 77.9733 28.7789 77.6734 28.4351 77.3516C23.7172 83.0716 15.2469 85.8877 9.23438 80.6943C9.92926 81.3307 10.8948 82.128 11.6262 82.7205L11.9627 82.9691C17.1122 86.6996 24.9973 84.6588 29.6493 78.3683V78.361Z" fill="currentColor"/>
<path d="M26.9578 75.64C26.6432 75.1938 26.3507 74.733 26.0873 74.243C20.5722 79.6338 11.9263 80.8773 6.78419 77.0298C5.67238 76.1959 4.81658 75.1938 4.20947 74.082C4.72149 74.9817 5.46758 76.1374 6.03811 77.0005C6.57939 77.7466 7.2377 78.4269 8.02768 79.012C13.1771 82.8668 21.6547 81.3527 26.9651 75.64H26.9578Z" fill="currentColor"/>
<path d="M25.1367 72.0774C24.9465 71.5362 24.7856 70.9729 24.6466 70.3951C18.795 74.8936 9.88582 75.4202 4.73636 71.5654C2.95892 70.2342 1.86174 68.5591 1.43018 66.7524L1.51064 67.0889C1.73007 67.9301 2.08849 69.0419 2.3445 69.8758C2.89309 71.4264 3.92444 72.8308 5.43125 73.9573C10.5807 77.8121 19.4021 76.9709 25.1367 72.0774Z" fill="currentColor"/>
<path d="M4.12166 67.9891C9.27111 71.8439 18.2607 71.7927 24.2075 67.8721C24.1416 67.2504 24.0977 66.614 24.0831 65.963C18.1071 69.4374 9.08825 69.1302 3.93879 65.2754C1.67859 63.5858 0.53752 61.4938 0.479004 59.3799L0.544832 60.8135L0.683811 62.4593C0.910563 64.4854 2.04432 66.4384 4.11434 67.9891H4.12166Z" fill="currentColor"/>
<path d="M24.3976 61.0765C18.4948 63.4172 9.53444 62.1957 4.38498 58.3409C1.781 56.3879 0.647239 54.1423 0.932507 52.0942L0.639929 54.6104L0.596043 55.1078C0.435123 57.2291 1.56888 59.4454 4.04852 61.3033C9.19798 65.1581 18.2022 65.9919 24.1563 63.1685C24.2075 62.4809 24.2879 61.786 24.3903 61.0838L24.3976 61.0765Z" fill="currentColor"/>
<path d="M6.00177 50.9608C3.1564 48.8322 2.00801 46.6452 2.49808 44.9189C2.24207 45.804 1.95681 46.9963 1.72274 47.8887C0.632871 54.2816 14.9621 60.5721 24.9611 58.0779C25.1293 57.3537 25.3195 56.6149 25.539 55.8762C19.8994 57.0099 11.1512 54.8082 6.00177 50.9608Z" fill="currentColor"/>
<path d="M8.75891 43.3239C5.75263 41.071 4.51646 39.1034 5.03579 37.8745C4.66275 38.7449 4.21657 39.9153 3.86547 40.793C3.3315 42.2413 4.52377 44.3186 7.47154 46.5276C12.621 50.3824 21.1717 53.1693 26.5699 52.7523C26.8478 51.9989 27.1477 51.2529 27.4769 50.4921C22.2835 50.3824 13.9011 47.1713 8.75891 43.3166V43.3239Z" fill="currentColor"/>
<path d="M28.9617 47.3403C29.3494 46.5869 29.759 45.8335 30.1833 45.0801C25.619 43.7196 17.7485 39.4917 12.5991 35.637C9.49768 33.3182 8.09329 31.6578 8.46633 31.0068L6.92296 33.8522C6.46945 34.7519 7.8007 36.544 10.8655 38.8407C16.015 42.6955 24.1122 46.4991 28.9617 47.3403Z" fill="currentColor"/>
<path d="M32.1144 41.9636C32.6044 41.2248 33.1091 40.4934 33.6431 39.7619C29.8761 37.1653 22.6566 31.9427 17.5072 28.0879C14.3692 25.7399 12.7308 24.4452 12.7747 24.3794L12.2553 25.0962L10.8729 27.115C10.6754 27.4223 12.2114 28.8705 15.3347 31.2112C20.4842 35.066 27.9963 39.879 32.1144 41.9636Z" fill="currentColor"/>
<path d="M35.9766 36.7629C36.1961 36.4996 36.4155 36.2436 36.6422 35.9803C37.0226 35.5414 37.403 35.1099 37.7906 34.6929C34.9892 30.9259 28.5377 24.7451 23.3956 20.8903C20.2869 18.5643 18.3632 17.6134 17.9389 18.0596L16.5052 19.6688L15.6787 20.6416C15.8908 20.3929 17.6902 21.4828 20.8209 23.8235C25.9703 27.6783 32.7509 33.4641 35.9766 36.7556V36.7629Z" fill="currentColor"/>
<path d="M40.3946 32.0235C41.0236 31.4164 41.66 30.8386 42.3037 30.2827C40.5482 25.4916 34.9453 18.4843 29.8031 14.6368C26.7749 12.3693 24.5805 11.7037 23.6369 12.5083L21.2231 14.7026L21.2085 14.7173C21.9253 14.0297 24.0173 14.805 27.0894 17.1091C32.2388 20.9639 38.1929 27.6421 40.3946 32.0235Z" fill="currentColor"/>
<path d="M45.0101 28.1027C45.6611 27.6126 46.3121 27.1518 46.9704 26.7129C46.2901 21.0953 41.5722 13.415 36.4228 9.56757C33.5482 7.41709 31.1417 6.91238 29.7007 7.86327C28.9107 8.38992 27.894 9.14332 27.1187 9.69192C28.3548 8.77028 30.6882 9.32619 33.6359 11.5352C38.7854 15.39 43.8763 22.8069 45.0028 28.1027H45.0101Z" fill="currentColor"/>
<path d="M49.7134 25.0231C50.3644 24.6574 51.0227 24.3136 51.6737 23.999C52.0833 17.7524 48.2431 9.5674 43.101 5.71262C40.4458 3.73038 37.9662 3.27687 36.1302 4.16925C35.3037 4.57155 34.2284 5.16403 33.4165 5.58828C35.1062 4.65201 37.5712 5.10551 40.3288 7.16822C45.4782 11.023 49.6841 19.0105 49.728 25.0231H49.7134Z" fill="currentColor"/>
<path d="M46.9338 4.0599C52.0832 7.91468 55.4114 16.3191 54.3727 22.8364C55.0164 22.595 55.6527 22.3829 56.2818 22.1927C57.7593 15.5291 54.7896 7.00036 49.6402 3.1529C47.3141 1.41203 44.9369 0.921953 42.8961 1.52906L42.7352 1.57295C41.916 1.82164 40.848 2.20932 40.0361 2.48727C42.0184 1.7485 44.4615 2.21663 46.9265 4.06722L46.9338 4.0599Z" fill="currentColor"/>
<path d="M53.3267 2.26014C58.4761 6.11492 60.9631 14.7534 58.8784 21.5633C59.4856 21.4536 60.0927 21.3731 60.6851 21.3146C63.1867 14.4462 61.0362 5.75651 55.8868 1.90904C54.0216 0.511961 52.0174 -0.0585754 50.101 0.10966L48.7917 0.255951L47.0508 0.52659C49.0623 0.168176 51.2493 0.709455 53.3194 2.26014H53.3267Z" fill="currentColor"/>
<path d="M59.332 1.82133C64.4814 5.6761 66.1711 14.3731 63.1136 21.2561C63.6768 21.2781 64.2327 21.3366 64.7667 21.417C68.2118 14.5706 66.8294 5.90286 61.6799 2.04808C60.4291 1.11181 59.0759 0.548592 57.6862 0.321841C56.9255 0.204808 55.9087 0.117033 55.1407 0.036573L54.4604 0C56.1282 0.0804602 57.7959 0.665625 59.3246 1.81401L59.332 1.82133Z" fill="currentColor"/>
<path d="M62.8428 1.67494C62.6087 1.57253 62.3674 1.48476 62.126 1.4043C62.3454 1.48476 62.5941 1.57985 62.8428 1.67494Z" fill="currentColor"/>
<path d="M66.9389 21.9435C67.4363 22.1117 67.9264 22.3092 68.3945 22.5286C72.6809 15.9455 71.9787 7.48258 66.8292 3.6278C66.3391 3.26208 65.8344 2.95486 65.3078 2.69885C64.5836 2.3697 63.6693 1.99666 62.8428 1.68213C63.5084 1.9674 64.1521 2.34044 64.7665 2.80126C69.916 6.65603 70.8888 15.2287 66.9389 21.9508V21.9435Z" fill="currentColor"/>
<path d="M70.2528 23.6553C70.2528 23.6553 70.2748 23.67 70.2821 23.6773C70.6917 23.9845 71.0794 24.321 71.4524 24.6867C76.1118 19.0106 76.3166 11.6156 72.14 7.51941C71.3793 6.8099 70.3187 5.91752 69.5141 5.25921L69.4482 5.20801C69.4482 5.20801 69.4629 5.22264 69.4702 5.22264C74.6196 9.07741 74.9707 17.3282 70.2528 23.648V23.6553Z" fill="currentColor"/>
</g>
</svg>
