<svg width="81" height="88" viewBox="0 0 81 88" fill="none" xmlns="http://www.w3.org/2000/svg">
<g opacity="0.9">
<path d="M72.2606 26.1715C72.5825 26.6104 72.8824 27.0712 73.1457 27.554C77.432 23.0994 78.5511 18.1474 76.3056 13.6197C75.7789 12.7273 75.0182 11.5716 74.4404 10.7158C77.5198 14.8778 76.7737 21.2634 72.2606 26.1642V26.1715Z" fill="#222222"/>
<path d="M74.1185 29.7045C74.316 30.2458 74.4843 30.8017 74.6232 31.3796C78.4707 28.3879 80.0287 24.4161 79.1656 20.949L79.151 20.8905C78.9023 19.9615 78.5073 18.7327 78.2147 17.8184C79.5971 21.578 78.1927 26.1935 74.1185 29.7045Z" fill="#222222"/>
<path d="M75.0767 33.8816C75.1498 34.5034 75.1937 35.1398 75.2156 35.7908C78.5877 33.8085 80.27 31.0436 80.1676 28.3226L80.1164 27.1669L79.9408 25.2285C80.3066 28.2714 78.6462 31.5044 75.0767 33.889V33.8816Z" fill="#222222"/>
<path d="M75.1572 38.577C75.106 39.2573 75.0328 39.9522 74.9377 40.6544C77.8709 39.4694 79.502 37.6262 79.7727 35.6L80.0287 33.3618L80.0945 32.5791C79.9409 34.8832 78.2732 37.0776 75.1645 38.5697L75.1572 38.577Z" fill="#222222"/>
<path d="M74.3891 43.6536C74.2282 44.3778 74.038 45.1092 73.8259 45.848C76.364 45.314 77.8489 44.2022 78.2438 42.7832C78.4925 41.8981 78.7778 40.7059 79.0046 39.8135C78.6315 41.4666 77.0808 42.8636 74.3891 43.6463V43.6536Z" fill="#222222"/>
<path d="M72.8166 48.9636C72.5386 49.7097 72.246 50.4631 71.9242 51.2165C74.0966 51.2384 75.3767 50.7191 75.7497 49.8267C76.1154 48.9563 76.5616 47.7786 76.9054 46.9082C76.5031 48.0127 75.1353 48.7661 72.8166 48.9636Z" fill="#222222"/>
<path d="M70.4538 54.3836C70.0735 55.137 69.6712 55.8904 69.2396 56.6438C71.0683 57.1704 72.0996 57.1558 72.3483 56.7096L73.8771 53.8643C73.5626 54.4933 72.4288 54.7054 70.4538 54.3909V54.3836Z" fill="#222222"/>
<path d="M65.8165 61.9688C67.3013 62.9636 68.0401 63.4098 68.0767 63.3512L68.4132 62.8904L69.9711 60.6156C69.8322 60.8277 68.9691 60.5717 67.3379 59.7744C66.8551 60.5132 66.3504 61.252 65.8238 61.9761L65.8165 61.9688Z" fill="#222222"/>
<path d="M61.6911 67.0524C62.8175 68.5227 63.2052 69.4004 62.9419 69.6784L64.1561 68.3032L65.1875 67.0817C65.246 66.8476 64.8217 66.3137 63.4905 64.9678C63.2198 65.2969 62.9419 65.6261 62.6639 65.9479C62.3421 66.321 62.0203 66.6867 61.6911 67.0451V67.0524Z" fill="#222222"/>
<path d="M57.2584 75.2739L59.4381 73.2771L59.6795 73.043C60.1476 72.5895 59.994 71.485 59.087 69.7295C58.458 70.3366 57.8216 70.9218 57.1779 71.485C57.9167 73.438 57.8947 74.7107 57.2511 75.2666L57.2584 75.2739Z" fill="#222222"/>
<path d="M52.5186 75.0987C52.8331 77.5564 52.3211 79.2095 51.202 79.9556C51.9919 79.4216 53.0013 78.6682 53.7767 78.1123C54.6764 77.4321 54.9763 75.9399 54.4789 73.6943C53.8279 74.1844 53.1769 74.6525 52.5186 75.0987Z" fill="#222222"/>
<path d="M47.8226 77.8414C47.647 80.8477 46.506 82.8519 44.8017 83.6857C45.6282 83.2761 46.7035 82.6836 47.5154 82.2448C48.9637 81.4329 49.8195 79.575 49.7829 76.8027C49.1319 77.1758 48.4736 77.5196 47.8226 77.8414Z" fill="#222222"/>
<path d="M43.1998 79.6925C42.4172 83.3132 40.4788 85.6392 38.043 86.378C38.9061 86.1147 40.0399 85.6978 40.8884 85.3979C44.1507 84.0812 44.8236 80.541 45.1089 79.0342C44.4652 79.2829 43.8289 79.5023 43.1998 79.6925Z" fill="#222222"/>
<path d="M40.6031 80.3359C39.9887 80.453 39.3889 80.5407 38.7964 80.5993C37.2384 84.9441 34.1956 87.5188 30.8601 87.8407L31.8768 87.7236L33.8957 87.4018C36.8434 86.8605 39.3962 84.3736 40.6104 80.3359H40.6031Z" fill="#222222"/>
<path d="M36.3608 80.6873C35.7976 80.6654 35.2417 80.6215 34.7004 80.541C32.1403 85.6905 27.5833 88.3383 23.2897 87.702C23.9553 87.7971 24.855 87.8702 25.5279 87.9434L26.4934 87.9946C30.3848 88.1409 34.2469 85.493 36.3608 80.6946V80.6873Z" fill="#222222"/>
<path d="M32.5058 80.0364C32.0011 79.8754 31.5184 79.6853 31.0429 79.4658C26.8882 85.4711 21.1317 87.6947 15.6458 85.4199C16.5893 85.8368 17.8694 86.3196 18.8422 86.6707C21.2707 87.3582 27.4515 88.097 32.5058 80.029V80.0364Z" fill="#222222"/>
<path d="M29.1704 78.361C29.1192 78.3244 29.0681 78.2878 29.0242 78.2513C28.6511 77.9733 28.3 77.6734 27.9562 77.3516C23.2383 83.0716 14.7681 85.8877 8.75549 80.6943C9.45038 81.3307 10.4159 82.128 11.1474 82.7205L11.4838 82.9691C16.6333 86.6996 24.5184 84.6588 29.1704 78.3683V78.361Z" fill="#222222"/>
<path d="M26.4788 75.64C26.1643 75.1938 25.8717 74.733 25.6084 74.243C20.0932 79.6338 11.4474 80.8773 6.30525 77.0298C5.19344 76.1959 4.33764 75.1938 3.73053 74.082C4.24255 74.9817 4.98864 76.1374 5.55917 77.0005C6.10045 77.7466 6.75876 78.4269 7.54873 79.012C12.6982 82.8668 21.1758 81.3527 26.4861 75.64H26.4788Z" fill="#222222"/>
<path d="M24.6574 72.0779C24.4673 71.5367 24.3063 70.9734 24.1674 70.3956C18.3157 74.894 9.40657 75.4207 4.25712 71.5659C2.47968 70.2347 1.38249 68.5596 0.950928 66.7529L1.03139 67.0894C1.25083 67.9306 1.60924 69.0424 1.86525 69.8762C2.41384 71.4269 3.4452 72.8313 4.952 73.9578C10.1015 77.8126 18.9228 76.9714 24.6574 72.0779Z" fill="#222222"/>
<path d="M3.64265 67.9891C8.79211 71.8439 17.7817 71.7927 23.7284 67.8721C23.6626 67.2504 23.6187 66.614 23.6041 65.963C17.6281 69.4374 8.60924 69.1302 3.45979 65.2754C1.19959 63.5858 0.0585165 61.4938 0 59.3799L0.0658284 60.8135L0.204807 62.4593C0.431559 64.4854 1.56532 66.4384 3.63534 67.9891H3.64265Z" fill="#222222"/>
<path d="M23.9186 61.077C18.0157 63.4177 9.05537 62.1961 3.90592 58.3414C1.30193 56.3884 0.168174 54.1428 0.453442 52.0947L0.160864 54.6109L0.116979 55.1083C-0.043942 57.2295 1.08982 59.4459 3.56946 61.3038C8.71891 65.1585 17.7231 65.9924 23.6772 63.169C23.7284 62.4814 23.8089 61.7865 23.9113 61.0843L23.9186 61.077Z" fill="#222222"/>
<path d="M5.52258 50.9608C2.67721 48.8322 1.52882 46.6452 2.0189 44.9189C1.76289 45.804 1.47762 46.9963 1.24355 47.8887C0.153684 54.2816 14.4829 60.5721 24.4819 58.0779C24.6502 57.3537 24.8403 56.6149 25.0598 55.8762C19.4203 57.0099 10.672 54.8082 5.52258 50.9608Z" fill="#222222"/>
<path d="M8.28 43.3244C5.27371 41.0715 4.03754 39.1038 4.55688 37.875C4.18384 38.7454 3.73765 39.9158 3.38655 40.7935C2.85259 42.2418 4.04486 44.3191 6.99263 46.5281C12.1421 50.3829 20.6928 53.1698 26.091 52.7528C26.3689 51.9994 26.6688 51.2533 26.998 50.4926C21.8046 50.3829 13.4221 47.1718 8.28 43.317V43.3244Z" fill="#222222"/>
<path d="M28.4829 47.3403C28.8706 46.5869 29.2802 45.8335 29.7044 45.0801C25.1401 43.7196 17.2697 39.4917 12.1202 35.637C9.01883 33.3182 7.61444 31.6578 7.98748 31.0068L6.44411 33.8522C5.9906 34.7519 7.32185 36.544 10.3867 38.8407C15.5361 42.6955 23.6333 46.4991 28.4829 47.3403Z" fill="#222222"/>
<path d="M31.6356 41.9641C32.1257 41.2253 32.6304 40.4939 33.1643 39.7624C29.3973 37.1657 22.1779 31.9431 17.0284 28.0884C13.8905 25.7404 12.252 24.4457 12.2959 24.3799L11.7765 25.0967L10.3941 27.1155C10.1966 27.4227 11.7327 28.871 14.856 31.2117C20.0054 35.0665 27.5175 39.8794 31.6356 41.9641Z" fill="#222222"/>
<path d="M35.4976 36.7634C35.7171 36.5001 35.9365 36.2441 36.1632 35.9808C36.5436 35.5419 36.924 35.1103 37.3116 34.6934C34.5101 30.9264 28.0587 24.7456 22.9166 20.8908C19.8079 18.5648 17.8842 17.6139 17.4599 18.0601L16.0262 19.6693L15.1997 20.6421C15.4118 20.3934 17.2112 21.4833 20.3418 23.824C25.4913 27.6787 32.2719 33.4646 35.4976 36.7561V36.7634Z" fill="#222222"/>
<path d="M39.9156 32.0235C40.5447 31.4164 41.1811 30.8386 41.8248 30.2827C40.0693 25.4916 34.4663 18.4843 29.3242 14.6368C26.2959 12.3693 24.1016 11.7037 23.158 12.5083L20.7442 14.7026L20.7296 14.7173C21.4464 14.0297 23.5383 14.805 26.6104 17.1091C31.7599 20.9639 37.714 27.6421 39.9156 32.0235Z" fill="#222222"/>
<path d="M44.531 28.1032C45.182 27.6131 45.833 27.1523 46.4913 26.7134C45.8111 21.0958 41.0932 13.4155 35.9437 9.56806C33.0691 7.41757 30.6626 6.91287 29.2216 7.86376C28.4317 8.39041 27.4149 9.14381 26.6396 9.6924C27.8757 8.77077 30.2091 9.32668 33.1569 11.5357C38.3063 15.3905 43.3973 22.8074 44.5237 28.1032H44.531Z" fill="#222222"/>
<path d="M49.2344 25.0226C49.8854 24.6569 50.5437 24.3131 51.1947 23.9985C51.6043 17.7519 47.7641 9.56691 42.622 5.71214C39.9668 3.72989 37.4872 3.27638 35.6512 4.16876C34.8247 4.57106 33.7494 5.16354 32.9375 5.58779C34.6272 4.65152 37.0922 5.10503 39.8498 7.16773C44.9992 11.0225 49.2051 19.01 49.249 25.0226H49.2344Z" fill="#222222"/>
<path d="M46.4549 4.0599C51.6043 7.91468 54.9325 16.3191 53.8938 22.8364C54.5375 22.595 55.1738 22.3829 55.8029 22.1927C57.2804 15.5291 54.3107 7.00036 49.1613 3.1529C46.8352 1.41203 44.458 0.921953 42.4172 1.52906L42.2563 1.57295C41.4371 1.82164 40.3692 2.20932 39.5573 2.48727C41.5395 1.7485 43.9826 2.21663 46.4476 4.06722L46.4549 4.0599Z" fill="#222222"/>
<path d="M52.8477 2.26014C57.9972 6.11492 60.4842 14.7534 58.3995 21.5633C59.0066 21.4536 59.6137 21.3731 60.2062 21.3146C62.7078 14.4462 60.5573 5.75651 55.4078 1.90904C53.5426 0.511961 51.5384 -0.0585754 49.622 0.10966L48.3127 0.255951L46.5718 0.52659C48.5833 0.168176 50.7704 0.709455 52.8404 2.26014H52.8477Z" fill="#222222"/>
<path d="M58.853 1.82133C64.0025 5.6761 65.6921 14.3731 62.6346 21.2561C63.1979 21.2781 63.7538 21.3366 64.2877 21.417C67.7329 14.5706 66.3504 5.90286 61.201 2.04808C59.9502 1.11181 58.597 0.548592 57.2072 0.321841C56.4465 0.204808 55.4298 0.117033 54.6618 0.036573L53.9815 0C55.6492 0.0804602 57.3169 0.665625 58.8457 1.81401L58.853 1.82133Z" fill="#222222"/>
<path d="M62.364 1.67494C62.13 1.57253 61.8886 1.48476 61.6472 1.4043C61.8667 1.48476 62.1153 1.57985 62.364 1.67494Z" fill="#222222"/>
<path d="M66.4602 21.944C66.9576 22.1122 67.4476 22.3097 67.9158 22.5291C72.2021 15.946 71.4999 7.48307 66.3505 3.62829C65.8604 3.26256 65.3557 2.95535 64.829 2.69934C64.1049 2.37019 63.1906 1.99714 62.364 1.68262C63.0296 1.96789 63.6733 2.34093 64.2877 2.80175C69.4372 6.65652 70.41 15.2292 66.4602 21.9513V21.944Z" fill="#222222"/>
<path d="M69.7737 23.6553C69.7737 23.6553 69.7957 23.67 69.803 23.6773C70.2126 23.9845 70.6003 24.321 70.9733 24.6867C75.6327 19.0106 75.8375 11.6156 71.6609 7.51941C70.9002 6.8099 69.8395 5.91752 69.0349 5.25921L68.9691 5.20801C68.9691 5.20801 68.9837 5.22264 68.9911 5.22264C74.1405 9.07741 74.4916 17.3282 69.7737 23.648V23.6553Z" fill="#222222"/>
</g>
</svg>
