<svg viewBox="0 0 89 88" fill="none" xmlns="http://www.w3.org/2000/svg">
<path d="M69.7115 69.2256C69.8421 69.2462 69.9727 69.2668 70.0964 69.2806C70.1996 69.2943 70.3027 69.3012 70.4127 69.315C70.3921 69.315 70.3714 69.315 70.3439 69.3081C70.1446 69.2806 69.9315 69.2531 69.7046 69.2256H69.7115Z" fill="currentColor"/>
<path d="M77.102 68.6826C76.8202 68.7651 76.5314 68.8407 76.2427 68.9026C76.4695 68.8476 76.7514 68.772 77.102 68.6826Z" fill="currentColor"/>
<path d="M70.3784 68.7304C70.1172 68.6616 69.856 68.5791 69.5947 68.4897C69.6222 68.641 69.6428 68.7854 69.6635 68.9297C70.1928 69.0741 70.7222 69.1841 71.2653 69.2597C72.2071 69.3835 73.1627 69.3972 74.1045 69.2941L74.4001 69.2597C74.9982 69.1841 75.2664 69.1428 75.7132 69.0397C75.8645 69.0053 76.0294 68.9641 76.2357 68.916C75.4382 69.0878 74.6201 69.1772 73.802 69.1841C72.654 69.1978 71.499 69.0466 70.3716 68.7372L70.3784 68.7304Z" fill="currentColor"/>
<path d="M77.1016 68.6823C77.1016 68.6823 77.1084 68.6823 77.1153 68.6823L77.2047 68.6548C77.2047 68.6548 77.1772 68.6617 77.1703 68.6685C77.1497 68.6754 77.1222 68.6823 77.1016 68.6892V68.6823Z" fill="currentColor"/>
<path d="M69.2784 66.7921C69.3334 67.0464 69.3884 67.3077 69.4365 67.5689C72.7776 69.0126 77.2256 69.4113 81.8797 66.359C81.8797 66.359 81.8797 66.359 81.8866 66.359C82.2372 66.1046 82.4228 65.9671 82.6703 65.7609C82.9178 65.5478 83.234 65.259 83.8459 64.6884C84.0178 64.5166 84.2034 64.3034 84.389 64.0972C84.3821 64.104 84.3684 64.1178 84.3615 64.1247C80.8073 67.9058 74.8538 69.4732 69.2646 66.8058L69.2784 66.7921Z" fill="currentColor"/>
<path d="M84.8841 63.5332C84.726 63.7188 84.5679 63.9044 84.396 64.0832C84.5679 63.8907 84.7329 63.6982 84.8841 63.5332Z" fill="currentColor"/>
<path d="M87.2216 59.1474C86.9397 59.718 86.6029 60.2748 86.2179 60.811C85.8329 61.3473 85.3998 61.856 84.9186 62.3441C83.6674 63.6021 82.1962 64.5577 80.6081 65.2108C79.0201 65.8639 77.322 66.2076 75.6102 66.242C73.8984 66.2764 72.1729 66.0083 70.5367 65.424C69.9111 65.204 69.2924 64.929 68.7012 64.6196C68.7012 64.6333 68.708 64.6471 68.7149 64.6608C68.7355 64.7227 68.7493 64.7846 68.7699 64.8465C68.8524 65.1146 68.928 65.369 69.0037 65.6233C69.4505 65.8502 69.9042 66.0496 70.3649 66.2283C71.9942 66.847 73.7128 67.1495 75.4178 67.1426C77.1227 67.1358 78.8139 66.8126 80.395 66.1802C81.9762 65.5477 83.4405 64.599 84.6986 63.3409C85.0286 63.0109 85.3379 62.6672 85.6198 62.3097C85.9017 61.9522 86.1629 61.5879 86.4035 61.2098C86.6441 60.8317 86.8572 60.4467 87.0497 60.0479C87.1804 59.773 87.3041 59.498 87.4141 59.2161C87.4622 59.0924 87.5103 58.9617 87.5585 58.838C87.5722 58.7899 87.5928 58.7349 87.6066 58.6867C87.7441 58.2674 87.8885 57.7586 88.0053 57.353C88.0053 57.3462 88.0053 57.3393 88.0122 57.3324C88.0122 57.3187 88.0122 57.3049 88.0191 57.2912C88.0741 57.0437 88.1359 56.7618 88.1909 56.48C88.1222 56.7893 88.0397 57.0918 87.9435 57.3943C87.7578 57.9924 87.5241 58.5836 87.2354 59.1542L87.2216 59.1474Z" fill="currentColor"/>
<path d="M88.1699 56.4725C88.2249 56.2181 88.273 55.9569 88.3143 55.7025C88.3212 55.6544 88.328 55.6062 88.3349 55.5581C88.3349 55.5719 88.3349 55.5925 88.328 55.6062C88.2799 55.8675 88.2249 56.17 88.1699 56.4725Z" fill="currentColor"/>
<path d="M67.6421 61.7734C67.814 62.1722 67.9858 62.6122 68.1371 63.0178C76.5311 67.4657 88.8024 62.5159 88.4724 51.5302L88.4587 51.3583C88.4106 50.8496 88.3212 50.224 88.2387 49.6534C88.2112 49.4678 88.1837 49.289 88.1631 49.124C88.1837 49.2478 88.1974 49.3646 88.2112 49.4884C89.538 60.0273 77.2529 66.9363 67.6421 61.7803V61.7734Z" fill="currentColor"/>
<path d="M86.9051 49.6598C86.6508 50.6497 86.2452 51.6328 85.6814 52.5815C85.1246 53.5371 84.4096 54.4583 83.5503 55.3245C82.2922 56.5895 80.8279 57.6069 79.2605 58.3769C77.693 59.14 76.0156 59.6487 74.3382 59.8893C72.6608 60.1231 70.9765 60.0956 69.3884 59.7725C68.2472 59.5456 67.1541 59.1606 66.1436 58.6313C66.3635 59.0575 66.5973 59.5043 66.776 59.8824C66.7966 59.9237 66.8104 59.965 66.831 60.0062C67.7935 60.5218 68.8247 60.9137 69.8971 61.168C71.5058 61.553 73.2107 61.6424 74.9088 61.4568C76.6068 61.2711 78.2911 60.8037 79.8723 60.0681C81.4535 59.3325 82.9178 58.3288 84.1759 57.0638C84.994 56.2457 85.6677 55.3727 86.2039 54.4583C86.7401 53.5509 87.1458 52.6021 87.407 51.6534C87.6682 50.6979 87.7989 49.7354 87.792 48.7867C87.7851 47.8999 87.6614 47.0268 87.4139 46.1812C87.3932 46.1193 87.3795 46.0574 87.3589 45.9956C87.3107 45.8512 87.2557 45.6862 87.2008 45.5281C87.0564 45.1156 86.8914 44.6688 86.747 44.27C87.0151 45.0606 87.1733 45.8856 87.2076 46.7243C87.2558 47.6936 87.1458 48.6836 86.8914 49.6666L86.9051 49.6598Z" fill="currentColor"/>
<path d="M85.2554 41.9332C85.3447 42.8613 85.2554 43.8444 85.001 44.8412C84.7466 45.838 84.3135 46.8555 83.7154 47.8592C83.1173 48.8629 82.3474 49.8528 81.4055 50.7947C80.1475 52.0596 78.6969 53.1183 77.1638 53.957C75.6239 54.7957 74.0015 55.4076 72.3791 55.772C70.7635 56.1363 69.148 56.2601 67.6424 56.1088C66.4118 55.9851 65.2569 55.6895 64.2119 55.1945C64.315 55.3664 64.4182 55.5313 64.5075 55.6895C64.6794 55.9782 64.8788 56.3151 65.0781 56.6519C66.1162 57.1675 67.2574 57.5044 68.4536 57.6763C70.0004 57.8962 71.6435 57.8412 73.2934 57.5319C74.9433 57.2225 76.5864 56.6519 78.1401 55.8476C79.6937 55.0432 81.1443 53.9983 82.4092 52.7333C83.3236 51.819 84.066 50.8497 84.6504 49.8666C85.2347 48.8767 85.6472 47.866 85.9016 46.8692C86.1559 45.8655 86.2453 44.8756 86.1697 43.92C86.1078 43.1019 85.9153 42.3113 85.606 41.562C85.5579 41.4382 85.5029 41.3213 85.4479 41.2045C85.2004 40.6889 84.8498 40.0358 84.5748 39.4927C84.6023 39.5477 84.6229 39.5958 84.6504 39.6508C84.9804 40.3589 85.1797 41.122 85.2554 41.9195V41.9332Z" fill="currentColor"/>
<path d="M80.8485 42.8335C80.2092 43.8372 79.3911 44.8478 78.4011 45.8377C77.1362 47.1027 75.7131 48.2095 74.2282 49.1307C72.7364 50.052 71.1758 50.7806 69.6428 51.2894C68.1097 51.7981 66.5973 52.0869 65.2017 52.1281C63.9574 52.1625 62.8093 51.9975 61.8125 51.6194C62.17 52.1281 62.5275 52.6506 62.8575 53.1387C63.8818 53.5718 65.0505 53.7986 66.2948 53.833C67.7385 53.8743 69.299 53.6543 70.8665 53.2074C72.4408 52.7606 74.0288 52.08 75.5413 51.1932C77.0537 50.3063 78.4836 49.2201 79.7486 47.9552C80.7179 46.9858 81.5154 45.9821 82.1341 44.9716C82.7597 43.9679 83.2066 42.9573 83.4815 41.9879C83.7565 41.0117 83.8528 40.0699 83.7772 39.1899C83.7015 38.31 83.4403 37.4987 83.0072 36.7769L81.9966 35.1751L81.9485 35.0995L81.8454 34.9482C81.8454 34.9482 81.8797 34.9964 81.8935 35.0239C82.2922 35.6632 82.526 36.3988 82.5878 37.1962C82.6566 38.0281 82.5397 38.9424 82.251 39.8912C81.9622 40.8399 81.4948 41.8367 80.8485 42.8335Z" fill="currentColor"/>
<path d="M77.2391 37.5813C76.5517 38.5575 75.6923 39.5612 74.6817 40.5786C73.4168 41.8436 72.0281 42.9985 70.5913 44.0022C69.1614 45.0059 67.6833 45.8584 66.2602 46.5184C64.8303 47.1783 63.4485 47.6458 62.1904 47.8864C61.0148 48.1133 59.9561 48.127 59.0762 47.9208C59.1243 47.9827 59.1724 48.0445 59.2205 48.0995C59.5437 48.4983 59.9286 49.007 60.2792 49.4745C61.2142 49.7563 62.3142 49.8182 63.5172 49.6807C64.8303 49.5226 66.274 49.1307 67.7452 48.5326C69.2232 47.9345 70.7288 47.1371 72.1862 46.1677C73.6437 45.1984 75.0461 44.0641 76.311 42.7991C77.3147 41.7954 78.1535 40.7848 78.8203 39.7949C79.4871 38.8049 79.989 37.8425 80.3121 36.9419C80.6352 36.0344 80.7865 35.1888 80.7521 34.4258C80.7246 33.7452 80.5527 33.1333 80.2365 32.6177C80.1952 32.5558 80.1609 32.4939 80.1196 32.4321L79.7071 31.8615L79.3359 31.3459L78.7928 30.624C79.1572 31.1053 79.329 31.7171 79.329 32.4184C79.329 33.1264 79.1503 33.9308 78.7928 34.797C78.4422 35.6701 77.9128 36.605 77.2254 37.5744L77.2391 37.5813Z" fill="currentColor"/>
<path d="M74.7645 29.6408C74.3314 30.4107 73.7333 31.277 72.9909 32.205C72.2484 33.1331 71.3547 34.1231 70.3235 35.1543C69.0585 36.4192 67.7042 37.6223 66.343 38.7154C64.9818 39.8084 63.6069 40.7847 62.3007 41.6027C60.9945 42.4208 59.764 43.0739 58.6709 43.5208C57.6122 43.9539 56.6978 44.1808 55.9897 44.1739C56.031 44.222 56.0722 44.2701 56.1135 44.3114C56.4778 44.7307 56.9178 45.2532 57.3166 45.7344C58.1003 45.8307 59.0834 45.6932 60.1971 45.3495C61.3589 44.992 62.6582 44.4145 64.0194 43.6652C65.3806 42.9158 66.7968 41.9877 68.1855 40.9359C69.581 39.8841 70.9491 38.7016 72.214 37.4367C73.2384 36.4124 74.1183 35.4086 74.8333 34.4599C75.5551 33.5112 76.1189 32.6175 76.5176 31.7994C76.9163 30.9882 77.1501 30.2526 77.2051 29.627C77.2601 29.0427 77.1569 28.5546 76.8957 28.1833C76.882 28.1627 76.8613 28.1352 76.8407 28.1146L76.5795 27.7915L76.3732 27.5371L75.3626 26.3271C75.6101 26.6228 75.6789 27.0696 75.5758 27.6265C75.4726 28.1902 75.1976 28.8639 74.7645 29.6408Z" fill="currentColor"/>
<path d="M53.3017 41.1696C53.556 41.4377 53.8104 41.7195 54.0579 41.9877C54.656 41.8639 55.4672 41.4996 56.4296 40.9496C57.4127 40.3858 58.5539 39.6228 59.7776 38.7084C61.0013 37.801 62.3144 36.7491 63.6343 35.6079C64.9543 34.4667 66.2811 33.2362 67.5529 31.9712C68.591 30.9331 69.5053 29.9569 70.2822 29.0564C71.059 28.1558 71.6983 27.3445 72.1864 26.6364C72.6745 25.9284 73.0114 25.3234 73.1833 24.849C73.3551 24.3747 73.362 24.0309 73.197 23.8453L73.1283 23.7697L71.9733 22.5116L71.5883 22.0923C71.5883 22.0923 71.5952 22.1061 71.6021 22.1129C71.6846 22.2367 71.609 22.4979 71.3959 22.8897C71.169 23.3022 70.7771 23.8453 70.2478 24.5122C69.7184 25.179 69.0447 25.9559 68.2404 26.829C67.436 27.702 66.5079 28.6714 65.4699 29.7095C64.2049 30.9744 62.8919 32.2256 61.6063 33.4012C60.3207 34.5767 59.0626 35.6836 57.894 36.6598C56.7321 37.636 55.6597 38.4747 54.7522 39.1278C53.8585 39.7672 53.1367 40.2277 52.6279 40.4477C52.6692 40.489 52.7104 40.5371 52.7517 40.5784C52.8135 40.6402 52.8754 40.709 52.9373 40.7777C52.9373 40.7777 52.9304 40.764 52.9235 40.7571L53.3085 41.1765L53.3017 41.1696Z" fill="currentColor"/>
<path d="M50.5379 38.2891C53.5421 35.4499 68.3296 20.7586 69.2371 19.6655L69.1958 19.6243C68.7352 19.1637 68.2196 18.655 67.8071 18.2493C67.7246 18.1737 67.6422 18.0912 67.5597 18.0088L67.5115 17.9606C67.4428 17.9056 67.209 18.0156 66.8447 18.27C66.4735 18.5312 65.9578 18.9506 65.3185 19.5074C64.6792 20.0643 63.9229 20.7586 63.0636 21.5698C62.2043 22.3811 61.2418 23.3229 60.2037 24.361C58.9388 25.6259 57.6738 26.9252 56.4708 28.1902C55.2677 29.4551 54.1334 30.6788 53.1159 31.8063C52.0985 32.9337 51.2116 33.958 50.5035 34.8105C49.8092 35.6561 49.2936 36.3298 49.0117 36.7835C49.0598 36.8248 49.108 36.8729 49.1492 36.9142C49.5617 37.3198 50.0773 37.8285 50.5379 38.2891Z" fill="currentColor"/>
<path d="M57.5913 16.5789C56.6769 17.3351 55.687 18.2357 54.6489 19.2669C53.3839 20.5318 52.1671 21.8724 51.0534 23.2198C49.9397 24.5673 48.9291 25.9078 48.0767 27.1865C47.2242 28.4583 46.523 29.6546 46.028 30.7064C45.5468 31.7307 45.2649 32.6038 45.2168 33.2706C45.2649 33.3119 45.3199 33.36 45.3612 33.3944C45.8011 33.7725 46.3442 34.2606 46.8186 34.7074C46.963 34.13 47.3411 33.3325 47.9117 32.3838C48.496 31.4145 49.2729 30.287 50.1941 29.0771C51.1153 27.8671 52.1809 26.5678 53.3289 25.2547C54.477 23.9417 55.7145 22.6217 56.9863 21.3568C58.0244 20.3187 59.0006 19.4044 59.8943 18.6276C60.788 17.8507 61.5992 17.2045 62.3004 16.7095C63.0016 16.2145 63.5929 15.8708 64.0603 15.6852C64.5209 15.4995 64.8509 15.4858 65.0297 15.6439L63.5516 14.3309L63.201 14.0215C63.201 14.0215 63.1598 13.9871 63.1391 13.9734C62.8848 13.7946 62.4998 13.7671 62.0117 13.8909C61.4823 14.0215 60.8361 14.3171 60.0868 14.7708C59.3374 15.2245 58.4918 15.8364 57.5775 16.5926L57.5913 16.5789Z" fill="currentColor"/>
<path d="M46.3442 34.2879C46.3442 34.2879 46.3649 34.2948 46.3717 34.3017C46.3649 34.3017 46.3511 34.2948 46.3442 34.2879Z" fill="currentColor"/>
<path d="M41.8898 30.4517C42.2336 30.7336 42.5979 31.0292 42.9348 31.311C42.8454 30.5273 42.9967 29.5511 43.3473 28.4443C43.7185 27.2893 44.3029 25.9969 45.0591 24.6426C45.8153 23.2883 46.7503 21.8789 47.809 20.4903C48.8677 19.1016 50.057 17.7335 51.3219 16.4686C52.3463 15.4443 53.35 14.5712 54.2987 13.8493C55.2474 13.1275 56.1411 12.5637 56.9523 12.165C57.7635 11.7663 58.4922 11.5325 59.111 11.4707C59.7022 11.4157 60.1903 11.5188 60.5547 11.7869C60.5684 11.8007 60.589 11.8144 60.6028 11.8213L60.479 11.7181L58.8429 10.4189L58.7054 10.3088C58.7054 10.3088 58.6435 10.2676 58.616 10.247C58.1829 9.9445 57.6329 9.80701 56.9936 9.82076C56.313 9.83451 55.5293 10.027 54.6768 10.3913C53.8243 10.7557 52.8962 11.2919 51.9269 11.9863C50.9576 12.6806 49.9539 13.5468 48.9295 14.5574C47.6646 15.8223 46.4959 17.2042 45.4784 18.6204C44.461 20.0366 43.581 21.494 42.8936 22.9033C42.2061 24.3126 41.6974 25.6669 41.4224 26.8975C41.1611 28.0593 41.1061 29.0974 41.278 29.9499C41.3193 29.9842 41.3674 30.0186 41.4017 30.053C41.5324 30.1561 41.6699 30.273 41.8142 30.3898L41.938 30.4929C41.938 30.4929 41.9036 30.4654 41.8898 30.4586V30.4517Z" fill="currentColor"/>
<path d="M49.1771 6.65863C48.249 6.96111 47.2728 7.43546 46.2897 8.07481C45.3066 8.71416 44.3098 9.52539 43.3267 10.4947C42.0618 11.7528 40.9412 13.1758 40.0131 14.6539C39.085 16.1388 38.3357 17.6856 37.8064 19.2049C37.277 20.7243 36.9676 22.223 36.8989 23.6048C36.8439 24.8422 36.9814 25.9834 37.3458 26.9665C37.6414 27.1796 37.9301 27.3858 38.1776 27.5783C38.4182 27.7571 38.6863 27.9565 38.9544 28.1627C38.6588 27.2209 38.5969 26.114 38.7344 24.8903C38.8857 23.5704 39.2775 22.1267 39.8688 20.6487C40.46 19.1706 41.2643 17.6581 42.2268 16.2007C43.1961 14.7433 44.3304 13.3408 45.5954 12.0759C46.5922 11.0859 47.5959 10.2541 48.579 9.58725C49.5621 8.92728 50.5177 8.42545 51.4183 8.10234C52.3188 7.77923 53.1713 7.62796 53.9344 7.64858C54.6975 7.67608 55.3781 7.87546 55.9418 8.26044L54.4362 7.22236L53.9894 6.91299C53.9344 6.87861 53.8725 6.84426 53.8175 6.80989C53.2194 6.47991 52.5388 6.29429 51.7964 6.25304C50.9783 6.21179 50.0914 6.34241 49.1634 6.63802L49.1771 6.65863Z" fill="currentColor"/>
<path d="M34.4582 22.0374C34.4101 20.5868 34.6163 19.0194 35.0563 17.4451C35.4963 15.8708 36.17 14.2759 37.0568 12.7634C37.9368 11.251 39.023 9.8142 40.2948 8.55613C41.2435 7.60743 42.2335 6.83057 43.2166 6.21872C44.2065 5.60687 45.1965 5.16005 46.1589 4.87819C47.1214 4.6032 48.0564 4.49318 48.9294 4.55506C49.7957 4.61693 50.6069 4.84379 51.3356 5.24253C51.3356 5.24253 51.3493 5.24253 51.3562 5.24941L51.315 5.22876L49.6238 4.25257L49.5069 4.18384C49.5069 4.18384 49.4725 4.17007 49.4588 4.16319C48.6888 3.77821 47.8432 3.55136 46.9495 3.48949C46.0352 3.42074 45.0796 3.52385 44.0965 3.78509C43.1203 4.05321 42.1235 4.47944 41.1335 5.07754C40.1505 5.67564 39.1743 6.43873 38.2393 7.35994C36.9743 8.61801 35.9019 10.0617 35.0563 11.5947C34.2107 13.1278 33.5782 14.7433 33.2001 16.3589C32.8152 17.9676 32.6777 19.5694 32.8083 21.0681C32.9114 22.3193 33.207 23.4949 33.702 24.5467C34.197 24.856 34.6988 25.186 35.1801 25.5023C35.1801 25.5023 35.1938 25.5091 35.2007 25.5091C34.7538 24.4779 34.5132 23.3024 34.472 22.0443L34.4582 22.0374Z" fill="currentColor"/>
<path d="M30.9452 22.9102C31.1995 23.0477 31.447 23.1852 31.6807 23.3227C31.1583 22.2777 30.8077 21.1297 30.6289 19.9197C30.4021 18.3661 30.4502 16.7161 30.7527 15.0662C31.0551 13.4163 31.6257 11.7663 32.4301 10.2126C33.2344 8.65895 34.2794 7.20842 35.5443 5.95035C36.4518 5.04977 37.4074 4.31415 38.3836 3.73668C39.3598 3.1592 40.3635 2.74672 41.3603 2.49236C42.3571 2.23799 43.3402 2.14177 44.2958 2.21051C45.2308 2.27926 46.1245 2.49923 46.9632 2.87734C46.9769 2.88421 46.9976 2.89111 47.0113 2.89798L46.9426 2.87046L45.602 2.26548L45.2376 2.11426C45.1345 2.07301 45.0314 2.03177 44.9283 1.9974C44.1377 1.70866 43.299 1.53679 42.4465 1.4818C41.4772 1.4268 40.4804 1.52303 39.4904 1.77052C38.4936 2.02489 37.5036 2.43047 36.5343 2.9942C35.5649 3.55792 34.63 4.27289 33.75 5.14598C32.4851 6.40405 31.4539 7.86151 30.6839 9.42895C29.9071 10.9964 29.3846 12.66 29.1302 14.3374C28.8759 16.008 28.8896 17.6855 29.1852 19.2666C29.4052 20.4353 29.7765 21.549 30.3127 22.5665C30.4708 22.649 30.6289 22.7384 30.787 22.8277C30.8008 22.8346 30.8214 22.8415 30.8352 22.8483L30.952 22.9171L30.9452 22.9102Z" fill="currentColor"/>
<path d="M27.3222 21.0952C27.6315 21.2327 27.9684 21.384 28.2709 21.5352L28.3396 21.5627C28.3396 21.5627 28.3052 21.549 28.2915 21.5421C28.3602 21.5765 28.4221 21.604 28.484 21.6315C23.5961 12.5156 31.1995 -1.74936 42.4396 1.08989C41.9171 0.93177 41.2366 0.75302 40.6728 0.608651C40.611 0.594902 40.5491 0.574273 40.4872 0.560523C40.4391 0.546774 40.3841 0.533033 40.3291 0.526158C40.061 0.47116 39.7447 0.416148 39.4973 0.381774C30.0239 -0.848796 21.9187 11.0926 27.3222 21.0952Z" fill="currentColor"/>
<path d="M26.8477 3.51697C25.5828 4.76817 24.6203 6.23936 23.9604 7.82742C23.3004 9.41547 22.936 11.1135 22.881 12.8322C22.826 14.544 23.0735 16.2764 23.6304 17.9126C23.871 18.6276 24.1803 19.3288 24.5378 20.0025C24.6685 20.0506 24.7991 20.0919 24.9228 20.14C25.1566 20.2294 25.4247 20.3325 25.6997 20.4356C21.2105 11.9866 26.229 -0.360343 37.2491 0.0521392C37.256 0.0521392 37.2629 0.0521392 37.2698 0.0521392H37.1942L36.6304 0.0108927H36.6098C36.6098 0.0108927 36.6029 0.0108927 36.5961 0.0108927C36.0048 -0.00973142 35.228 0.00401798 34.6436 0.0108927C33.9424 0.0452662 33.2481 0.148388 32.5537 0.313381C31.8663 0.478374 31.1857 0.705239 30.5257 1.00085C29.8657 1.29646 29.2264 1.64707 28.6077 2.0733C27.9958 2.49266 27.4046 2.98076 26.8477 3.53073V3.51697Z" fill="currentColor"/>
<path d="M20.8185 13.3475C20.8254 15.0456 21.1485 16.7505 21.7878 18.366C21.9185 18.6891 22.0628 19.0054 22.2141 19.3216C22.5303 19.4041 22.8603 19.4866 23.1903 19.5828C19.4573 12.3438 22.4409 3.57169 30.3812 0.746185C30.395 0.746185 30.4018 0.739297 30.4156 0.732422C30.4018 0.732422 30.3812 0.746191 30.3675 0.753066C29.7144 0.979931 28.8688 1.30988 28.2432 1.578C27.8926 1.74299 27.4457 1.99736 27.0951 2.18297C27.0882 2.18297 27.0745 2.18986 27.0676 2.19674C27.0676 2.19674 27.0539 2.20362 27.047 2.2105C26.8339 2.33424 26.6208 2.47171 26.4076 2.6092C26.1945 2.75357 25.9814 2.90484 25.7683 3.06295C25.5621 3.22107 25.3558 3.38605 25.1564 3.56479C24.9571 3.73666 24.7577 3.92227 24.5721 4.11476C23.314 5.36596 22.3653 6.83029 21.7397 8.39773C21.1141 9.97203 20.8048 11.6563 20.8116 13.3544L20.8185 13.3475Z" fill="currentColor"/>
<path d="M20.4132 18.9365C20.6538 18.9777 20.8944 19.019 21.1212 19.0671C19.2101 14.7567 19.7257 9.93066 22.7712 5.86084L22.1731 6.64457C22.1387 6.69269 22.1112 6.7339 22.0837 6.77514C21.85 7.10513 21.7193 7.3045 21.5406 7.60012C21.3825 7.8751 21.1831 8.23261 20.8463 8.87196C20.8463 8.87196 20.8463 8.88569 20.8394 8.89256L20.8188 8.93381L20.6881 9.20881C20.1382 10.3981 19.7876 11.6631 19.6432 12.9487C19.4988 14.2342 19.5538 15.5473 19.8013 16.8328C19.9388 17.5478 20.1519 18.249 20.4132 18.9365Z" fill="currentColor"/>
<path d="M19.3751 18.7857C19.3751 18.7857 19.3958 18.7857 19.4095 18.7857C19.4989 18.7994 19.602 18.8132 19.6914 18.82C19.4989 18.1463 19.3614 17.4589 19.2858 16.7714C19.1895 15.8846 19.1964 14.9909 19.2995 14.1109C19.3133 14.0215 19.3201 13.9321 19.3339 13.8428L19.3064 14.049C19.2514 14.5096 19.217 14.7296 19.2033 15.0871C19.1895 15.369 19.1827 15.7402 19.1758 16.3795C19.1758 16.4964 19.1758 16.6201 19.1758 16.7576C19.1758 17.0739 19.1964 17.3764 19.2239 17.6789C19.2583 18.0638 19.3201 18.4282 19.3889 18.7857H19.3751Z" fill="currentColor"/>
<path d="M5.50164 47.6251C5.50164 47.6251 5.50164 47.6114 5.49477 47.5976C5.46727 47.522 5.43977 47.4464 5.41227 47.3708C5.41227 47.357 5.40539 47.3501 5.39852 47.3364C5.39852 47.3295 5.39852 47.3158 5.39164 47.3089C5.36415 47.2264 5.33665 47.1439 5.30915 47.0614C5.30915 47.0614 5.30915 47.0545 5.30915 47.0476C5.28165 46.972 5.26103 46.8964 5.23353 46.8208C5.23353 46.807 5.22665 46.8002 5.21978 46.7864C5.21978 46.7795 5.21978 46.7658 5.2129 46.7589C5.1854 46.6764 5.16478 46.5939 5.14416 46.5183C4.6698 46.154 4.2367 45.7621 3.84484 45.3565C3.45298 44.944 3.10237 44.5109 2.79301 44.0572C2.48365 43.6034 2.21553 43.136 1.98179 42.6479C1.78243 42.2285 1.61744 41.8022 1.48682 41.3691C1.65868 41.926 1.88555 42.5929 2.05742 43.1085C2.09866 43.2185 2.13304 43.3216 2.17429 43.4247C3.07487 45.7071 4.58731 46.9101 5.50851 47.6389L5.50164 47.6251Z" fill="currentColor"/>
<path d="M6.83545 50.6226C6.83545 50.6226 6.82857 50.6019 6.8217 50.5951C6.77357 50.4988 6.72545 50.4026 6.67733 50.3063C6.67733 50.3063 6.67733 50.2995 6.67733 50.2926C6.67733 50.2788 6.66358 50.2719 6.66358 50.2582C6.62233 50.1757 6.58108 50.0932 6.53983 50.0107C6.53983 49.997 6.52608 49.9832 6.51921 49.9695C6.51921 49.9626 6.51233 49.9488 6.50546 49.942C6.45734 49.8457 6.41609 49.7563 6.36797 49.6601C6.36797 49.6601 6.36797 49.6532 6.36797 49.6464C6.36797 49.6326 6.35422 49.6257 6.35422 49.612C6.31297 49.5295 6.2786 49.4539 6.24422 49.3714C6.24422 49.3576 6.23047 49.3439 6.2236 49.3301C4.31931 47.9895 3.77621 46.9652 3.21248 45.8859C3.21248 45.879 3.20561 45.8653 3.19873 45.8584C3.45309 46.4152 3.82433 47.144 4.09244 47.6939C4.17494 47.852 4.25743 48.0033 4.35368 48.1545C4.4293 48.2783 4.5118 48.4089 4.60117 48.5327C4.78679 48.8008 4.9999 49.062 5.22677 49.3026C5.45363 49.5501 5.708 49.7838 5.97611 50.0038C6.24422 50.2238 6.53983 50.4301 6.84919 50.6294L6.83545 50.6226Z" fill="currentColor"/>
<path d="M8.6711 53.7915C8.6436 53.7502 8.6161 53.7021 8.5886 53.6609C8.56798 53.6265 8.54735 53.599 8.52673 53.5646C8.4786 53.4821 8.42361 53.3996 8.37548 53.3171C8.35486 53.2896 8.33424 53.2552 8.32049 53.2277L8.31361 53.214C8.30674 53.2003 8.29986 53.1865 8.28611 53.1728C8.23111 53.0834 8.17612 52.994 8.12112 52.9047C8.11425 52.8909 8.1005 52.8772 8.09362 52.8634C8.09362 52.8565 8.08675 52.8428 8.07987 52.8359C8.018 52.7328 7.95613 52.6297 7.90113 52.5334C7.90113 52.5334 7.89425 52.5197 7.88738 52.5128C7.61927 52.3684 7.37178 52.2103 7.13804 52.0384C6.9043 51.8666 6.69118 51.6878 6.49182 51.4953C6.29245 51.3029 6.10683 51.1035 5.94184 50.8904C5.8181 50.7391 5.7081 50.5741 5.60498 50.416L6.51244 51.9009L6.58806 52.0247C6.58806 52.0247 6.61556 52.0728 6.63619 52.0934C6.74618 52.2653 6.86992 52.4234 7.00054 52.5815C7.15179 52.7603 7.31678 52.9253 7.49552 53.0834C7.67426 53.2415 7.87363 53.3927 8.07987 53.5302C8.28611 53.6677 8.51298 53.7983 8.75359 53.9152C8.72609 53.874 8.69859 53.8327 8.67797 53.7915H8.6711Z" fill="currentColor"/>
<path d="M10.9125 57.0848C10.9125 57.0848 10.8987 57.0642 10.8918 57.0573C10.8025 56.9336 10.7131 56.8098 10.6237 56.6861C10.6168 56.6724 10.6031 56.6586 10.5962 56.6449C10.5687 56.6105 10.5481 56.5761 10.5206 56.5417C10.4656 56.4661 10.4175 56.3905 10.3625 56.3217C10.335 56.2805 10.3075 56.2392 10.28 56.2049C10.2456 56.1567 10.2181 56.1155 10.1837 56.0674C10.1562 56.033 10.1287 55.9918 10.1081 55.9574C9.90188 55.8749 9.70939 55.7786 9.53065 55.6755C9.3519 55.5724 9.18004 55.4624 9.02879 55.3386C8.87068 55.2149 8.73318 55.0912 8.60256 54.9537C8.49257 54.8368 8.39632 54.72 8.30695 54.5962C8.28633 54.5687 8.2657 54.5412 8.25195 54.5137L8.3207 54.6099L9.52377 56.2874C9.62002 56.418 9.72314 56.5349 9.84001 56.6449C9.95688 56.7548 10.0806 56.8648 10.2181 56.9611C10.3556 57.0573 10.5069 57.1467 10.665 57.2292C10.8231 57.3117 10.995 57.3804 11.1806 57.4423C11.1187 57.3598 11.0568 57.2704 10.995 57.1879C10.9743 57.1604 10.9537 57.1261 10.9262 57.0986L10.9125 57.0848Z" fill="currentColor"/>
<path d="M13.6554 60.6393C13.6279 60.6049 13.6004 60.5705 13.5661 60.5292C13.5042 60.4536 13.4355 60.3711 13.3736 60.2886C13.3392 60.2474 13.3117 60.213 13.2773 60.1718C13.2361 60.1237 13.2017 60.0755 13.1605 60.0274C13.1261 59.9862 13.0986 59.9449 13.0642 59.9037C13.0024 59.828 12.9405 59.7524 12.8786 59.6699C12.8511 59.6355 12.8236 59.5943 12.7961 59.5599C12.7824 59.5462 12.7755 59.5324 12.7617 59.5187C12.6036 59.4843 12.4592 59.4431 12.3218 59.3881C12.1843 59.3331 12.0605 59.2781 11.9436 59.2093C11.8268 59.1406 11.7237 59.0649 11.6274 58.9824C11.5793 58.9412 11.5312 58.8999 11.4899 58.8518C11.4487 58.8106 11.4074 58.7625 11.373 58.7144L11.8749 59.3399L12.7755 60.4605L12.7892 60.4743C13.1398 60.873 13.4561 60.9349 13.9854 61.038C13.8823 60.9074 13.7723 60.7836 13.6692 60.653C13.6623 60.6393 13.6486 60.6255 13.6417 60.6186L13.6554 60.6393Z" fill="currentColor"/>
<path d="M17.072 64.5988C16.9964 64.5163 16.9208 64.4337 16.8451 64.3512C16.8108 64.31 16.7764 64.2756 16.742 64.2344C16.7008 64.1863 16.6595 64.1382 16.6114 64.09C16.5702 64.0488 16.5358 64.0075 16.4945 63.9663C16.4258 63.8906 16.3639 63.8151 16.2952 63.7394C16.2608 63.7051 16.2264 63.6638 16.1921 63.6294C16.1783 63.6157 16.1646 63.6019 16.1508 63.5813C16.0408 63.4507 15.9239 63.3269 15.8139 63.1963C15.6971 63.2032 15.594 63.2032 15.4977 63.1963C15.4015 63.1894 15.3121 63.1757 15.2365 63.1482C15.1608 63.1276 15.0852 63.0932 15.0234 63.0588C14.9752 63.0313 14.934 62.997 14.8996 62.9626C14.8859 62.9488 14.8721 62.9351 14.8652 62.9282L16.0477 64.255L16.4189 64.6606C16.4533 64.695 16.4877 64.7225 16.5358 64.7431C16.5839 64.7637 16.6389 64.7775 16.7008 64.7844C16.7627 64.7912 16.8383 64.7844 16.9139 64.7844C16.9895 64.7844 17.0789 64.7569 17.182 64.7363C17.1683 64.7225 17.1614 64.7156 17.1476 64.7019C17.1201 64.6675 17.0858 64.64 17.0583 64.6057L17.072 64.5988Z" fill="currentColor"/>
<path d="M20.42 68.1112C20.3788 68.0699 20.3375 68.0287 20.2894 67.9805C20.2206 67.9118 20.1519 67.843 20.0831 67.7674C20.0419 67.7262 20.0075 67.6918 19.9663 67.6506C19.9525 67.6368 19.9319 67.6162 19.9181 67.6024C19.7944 67.4787 19.6707 67.355 19.5469 67.2243C19.54 67.2175 19.5332 67.2106 19.5263 67.1968C19.4988 67.1693 19.4713 67.1418 19.4438 67.1143C19.3544 67.0249 19.2651 66.9356 19.1826 66.8394C19.1069 66.8875 19.0451 66.9287 18.9832 66.9562C18.9282 66.9906 18.8732 67.0112 18.8319 67.0318C18.7907 67.0456 18.7563 67.0593 18.7288 67.0593C18.7082 67.0593 18.6945 67.0593 18.6876 67.0593C18.6876 67.0593 18.6738 67.0593 18.6738 67.0525L19.4782 67.8774L20.3375 68.7367C20.3375 68.7367 20.3375 68.723 20.3513 68.7093C20.365 68.6955 20.3856 68.668 20.4063 68.6336C20.4338 68.5993 20.4681 68.558 20.5094 68.5168C20.5506 68.4687 20.5987 68.4136 20.6606 68.3518C20.6262 68.3174 20.5919 68.283 20.5575 68.2487C20.5094 68.2005 20.4612 68.1524 20.42 68.1112Z" fill="currentColor"/>
<path d="M24.3935 72.5526C24.366 72.4976 24.3454 72.4357 24.3316 72.367C24.3179 72.2982 24.311 72.2226 24.3179 72.1332C24.3247 72.0439 24.3316 71.9545 24.3522 71.8514C24.2835 71.7895 24.2079 71.7207 24.1391 71.6589C24.0979 71.6245 24.0566 71.5833 24.0154 71.5489C23.9947 71.5351 23.981 71.5145 23.9604 71.5008C23.8298 71.3839 23.6991 71.2601 23.5685 71.1433C23.5685 71.1433 23.5548 71.1295 23.5479 71.1227C23.5204 71.102 23.4998 71.0745 23.4723 71.0539C23.376 70.9645 23.2729 70.8752 23.1767 70.7789C23.1423 70.7514 23.1148 70.7171 23.0804 70.6896C23.0323 70.6414 22.9842 70.6002 22.936 70.5521C22.8879 70.5039 22.8398 70.4627 22.7917 70.4146C22.7573 70.5039 22.7298 70.5796 22.7092 70.6483C22.6886 70.7171 22.6748 70.7789 22.6748 70.8339C22.6748 70.8889 22.6748 70.937 22.6817 70.9714C22.6886 71.0058 22.7092 71.0333 22.7298 71.0608L22.8398 71.1639L23.0942 71.4045L23.9741 72.2089L24.4897 72.6764C24.4897 72.6764 24.4622 72.6489 24.4485 72.6351C24.4279 72.6076 24.4072 72.5801 24.3866 72.5457L24.3935 72.5526Z" fill="currentColor"/>
<path d="M28.6215 76.1824C28.5458 76.093 28.484 75.9968 28.429 75.8868C28.374 75.7768 28.319 75.6599 28.2777 75.5362C28.2365 75.4124 28.2021 75.2749 28.1746 75.1237C28.0371 75.0137 27.9065 74.9037 27.769 74.7937C27.769 74.7937 27.7552 74.7868 27.7552 74.78C27.7346 74.7593 27.714 74.7456 27.6865 74.7249C27.5765 74.6356 27.4734 74.5462 27.3634 74.4637C27.329 74.4362 27.3015 74.4087 27.2671 74.3812C27.219 74.34 27.1709 74.2987 27.1228 74.2575C27.0678 74.2162 27.0196 74.1681 26.9647 74.1268C26.8959 74.0718 26.834 74.0169 26.7653 73.9619C26.7172 73.9275 26.6759 73.8862 26.6347 73.8518C26.614 73.8312 26.5865 73.8106 26.5659 73.7969C26.5659 73.9275 26.5865 74.0443 26.6072 74.1543C26.6278 74.2643 26.6622 74.3606 26.6965 74.4568C26.7309 74.5462 26.779 74.6287 26.8272 74.7043C26.8753 74.7731 26.9303 74.828 26.9853 74.883C26.9853 74.883 26.999 74.8968 27.0059 74.8968L27.2121 75.0618L27.5971 75.3849L28.8552 76.423C28.8002 76.3818 28.7521 76.3336 28.7108 76.2855C28.6764 76.2511 28.649 76.2167 28.6215 76.1824Z" fill="currentColor"/>
<path d="M33.2964 79.8061C33.2964 79.8061 33.3514 79.8473 33.3789 79.8679C33.3996 79.8817 33.4133 79.8954 33.4339 79.9092L33.2002 79.7373C33.2002 79.7373 33.2621 79.7855 33.2964 79.8061Z" fill="currentColor"/>
<path d="M32.6227 79.1385C32.5058 78.9873 32.3958 78.8154 32.2927 78.6367C32.1896 78.4579 32.1002 78.2654 32.0246 78.0592C31.9902 78.0317 31.949 78.0042 31.9146 77.9836C31.8458 77.9355 31.7771 77.8874 31.7083 77.8392C31.6808 77.8186 31.6533 77.8049 31.6327 77.7842C31.5983 77.7567 31.564 77.7361 31.5296 77.7086C31.4609 77.6605 31.3921 77.6124 31.3234 77.5574C31.2959 77.5367 31.2684 77.5161 31.234 77.4955C31.1996 77.4749 31.1721 77.4474 31.1377 77.4267C31.069 77.3786 31.0002 77.3236 30.9315 77.2755C30.8971 77.2549 30.8696 77.2274 30.8353 77.2067C30.8078 77.1861 30.7803 77.1655 30.7459 77.1449C30.6771 77.0899 30.6084 77.0417 30.5396 76.9867C30.5053 76.9592 30.4709 76.9318 30.4365 76.9111C30.4915 77.0899 30.5534 77.2549 30.629 77.4061C30.6978 77.5574 30.7803 77.7017 30.8696 77.8392C30.959 77.9699 31.0552 78.0936 31.1584 78.2036C31.2615 78.3136 31.3784 78.4167 31.4952 78.4992L33.2002 79.7435C33.1314 79.6885 33.0627 79.6266 33.0008 79.5716C32.8633 79.441 32.7395 79.3035 32.6158 79.1523L32.6227 79.1385Z" fill="currentColor"/>
<path d="M37.256 82.4182C37.036 82.2532 36.8228 82.0676 36.6235 81.8614C36.4241 81.6551 36.2385 81.4351 36.0598 81.1945C35.8879 80.9539 35.7229 80.6927 35.5717 80.4108C35.5373 80.3902 35.5029 80.3696 35.4685 80.3489C35.4067 80.3077 35.3448 80.2733 35.2829 80.2321C35.2623 80.2183 35.2417 80.2046 35.221 80.1977C35.1867 80.1771 35.1523 80.1565 35.1179 80.1358C35.0561 80.0946 34.9942 80.0602 34.9254 80.019C34.9048 80.0052 34.8773 79.9915 34.8567 79.9777C34.8223 79.9571 34.7948 79.9365 34.7604 79.9158C34.6986 79.8746 34.6367 79.8333 34.5679 79.7921C34.5404 79.7783 34.5129 79.7577 34.4923 79.744C34.4648 79.7233 34.4373 79.7028 34.403 79.689C34.3411 79.6478 34.2723 79.6065 34.2105 79.5652C34.183 79.5446 34.1555 79.5309 34.1211 79.5103C34.238 79.7577 34.3686 79.9915 34.513 80.2046C34.6573 80.4177 34.8086 80.6171 34.9736 80.8027C35.1385 80.9883 35.3104 81.1533 35.496 81.3045C35.5373 81.3389 35.5854 81.3733 35.6267 81.4077C35.771 81.5177 35.9223 81.6208 36.0735 81.7101L37.3866 82.5282C37.3866 82.5282 37.3728 82.5214 37.3728 82.5145C37.3316 82.487 37.2835 82.4526 37.2422 82.4182H37.256Z" fill="currentColor"/>
<path d="M40.3222 83.9582C40.0335 83.7039 39.7585 83.4289 39.4972 83.1264C39.236 82.8239 38.9885 82.5008 38.7616 82.1502C38.7273 82.1364 38.6929 82.1158 38.6585 82.102C38.6035 82.0745 38.5485 82.0471 38.4935 82.0196C38.4798 82.0127 38.466 82.0058 38.4454 81.999C38.411 81.9852 38.3835 81.9646 38.3492 81.9508C38.2942 81.9233 38.2392 81.8958 38.1842 81.8683C38.1635 81.8615 38.1498 81.8477 38.1292 81.8408C38.1017 81.8271 38.0673 81.8065 38.0398 81.7927C37.9848 81.7652 37.9298 81.7377 37.8679 81.7033C37.8473 81.6896 37.8267 81.6827 37.8061 81.6689C37.7786 81.6552 37.7511 81.6415 37.7167 81.6209C37.6617 81.5934 37.5998 81.559 37.5448 81.5315C37.5242 81.5177 37.4967 81.5039 37.4761 81.4971C37.6686 81.8202 37.8817 82.1158 38.1017 82.3977C38.3285 82.6726 38.5623 82.927 38.8166 83.1608C39.0641 83.3945 39.3322 83.6007 39.6072 83.7932C39.7241 83.8689 39.841 83.9445 39.9578 84.0201C40.1228 84.1164 40.2878 84.2126 40.4597 84.2951L40.6041 84.3707L41.6284 84.8863C41.4909 84.8107 41.3534 84.7282 41.2228 84.6457C40.9065 84.4463 40.6041 84.2195 40.3153 83.9651L40.3222 83.9582Z" fill="currentColor"/>
<path d="M41.8758 85.0026C41.979 85.0576 42.0821 85.1057 42.1852 85.1539C42.1921 85.1539 42.1989 85.1608 42.2127 85.1676L41.6421 84.8789C41.7177 84.9202 41.8002 84.9683 41.8827 85.0095L41.8758 85.0026Z" fill="currentColor"/>
<path d="M46.6261 86.9275C46.4336 86.8588 46.2205 86.7831 45.9937 86.7075C46.1999 86.79 46.413 86.8588 46.6261 86.9275Z" fill="currentColor"/>
<path d="M43.8626 85.5664C43.4295 85.264 43.0239 84.9202 42.6321 84.5352C42.2402 84.1503 41.8759 83.7309 41.5321 83.2703C41.5046 83.2634 41.4702 83.2497 41.4427 83.2428C41.3946 83.229 41.3465 83.2084 41.2984 83.1947C41.2846 83.1947 41.2778 83.1947 41.264 83.1809C41.2365 83.174 41.2021 83.1603 41.1746 83.1534C41.1265 83.1397 41.0784 83.119 41.0303 83.1053C41.0165 83.1053 41.0028 83.0984 40.989 83.0915C40.9615 83.0847 40.934 83.0709 40.9065 83.0572C40.8584 83.0365 40.8103 83.0228 40.7622 83.0022C40.7484 83.0022 40.7347 82.9884 40.714 82.9884C40.6865 82.9816 40.659 82.9678 40.6315 82.9541C40.5834 82.9334 40.5353 82.9197 40.4803 82.8991C40.4597 82.8991 40.4459 82.8853 40.4253 82.8784C40.7072 83.2772 41.0096 83.6484 41.3328 83.9853C41.6559 84.3221 41.9927 84.6315 42.3433 84.9133C42.6939 85.1952 43.0652 85.4427 43.4502 85.6558C43.7801 85.8414 44.117 86.0064 44.4676 86.1508C44.5226 86.1714 44.5776 86.1989 44.6326 86.2196C44.8182 86.2883 45.0245 86.3639 45.2376 86.4464C45.4851 86.5358 45.7463 86.6251 45.9938 86.7145C45.7257 86.6114 45.4576 86.4945 45.2032 86.3708C44.7426 86.1439 44.2957 85.8758 43.8626 85.5733V85.5664Z" fill="currentColor"/>
<path d="M47.4857 86.7352C46.812 86.3846 46.1589 85.9583 45.5471 85.4634C44.9352 84.9684 44.3509 84.3978 43.8215 83.7653C43.794 83.7653 43.7734 83.7653 43.7459 83.7585C43.7047 83.7585 43.6634 83.7516 43.6222 83.7447C43.6222 83.7447 43.6084 83.7447 43.6015 83.7447C43.574 83.7447 43.5534 83.7447 43.5259 83.7378C43.4847 83.7378 43.4434 83.731 43.4022 83.7241C43.3953 83.7241 43.3884 83.7241 43.3747 83.7241C43.3472 83.7241 43.3265 83.7172 43.299 83.7103C43.2578 83.7103 43.2165 83.6966 43.1753 83.6897C43.1616 83.6897 43.1547 83.6897 43.1409 83.6897C43.1203 83.6897 43.0928 83.6828 43.0722 83.676C43.0309 83.6691 42.9897 83.6622 42.9484 83.6553C42.9347 83.6553 42.9209 83.6553 42.9141 83.6484C43.354 84.1984 43.8215 84.6865 44.3234 85.1334C44.8252 85.5734 45.3477 85.9584 45.8977 86.2952C46.4477 86.6321 47.0114 86.907 47.5957 87.1339C48.1801 87.3608 48.7782 87.5327 49.39 87.6564C49.7956 87.732 50.2906 87.8008 50.765 87.8695C50.3594 87.8008 49.9606 87.7045 49.5619 87.5945C48.8469 87.3883 48.1457 87.1064 47.472 86.7558L47.4857 86.7352Z" fill="currentColor"/>
<path d="M50.7715 87.8491C50.9915 87.8904 51.2115 87.9178 51.4383 87.9453C51.5414 87.9591 51.6446 87.966 51.7546 87.9797C51.7339 87.9797 51.7133 87.9797 51.6858 87.9729C51.404 87.9385 51.0946 87.8972 50.7715 87.856V87.8491Z" fill="currentColor"/>
<path d="M58.437 87.3472C58.1551 87.4297 57.8664 87.5053 57.5776 87.5672C57.8045 87.5122 58.0864 87.4365 58.437 87.3472Z" fill="currentColor"/>
<path d="M51.7137 87.3879C50.5862 87.0785 49.4931 86.6111 48.4551 85.9855C47.4239 85.3599 46.4476 84.5693 45.5746 83.6274C45.5539 83.6274 45.5402 83.6343 45.5196 83.6412C45.4921 83.6481 45.4577 83.6618 45.4233 83.6687C45.4233 83.6687 45.4164 83.6687 45.4096 83.6687C45.3889 83.6687 45.3683 83.6756 45.3546 83.6825C45.3271 83.6893 45.2927 83.6962 45.2652 83.7031C45.2652 83.7031 45.2583 83.7031 45.2514 83.7031C45.2308 83.7031 45.2102 83.7031 45.1965 83.7168C45.169 83.7168 45.1346 83.7305 45.1002 83.7305C45.1002 83.7305 45.0865 83.7305 45.0796 83.7305C45.059 83.7305 45.0383 83.7305 45.0246 83.7374C44.9902 83.7374 44.9627 83.7443 44.9283 83.7512C44.9215 83.7512 44.9146 83.7512 44.9077 83.7512C45.6158 84.5486 46.3926 85.2361 47.2176 85.8067C48.0426 86.3773 48.9157 86.8448 49.8231 87.1885C50.7306 87.5323 51.6587 87.7729 52.6005 87.8966C53.5423 88.0203 54.4979 88.0341 55.4398 87.931L55.7354 87.8966C56.3335 87.821 56.6016 87.7798 57.0484 87.6766C57.1997 87.6423 57.3647 87.601 57.5709 87.5529C56.7734 87.7247 55.9554 87.8141 55.1373 87.821C53.9892 87.8347 52.8342 87.6835 51.7068 87.3742L51.7137 87.3879Z" fill="currentColor"/>
<path d="M58.437 87.3468C58.437 87.3468 58.4439 87.3468 58.4508 87.3468L58.5401 87.3193C58.5401 87.3193 58.5126 87.3262 58.5058 87.3331C58.4851 87.34 58.4576 87.3468 58.437 87.3537V87.3468Z" fill="currentColor"/>
<path d="M46.7704 82.8442C46.7704 82.8442 46.7567 82.8648 46.7429 82.8786C46.7429 82.8855 46.7292 82.8924 46.7154 82.9061C46.7086 82.9199 46.6948 82.9336 46.6811 82.9473C46.6811 82.9473 46.6742 82.9611 46.6673 82.968C46.6673 82.968 46.6673 82.968 46.6604 82.9748C46.6398 83.0023 46.6123 83.0229 46.5917 83.0436C46.5711 83.0642 46.5573 83.0779 46.5367 83.0986C46.5229 83.1123 46.5092 83.1192 46.4954 83.1329C46.4954 83.1329 46.4886 83.1398 46.4817 83.1467C46.4817 83.1467 46.4817 83.1467 46.4748 83.1536C46.4542 83.1673 46.4336 83.188 46.4129 83.2017C46.4061 83.2086 46.3923 83.2154 46.3854 83.2223C46.3854 83.2223 46.3717 83.2292 46.3717 83.2361C46.3717 83.2429 46.3579 83.243 46.3511 83.2498C49.2041 86.151 55.9619 89.7876 63.2216 85.0235C63.2216 85.0235 63.2216 85.0235 63.2285 85.0235C63.5791 84.7691 63.7647 84.6316 64.0122 84.4254C64.2597 84.2123 64.5759 83.9235 65.1877 83.3529C65.3596 83.1811 65.5452 82.968 65.7308 82.7617C65.724 82.7686 65.7102 82.7823 65.7033 82.7892C61.3104 87.4571 53.2601 88.7496 46.7636 82.858L46.7704 82.8442Z" fill="currentColor"/>
<path d="M66.2191 82.1978C66.0609 82.3834 65.9028 82.569 65.731 82.7477C65.9028 82.5552 66.0678 82.3627 66.2191 82.1978Z" fill="currentColor"/>
<path d="M68.5564 77.8115C68.2746 78.3821 67.9377 78.939 67.5527 79.4752C67.1677 80.0114 66.7346 80.5202 66.2534 81.0083C65.0022 82.2663 63.531 83.2219 61.943 83.875C60.3549 84.5281 58.6569 84.8718 56.9451 84.9062C55.2333 84.9406 53.5077 84.6725 51.8715 84.0881C50.2354 83.5038 48.6885 82.617 47.3274 81.407C47.3274 81.4139 47.3274 81.4207 47.3274 81.4276C47.3274 81.4757 47.3136 81.5239 47.3067 81.572C47.3067 81.572 47.3067 81.5789 47.3067 81.5857C47.2999 81.6407 47.2861 81.6889 47.2792 81.7439V81.7576C47.2792 81.7645 47.2792 81.7782 47.2724 81.7851C47.2655 81.8195 47.2517 81.8607 47.2449 81.8951C47.2449 81.902 47.2449 81.9157 47.2449 81.9226V81.9363C47.2311 81.9845 47.2174 82.0326 47.2036 82.0738C48.5511 83.3182 50.091 84.2531 51.7134 84.8719C53.3427 85.4906 55.0614 85.7931 56.7663 85.7862C58.4712 85.7793 60.1624 85.4562 61.7436 84.8237C63.3248 84.1913 64.7891 83.2425 66.0472 81.9845C66.3771 81.6545 66.6865 81.3107 66.9684 80.9533C67.2502 80.5958 67.5115 80.2314 67.7521 79.8533C67.9927 79.4752 68.2058 79.0902 68.3983 78.6915C68.5289 78.4165 68.6527 78.1415 68.7627 77.8597C68.8108 77.7359 68.8589 77.6053 68.907 77.4816C68.9208 77.4334 68.9414 77.3784 68.9552 77.3303C69.0926 76.9109 69.237 76.4022 69.3539 75.9966C69.3539 75.9897 69.3539 75.9829 69.3608 75.976C69.3608 75.9622 69.3608 75.9485 69.3676 75.9347C69.4226 75.6873 69.4845 75.4054 69.5395 75.1235C69.4708 75.4329 69.3883 75.7354 69.292 76.0378C69.1064 76.6359 68.8727 77.2272 68.5839 77.7978L68.5564 77.8115Z" fill="currentColor"/>
<path d="M69.5054 75.1374C69.5604 74.8831 69.6085 74.6219 69.6497 74.3675C69.6566 74.3194 69.6635 74.2713 69.6704 74.2231C69.6704 74.2369 69.6704 74.2575 69.6635 74.2713C69.6154 74.5325 69.5604 74.835 69.5054 75.1374Z" fill="currentColor"/>
<path d="M69.5739 68.3111C69.5464 68.1254 69.5189 67.9467 69.4983 67.7817C69.5189 67.9055 69.5327 68.0223 69.5464 68.1461C70.9557 79.3518 56.9795 86.4534 47.1968 79.3175C47.1968 79.3175 47.1968 79.3312 47.1968 79.3381C47.2105 79.4137 47.2243 79.4893 47.238 79.5649C47.238 79.5649 47.238 79.5649 47.238 79.5718C47.238 79.5787 47.238 79.5925 47.238 79.5993C47.2518 79.6612 47.2586 79.7231 47.2655 79.7849C47.2655 79.7918 47.2655 79.8056 47.2655 79.8125C47.2655 79.8262 47.2655 79.8331 47.2655 79.8468C47.2724 79.9018 47.2793 79.9568 47.2862 80.0049C47.2862 80.0187 47.2862 80.0324 47.2862 80.0462C47.2862 80.0462 47.2862 80.0531 47.2862 80.0599C47.293 80.1287 47.2999 80.1974 47.3068 80.2662C47.3068 80.2662 47.3068 80.2662 47.3068 80.2731C55.5564 86.969 70.1445 82.1499 69.7802 70.1879L69.7664 70.016C69.7183 69.5073 69.6289 68.8817 69.5464 68.3111H69.5739Z" fill="currentColor"/>
<path d="M68.6939 64.6194C68.6526 64.4819 68.5976 64.3375 68.5495 64.1863C68.4051 63.7738 68.2401 63.327 68.0958 62.9282C68.3639 63.7188 68.522 64.5437 68.5564 65.3825C68.6045 66.3518 68.4945 67.3418 68.2401 68.3248C67.9858 69.3148 67.5802 70.2979 67.0165 71.2466C66.4596 72.2022 65.7446 73.1234 64.8853 73.9896C63.6272 75.2545 62.1629 76.272 60.5955 77.042C59.0281 77.805 57.3506 78.3138 55.6732 78.5544C53.9958 78.7881 52.3115 78.7606 50.7234 78.4375C49.1354 78.1213 47.6436 77.5163 46.3442 76.6157C46.3442 76.6157 46.3442 76.6295 46.3511 76.6364C46.3855 76.7257 46.4199 76.8151 46.4542 76.9045C46.4542 76.9045 46.4542 76.9182 46.4611 76.9251C46.4611 76.9388 46.468 76.9526 46.4749 76.9595C46.5024 77.0351 46.5299 77.1107 46.5574 77.1863C46.5574 77.2001 46.5642 77.207 46.5711 77.2207V77.2345C46.6055 77.3238 46.633 77.4063 46.6605 77.4888C46.6605 77.4888 46.6605 77.5026 46.6673 77.5094C46.6673 77.5232 46.6742 77.53 46.6811 77.5438C46.7086 77.6194 46.7292 77.6882 46.7567 77.7638C46.7567 77.7775 46.7636 77.7844 46.7705 77.7982C48.0973 78.7744 49.6166 79.4481 51.2253 79.8331C52.834 80.2181 54.5389 80.3074 56.2369 80.1218C57.935 79.9362 59.6193 79.4687 61.2005 78.7331C62.7816 77.9976 64.246 76.9938 65.504 75.7289C66.3221 74.9108 66.9958 74.0377 67.5321 73.1234C68.0683 72.2159 68.4739 71.2672 68.7351 70.3185C68.9964 69.3629 69.127 68.4005 69.1201 67.4517C69.1132 66.5649 68.9895 65.6918 68.742 64.8462C68.7214 64.7844 68.7076 64.7225 68.687 64.6606C68.687 64.6469 68.6801 64.6331 68.6733 64.6194H68.6939Z" fill="currentColor"/>
<path d="M66.1503 58.6383C66.0678 58.4802 65.9853 58.3221 65.9097 58.1777C65.9372 58.2327 65.9578 58.2808 65.9853 58.3358C66.3153 59.0439 66.5147 59.8071 66.5903 60.6045C66.6797 61.5326 66.5903 62.5157 66.3359 63.5125C66.0816 64.5093 65.6485 65.5268 65.0504 66.5305C64.4523 67.5342 63.6823 68.5241 62.7405 69.466C61.4824 70.7309 60.0318 71.7896 58.4988 72.6284C56.9588 73.4671 55.3364 74.0789 53.714 74.4433C52.0984 74.8077 50.4829 74.9314 48.9773 74.7801C47.4718 74.6358 46.0693 74.2164 44.8594 73.5152C44.8662 73.5289 44.8731 73.5427 44.88 73.5564C44.9281 73.6458 44.9762 73.7283 45.0175 73.8177C45.0244 73.8314 45.0312 73.8452 45.0381 73.8589C45.0381 73.8589 45.0381 73.8727 45.045 73.8727C45.1 73.9689 45.1481 74.072 45.2031 74.1683C45.2031 74.1752 45.21 74.182 45.2169 74.1958C45.2237 74.2095 45.2306 74.2233 45.2375 74.237C45.2787 74.3195 45.3269 74.4089 45.3681 74.4914C45.3681 74.5051 45.3819 74.512 45.3887 74.5258C45.3887 74.5258 45.3887 74.5326 45.3956 74.5395C45.4437 74.6358 45.4919 74.732 45.54 74.8283C45.54 74.8351 45.5468 74.842 45.5537 74.8558C46.8049 75.6463 48.2486 76.1413 49.7954 76.3613C51.3422 76.5813 52.9853 76.5263 54.6352 76.2169C56.2851 75.9076 57.9282 75.337 59.4819 74.5327C61.0355 73.7283 62.4861 72.6834 63.751 71.4184C64.6654 70.5041 65.4078 69.5348 65.9922 68.5517C66.5765 67.5617 66.989 66.5511 67.2434 65.5543C67.4978 64.5506 67.5871 63.5606 67.5115 62.605C67.4496 61.787 67.2571 60.9964 66.9478 60.247C66.9134 60.1714 66.879 60.0889 66.8447 60.0133C66.824 59.972 66.8103 59.9308 66.7897 59.8895C66.6109 59.5183 66.3772 59.0646 66.1572 58.6383H66.1503Z" fill="currentColor"/>
<path d="M43.0036 70.449C43.0036 70.449 43.0242 70.4833 43.0379 70.4971C43.1136 70.6208 43.1961 70.7377 43.2717 70.8614C43.2717 70.8683 43.2786 70.8752 43.2854 70.882C43.2992 70.9095 43.3198 70.9371 43.3336 70.9577C43.3885 71.0471 43.4435 71.1296 43.4985 71.2189C43.5192 71.2533 43.5398 71.2808 43.5604 71.3151C43.5879 71.3564 43.6154 71.4045 43.6429 71.4458C43.6704 71.487 43.6979 71.5351 43.7254 71.5764C44.8597 72.1539 46.1934 72.4564 47.6371 72.4907C49.0808 72.532 50.6414 72.312 52.2088 71.8652C53.7831 71.4183 55.3711 70.7377 56.8836 69.8508C58.396 68.964 59.8259 67.8778 61.0909 66.6129C62.0602 65.6435 62.8577 64.6398 63.4764 63.6292C64.102 62.6255 64.5489 61.615 64.8239 60.6456C65.0988 59.6694 65.1951 58.7276 65.1195 57.8476C65.0438 56.9677 64.7826 56.1565 64.3495 55.4346L63.3389 53.8328L63.2908 53.7572L63.1877 53.606C63.1877 53.606 63.2221 53.6541 63.2358 53.6816C63.6345 54.3209 63.8683 55.0565 63.9301 55.854C63.9989 56.6858 63.882 57.6002 63.5933 58.5489C63.3045 59.4976 62.8371 60.4944 62.1908 61.4912C61.5515 62.4949 60.7334 63.5055 59.7503 64.4955C58.4854 65.7604 57.0623 66.8672 55.5774 67.7884C54.0856 68.7096 52.5319 69.4384 50.992 69.9471C49.4589 70.4558 47.9465 70.7446 46.5509 70.7858C45.1553 70.8271 43.8767 70.6139 42.8042 70.1258C42.8454 70.1946 42.8936 70.2564 42.9348 70.3252C42.9623 70.3664 42.9829 70.4008 43.0104 70.4421L43.0036 70.449Z" fill="currentColor"/>
<path d="M40.5355 66.936C40.5355 66.936 40.5767 66.9841 40.5905 67.0116C40.6592 67.1079 40.7348 67.2041 40.8036 67.3003C40.8242 67.3347 40.8517 67.3622 40.8723 67.3966C40.9067 67.4447 40.9411 67.4928 40.9755 67.5409C41.0098 67.5891 41.0442 67.6372 41.0786 67.6853C41.1267 67.7472 41.1679 67.8091 41.2161 67.8709C41.2504 67.9122 41.2779 67.9603 41.3123 68.0016C41.3261 68.0222 41.3398 68.0428 41.3536 68.0565C42.3366 68.414 43.526 68.4965 44.8459 68.3384C46.1659 68.1803 47.6027 67.7884 49.0738 67.1903C50.5519 66.5922 52.0575 65.7947 53.5149 64.8254C54.9723 63.8561 56.3748 62.7218 57.6397 61.4568C58.6434 60.4531 59.4821 59.4426 60.149 58.4526C60.8158 57.4626 61.3177 56.5002 61.6408 55.5996C61.9639 54.6921 62.1151 53.8466 62.0808 53.0835C62.0533 52.4029 61.8814 51.791 61.5652 51.2754C61.5239 51.2135 61.4896 51.1517 61.4483 51.0898L61.0358 50.5192L60.6646 50.0036L60.1215 49.2817C60.4858 49.763 60.6577 50.3748 60.6577 51.076C60.6577 51.7841 60.479 52.5885 60.1215 53.4547C59.7709 54.3278 59.2484 55.2627 58.5541 56.232C57.8666 57.2083 57.0072 58.212 55.9967 59.2294C54.7317 60.4944 53.343 61.6493 51.9062 62.653C50.4763 63.6567 48.9982 64.5092 47.5752 65.1692C46.1452 65.8291 44.7634 66.2966 43.5053 66.5373C42.2541 66.7779 41.1267 66.7847 40.2192 66.5304C40.3155 66.661 40.4117 66.7847 40.508 66.9154C40.508 66.9154 40.5148 66.9291 40.5217 66.936H40.5355Z" fill="currentColor"/>
<path d="M56.0994 48.3063C55.6663 49.0763 55.0682 49.9424 54.3257 50.8705C53.5833 51.7986 52.6896 52.7886 51.6584 53.8198C50.3934 55.0847 49.0391 56.2878 47.6779 57.3809C46.3167 58.474 44.9418 59.4502 43.6356 60.2683C42.3294 61.0864 41.0988 61.7394 40.0057 62.1863C38.9195 62.6332 37.9708 62.8669 37.2559 62.8463C37.2559 62.8463 37.2627 62.8531 37.2696 62.86C37.2902 62.8806 37.304 62.9013 37.3246 62.9288C37.414 63.0319 37.4965 63.135 37.5858 63.2381C37.6133 63.2656 37.634 63.3 37.6615 63.3275C37.7027 63.3756 37.744 63.4237 37.7783 63.4719C37.8196 63.52 37.8608 63.575 37.9021 63.6231C37.9571 63.685 38.0052 63.7469 38.0602 63.8156C38.0946 63.8568 38.1358 63.905 38.1702 63.9462C38.1908 63.9668 38.2046 63.9874 38.2252 64.0081C38.3283 64.1387 38.4383 64.2693 38.5414 64.3931C39.3458 64.5168 40.3632 64.3724 41.525 64.0149C42.6869 63.6575 43.9862 63.08 45.3474 62.3307C46.7086 61.5813 48.1248 60.6532 49.5134 59.6014C50.909 58.5496 52.2771 57.3671 53.542 56.1022C54.5663 55.0778 55.4463 54.0742 56.1682 53.1255C56.89 52.1767 57.4537 51.283 57.8525 50.4649C58.2512 49.6537 58.478 48.9181 58.5399 48.2925C58.5949 47.7082 58.4918 47.2201 58.2306 46.8489C58.2168 46.8282 58.1962 46.8007 58.1756 46.7801L57.9143 46.457L57.7081 46.2026L56.6975 44.9927C56.945 45.2883 57.0137 45.7352 56.9106 46.292C56.8075 46.8557 56.5325 47.5294 56.0994 48.3063Z" fill="currentColor"/>
<path d="M34.2862 59.4973C34.3412 59.5592 34.3962 59.6211 34.4512 59.6761C34.4925 59.7242 34.5337 59.7654 34.5818 59.8136C34.6025 59.8342 34.6231 59.8617 34.6437 59.8823C34.7606 60.0129 34.8775 60.1436 35.0012 60.2673C35.015 60.2811 35.0218 60.2879 35.0356 60.3017C35.1387 60.4186 35.2487 60.5354 35.3518 60.6523C35.9499 60.5354 36.7749 60.1642 37.758 59.6005C38.741 59.0367 39.8822 58.2736 41.1059 57.3593C42.3296 56.4518 43.6427 55.4 44.9626 54.2588C46.2826 53.1176 47.6094 51.887 48.8812 50.6221C49.9193 49.584 50.8336 48.6078 51.6105 47.7072C52.3873 46.8067 53.0267 45.9954 53.5148 45.2873C54.0029 44.5792 54.3397 43.9743 54.5116 43.4999C54.6835 43.0256 54.6903 42.6818 54.5253 42.4962L54.4566 42.4206L53.3016 41.1625L52.9167 40.7432C52.9167 40.7432 52.9235 40.7569 52.9304 40.7638C53.0129 40.8875 52.9373 41.1488 52.7242 41.5406C52.4973 41.9531 52.1054 42.4962 51.5761 43.1631C51.0467 43.8299 50.373 44.6068 49.5687 45.4798C49.3831 45.6792 49.1975 45.8854 48.9981 46.0917C48.3381 46.7998 47.6025 47.556 46.7982 48.3603C46.3582 48.8003 45.9113 49.2403 45.4576 49.6734C44.6189 50.4846 43.7664 51.289 42.9277 52.052C42.6459 52.3064 42.3709 52.5608 42.0959 52.8082C42.0546 52.8495 42.0065 52.8907 41.9653 52.932C41.594 53.262 41.2297 53.5851 40.8653 53.9013C40.3016 54.3963 39.7516 54.8707 39.2154 55.3106C39.0367 55.4619 38.8648 55.5994 38.6929 55.7438C38.4179 55.9706 38.1498 56.1837 37.8886 56.39C37.2355 56.9125 36.6236 57.3799 36.0737 57.7718C35.6887 58.0537 35.3381 58.2874 35.015 58.4936C34.5818 58.7686 34.2106 58.9818 33.9219 59.1055C33.9494 59.133 33.9769 59.1605 34.0044 59.1948C34.0525 59.243 34.0937 59.2911 34.1419 59.3392C34.19 59.3942 34.2381 59.4423 34.2862 59.4973Z" fill="currentColor"/>
<path d="M30.6428 55.7717C30.6428 55.7717 30.6909 55.8198 30.7184 55.8404C30.849 55.9642 30.9728 56.0879 31.1034 56.2185H31.1103C31.1859 56.301 31.2615 56.3766 31.3302 56.4523C31.3784 56.5004 31.4265 56.5485 31.4815 56.5966C31.509 56.6241 31.5296 56.6448 31.5571 56.6723C31.6052 56.7204 31.6465 56.7616 31.6946 56.8098L31.8596 56.9747C34.8295 54.163 49.6651 39.4237 50.5794 38.3306L50.545 38.2962C50.0844 37.8287 49.5688 37.32 49.1563 36.9144C49.1151 36.8731 49.067 36.825 49.0188 36.7838C48.9845 36.7494 48.9432 36.715 48.9089 36.6738L48.8607 36.6257C48.792 36.5707 48.5582 36.6807 48.1939 36.935C47.8227 37.1963 47.307 37.6156 46.6677 38.1725C46.0284 38.7293 45.2721 39.4237 44.4128 40.2349C43.5535 41.0461 42.591 41.9879 41.5529 43.026C40.288 44.2909 39.023 45.5903 37.82 46.8552C36.6169 48.1202 35.4826 49.3439 34.4651 50.4713C33.4477 51.5988 32.5608 52.6231 31.8527 53.4756C31.1446 54.328 30.629 55.0155 30.3472 55.4692C30.409 55.5242 30.464 55.5861 30.5259 55.6411C30.574 55.6823 30.6153 55.7304 30.6634 55.7717H30.6428Z" fill="currentColor"/>
<path d="M31.5364 47.7417C32.4576 46.5317 33.5232 45.2324 34.6713 43.9193C34.9325 43.6237 35.2007 43.3212 35.4688 43.0256C36.1769 42.2419 36.9193 41.4582 37.6687 40.6882C37.8887 40.4613 38.1087 40.2414 38.3286 40.0214C39.3667 38.9833 40.3429 38.0689 41.2366 37.2921C41.601 36.9759 41.9516 36.6803 42.2885 36.4122C42.7766 36.0203 43.2303 35.6697 43.6428 35.3741C43.8696 35.2091 44.0828 35.0716 44.289 34.941C44.7084 34.6729 45.0865 34.4735 45.3958 34.3498C45.7327 34.2123 46.0008 34.171 46.1933 34.2191C46.1933 34.2191 46.2002 34.2191 46.207 34.2191C46.262 34.2329 46.3033 34.2604 46.3445 34.2879C46.3514 34.2879 46.3652 34.2948 46.372 34.3016L45.2171 33.2704L44.9009 32.9885L44.5502 32.6792C44.5502 32.6792 44.509 32.6448 44.4884 32.6311C44.234 32.4523 43.849 32.4248 43.3609 32.5486C42.8316 32.6792 42.1853 32.9748 41.436 33.4285C40.6867 33.8823 39.8411 34.4941 38.9267 35.2503C38.0124 36.0066 37.0224 36.9071 35.9844 37.9383C34.7194 39.2033 33.5026 40.5438 32.3889 41.8913C31.2752 43.2387 30.2646 44.5793 29.4122 45.858C28.5597 47.1298 27.8585 48.326 27.3635 49.3778C26.8685 50.4228 26.5798 51.3234 26.5454 51.9971C26.6692 52.1071 26.7998 52.2171 26.9235 52.3271C26.9304 52.3271 26.9373 52.3408 26.9441 52.3477C26.9441 52.3477 26.951 52.3546 26.9579 52.3615C27.0885 52.4783 27.2191 52.5883 27.3429 52.7052C27.3704 52.7258 27.391 52.7464 27.4185 52.7739C27.4666 52.8152 27.5147 52.8633 27.5629 52.9046C27.6247 52.9596 27.6866 53.0145 27.7416 53.0695C27.7966 53.1177 27.8516 53.1727 27.9066 53.2208C27.9547 53.2621 28.0028 53.3101 28.051 53.3514C28.0785 53.3789 28.106 53.3995 28.1335 53.427C28.1816 53.2139 28.2778 52.9596 28.3947 52.6846C28.5941 52.2171 28.8691 51.674 29.2403 51.0621C29.2884 50.9865 29.3434 50.8971 29.3915 50.8215C29.7765 50.1959 30.2302 49.5222 30.7527 48.7935C31.0002 48.4566 31.2546 48.106 31.5227 47.7554L31.5364 47.7417Z" fill="currentColor"/>
<path d="M32.6639 35.1336C33.6882 34.1093 34.6919 33.2362 35.6406 32.5144C36.5893 31.7925 37.483 31.2288 38.2942 30.8301C39.1055 30.4314 39.8342 30.1976 40.4529 30.1357C41.0441 30.0807 41.5322 30.1838 41.8966 30.452C41.9103 30.4657 41.9309 30.4795 41.9447 30.4864L41.821 30.3832L40.1848 29.0839L40.0473 28.9739C40.0473 28.9739 39.9854 28.9327 39.9579 28.912C39.5248 28.6095 38.9748 28.4721 38.3355 28.4858C37.6549 28.4995 36.8712 28.6921 36.0187 29.0564C35.1662 29.4208 34.2382 29.957 33.2688 30.6513C32.2995 31.3457 31.2958 32.2119 30.2715 33.2225C29.0065 34.4874 27.8378 35.8692 26.8204 37.2854C25.8029 38.7016 24.9229 40.1591 24.2355 41.5684C23.548 42.9777 23.0393 44.332 22.7643 45.5626C22.4893 46.7863 22.4343 47.8862 22.6543 48.7593C22.7918 48.8624 22.9293 48.9724 23.0668 49.0824C23.0943 49.103 23.1149 49.1237 23.1424 49.1374C23.1905 49.1787 23.2386 49.213 23.2868 49.2543C23.3486 49.3024 23.4174 49.3574 23.4793 49.4055C23.5343 49.4467 23.5893 49.4949 23.6443 49.5361C23.6924 49.5774 23.7474 49.6186 23.7955 49.6599C23.823 49.6874 23.8574 49.708 23.8849 49.7355C23.9949 49.8249 24.1117 49.9211 24.2217 50.0105C24.2424 50.0242 24.263 50.0449 24.2836 50.0586C24.2836 50.0586 24.2905 50.0586 24.2974 50.0655C24.1874 49.268 24.3386 48.2574 24.703 47.1025C25.0742 45.9475 25.6585 44.6551 26.4148 43.3008C27.171 41.9464 28.1059 40.5371 29.1646 39.1485C30.2233 37.7598 31.4127 36.3917 32.6776 35.1268L32.6639 35.1336Z" fill="currentColor"/>
<path d="M26.937 30.7478C27.9338 29.7578 28.9375 28.9259 29.9206 28.2591C30.9037 27.5991 31.8593 27.0973 32.7598 26.7742C33.6604 26.4511 34.5129 26.2998 35.276 26.3205C36.0391 26.348 36.7197 26.5473 37.2834 26.9323L35.7778 25.8942L35.331 25.5849C35.2829 25.5505 35.2279 25.523 35.1729 25.4955C35.1729 25.4955 35.1591 25.4886 35.1522 25.4886C34.5541 25.1586 33.8735 24.973 33.1311 24.9318C32.313 24.8905 31.4261 25.0211 30.4981 25.3167C29.57 25.6192 28.5938 26.0936 27.6107 26.7329C26.6276 27.3723 25.6308 28.1835 24.6477 29.1528C23.3828 30.4109 22.2622 31.834 21.3341 33.312C20.406 34.7969 19.6567 36.3437 19.1273 37.8631C18.598 39.3824 18.2886 40.8811 18.2199 42.2629C18.158 43.6447 18.3367 44.9027 18.7973 45.9614C18.8386 45.9889 18.873 46.0165 18.9142 46.0371C18.9829 46.0852 19.0517 46.1333 19.1204 46.1746C19.1411 46.1883 19.1617 46.2021 19.1823 46.2158C19.2167 46.2433 19.2579 46.2639 19.2923 46.2914C19.3611 46.3396 19.4298 46.3877 19.4985 46.4358C19.526 46.4495 19.5467 46.4702 19.5673 46.4839C19.6017 46.5045 19.636 46.5321 19.6704 46.5527C19.7392 46.6008 19.8079 46.6489 19.8767 46.697C19.9042 46.7176 19.9317 46.7383 19.9592 46.752C19.9935 46.7727 20.021 46.7933 20.0554 46.8208C20.1241 46.8689 20.1929 46.917 20.2616 46.972C20.296 46.9927 20.3235 47.0133 20.351 47.0408C19.9867 46.0508 19.9042 44.8546 20.0554 43.5347C20.2066 42.2147 20.5985 40.7711 21.1897 39.293C21.7809 37.8149 22.5853 36.3025 23.5477 34.8451C24.5171 33.3876 25.6514 31.9852 26.9163 30.7202L26.937 30.7478Z" fill="currentColor"/>
<path d="M15.4563 43.8781C15.5181 43.9124 15.5869 43.9537 15.6488 43.988C15.6625 43.988 15.6694 44.0018 15.6831 44.0087C15.7175 44.0293 15.7588 44.0499 15.8 44.0774C15.8619 44.1118 15.9238 44.1531 15.9925 44.1874C16.0062 44.1943 16.02 44.2012 16.0337 44.2149C16.0681 44.2355 16.1094 44.2562 16.1437 44.2768C16.2056 44.3112 16.2675 44.3524 16.3362 44.3868C16.3569 44.4005 16.3706 44.4074 16.3912 44.4212C16.4256 44.4418 16.46 44.4624 16.4944 44.483C16.5562 44.5243 16.6181 44.5587 16.6868 44.5999C16.7075 44.6136 16.7281 44.6274 16.7487 44.6411C16.1575 43.4999 15.8481 42.1525 15.8 40.702C15.7519 39.2514 15.9581 37.684 16.3981 36.1097C16.8381 34.5354 17.5118 32.9404 18.3986 31.428C19.2786 29.9156 20.3648 28.4788 21.6366 27.2207C22.5853 26.272 23.5753 25.4951 24.5584 24.8833C25.5483 24.2714 26.5383 23.8246 27.5007 23.5427C28.4632 23.2677 29.3982 23.1577 30.2712 23.2196C31.1375 23.2815 31.9487 23.5083 32.6774 23.9071C32.6774 23.9071 32.6911 23.9071 32.698 23.914L32.6568 23.8933L30.9656 22.9171L30.8487 22.8483C30.8487 22.8483 30.8143 22.8346 30.8006 22.8277C30.0306 22.4428 29.185 22.2159 28.2913 22.154C27.377 22.0853 26.4214 22.1884 25.4383 22.4496C24.4621 22.7178 23.4653 23.144 22.4753 23.7421C21.4923 24.3402 20.516 25.1032 19.5811 26.0245C18.3161 27.2825 17.2437 28.7262 16.3981 30.2593C15.5525 31.7923 14.92 33.4079 14.5419 35.0235C14.157 36.6321 14.0195 38.2339 14.1501 39.7326C14.2807 41.2313 14.6726 42.6269 15.3532 43.8162C15.3944 43.8368 15.4288 43.8574 15.47 43.8849L15.4563 43.8781Z" fill="currentColor"/>
<path d="M28.2775 21.5292L26.937 20.9242L26.5726 20.773C26.4695 20.7317 26.3664 20.6905 26.2632 20.6561C25.4727 20.3674 24.6339 20.1955 23.7815 20.1405C22.8122 20.0855 21.8153 20.1818 20.8254 20.4293C19.8285 20.6836 18.8386 21.0892 17.8692 21.6529C16.9068 22.2167 15.9649 22.9316 15.085 23.8047C13.82 25.0628 12.7888 26.5202 12.0189 28.0876C11.242 29.6551 10.7196 31.3188 10.4652 32.9962C10.2108 34.6667 10.2246 36.3442 10.5202 37.9254C10.8158 39.5065 11.4002 40.9915 12.2732 42.2839C12.2939 42.2908 12.3214 42.3045 12.342 42.3114C12.4176 42.3458 12.4864 42.3733 12.562 42.4076C12.562 42.4076 12.5688 42.4076 12.5757 42.4076C12.6101 42.4214 12.6445 42.4351 12.672 42.4489C12.7338 42.4764 12.7957 42.5039 12.8576 42.5314C12.8576 42.5314 12.8713 42.5314 12.8782 42.5383C12.9126 42.552 12.947 42.5726 12.9813 42.5864C13.0432 42.6139 13.0982 42.6414 13.1601 42.6689C13.1669 42.6689 13.1807 42.6758 13.1876 42.6826C13.2219 42.6964 13.2563 42.717 13.2907 42.7308C13.3457 42.7583 13.4076 42.7858 13.4626 42.8133C13.4763 42.8133 13.4901 42.827 13.4969 42.8339C12.6995 41.5758 12.1907 40.1252 11.9639 38.5784C11.737 37.0247 11.7851 35.3748 12.0876 33.7249C12.3901 32.075 12.9607 30.425 13.765 28.8714C14.5694 27.3177 15.6143 25.8671 16.8793 24.609C17.7867 23.7085 18.7423 22.9729 19.7185 22.3954C20.6947 21.8179 21.6984 21.4055 22.6953 21.1511C23.6921 20.8967 24.6752 20.8005 25.6308 20.8692C26.5657 20.9379 27.4594 21.158 28.2982 21.5361C28.3119 21.5429 28.3325 21.5498 28.3463 21.5567L28.2775 21.5292Z" fill="currentColor"/>
<path d="M23.775 19.7552C23.2525 19.5971 22.5719 19.4183 22.0082 19.274C21.9463 19.2602 21.8845 19.2396 21.8226 19.2259C21.7745 19.2121 21.7195 19.1984 21.6645 19.1915C21.3964 19.1365 21.0801 19.0815 20.8326 19.0471C10.8368 17.7547 2.36032 31.1053 9.65437 41.383C9.65437 41.383 9.66125 41.383 9.66812 41.383C9.72312 41.3967 9.77812 41.4105 9.83311 41.4242C9.85374 41.4242 9.88124 41.438 9.90186 41.4449C9.98436 41.4655 10.0669 41.493 10.1493 41.5136C10.1562 41.5136 10.1631 41.5136 10.1768 41.5205C10.2525 41.5411 10.3281 41.5617 10.4037 41.5892C10.4037 41.5892 10.4037 41.5892 10.4106 41.5892C10.4381 41.5961 10.4656 41.6099 10.4931 41.6167C10.5481 41.6374 10.6031 41.6511 10.665 41.6717C10.665 41.6717 10.6718 41.6717 10.6787 41.6717C10.5343 41.4586 10.335 41.1836 10.1975 40.9636C4.5396 31.8959 12.2393 16.8335 23.7613 19.7415L23.775 19.7552Z" fill="currentColor"/>
<path d="M8.18318 22.1816C6.91823 23.4328 5.95578 24.904 5.29581 26.4921C4.63584 28.0801 4.27148 29.7781 4.21648 31.4968C4.16148 33.2086 4.40897 34.9411 4.96582 36.5772C5.52267 38.2203 6.38888 39.7671 7.56446 41.1283C7.56446 41.1283 7.57821 41.1283 7.58508 41.1283C7.61945 41.1283 7.6607 41.1283 7.69508 41.1283C7.7157 41.1283 7.73632 41.1283 7.75695 41.1283H7.7707C7.81195 41.1283 7.84632 41.1283 7.88757 41.1283C7.90819 41.1283 7.93569 41.1283 7.95631 41.1283C7.95631 41.1283 7.96319 41.1283 7.97006 41.1283C8.01131 41.1283 8.05943 41.1283 8.10068 41.1352C8.12131 41.1352 8.14193 41.1352 8.16256 41.1352C8.22443 41.1352 8.2863 41.142 8.3413 41.1489C8.34817 41.1489 8.35505 41.1489 8.3688 41.1489C1.72096 32.8305 6.61575 18.2562 18.5777 18.703C18.5846 18.703 18.5915 18.703 18.5983 18.703H18.5227L17.959 18.6618H17.9384C17.9384 18.6618 17.9315 18.6618 17.9246 18.6618C17.3403 18.6411 16.5634 18.6549 15.9722 18.6618C15.271 18.703 14.5766 18.7993 13.8892 18.9643C13.2017 19.1293 12.5211 19.3561 11.8611 19.6517C11.2012 19.9473 10.5618 20.2979 9.9431 20.7242C9.33125 21.1435 8.74003 21.6316 8.18318 22.1816Z" fill="currentColor"/>
<path d="M2.154 32.0129C2.16087 33.711 2.48398 35.4159 3.12333 37.0314C3.76268 38.647 4.71826 40.1732 5.99695 41.5069C6.00383 41.5069 6.0107 41.5 6.01758 41.4931C6.0382 41.4794 6.0657 41.4656 6.08632 41.4587C6.10007 41.4587 6.11382 41.445 6.12757 41.4381C6.12757 41.4381 6.14132 41.4381 6.1482 41.4313C6.1757 41.4175 6.19632 41.4106 6.22382 41.3969C6.23757 41.3969 6.25132 41.3831 6.26507 41.3762C6.26507 41.3762 6.27882 41.3762 6.28569 41.3762C6.31319 41.3625 6.34069 41.3556 6.36819 41.3488C6.38194 41.3488 6.40256 41.335 6.41631 41.3281C6.41631 41.3281 6.42319 41.3281 6.43006 41.3281C6.45756 41.3212 6.49193 41.3075 6.51943 41.3006C6.54005 41.3006 6.5538 41.2869 6.57443 41.2869C0.0365912 33.6835 2.63523 22.6633 11.7167 19.4322C11.7305 19.4322 11.7373 19.4253 11.7511 19.4185C11.7373 19.4185 11.7167 19.4322 11.6961 19.4391C11.043 19.666 10.1974 19.996 9.5718 20.2641C9.22119 20.4291 8.77433 20.6834 8.42372 20.869C8.41685 20.869 8.4031 20.8759 8.39622 20.8828C8.39622 20.8828 8.38247 20.8897 8.3756 20.8965C8.16248 21.0203 7.94937 21.1578 7.73625 21.2953C7.52314 21.4396 7.31002 21.5909 7.09691 21.749C6.89066 21.9071 6.68442 22.0721 6.48506 22.2508C6.28569 22.4227 6.08632 22.6083 5.90071 22.8008C4.64264 24.052 3.69393 25.5163 3.06833 27.0838C2.44274 28.6581 2.13337 30.3423 2.14025 32.0404L2.154 32.0129Z" fill="currentColor"/>
<path d="M2.49742 39.2308C3.15052 40.4201 4.00298 41.5338 5.04793 42.5375C5.04793 42.5307 5.05481 42.5238 5.06168 42.5169C5.07543 42.4826 5.09606 42.4482 5.1098 42.4207C5.1098 42.4207 5.1098 42.4069 5.11668 42.4C5.11668 42.4 5.12355 42.3863 5.13043 42.3794C5.14418 42.3519 5.1648 42.3176 5.18543 42.2901C5.18543 42.2832 5.1923 42.2763 5.19918 42.2694C5.19918 42.2694 5.19918 42.2695 5.19918 42.2626C5.22667 42.2213 5.2473 42.1869 5.2748 42.1526C5.2748 42.1526 5.28167 42.1457 5.28855 42.1388C5.30917 42.1113 5.33667 42.077 5.35729 42.0495C5.35729 42.0495 5.36417 42.0426 5.37104 42.0357C0.510632 36.9209 0.00190471 30.0806 4.07173 24.5877C4.08547 24.5671 4.09922 24.5465 4.11297 24.5327L4.01673 24.6565L3.58362 25.2271L3.51488 25.3164C3.4805 25.3646 3.453 25.4058 3.4255 25.4471C3.19176 25.777 3.06115 25.9764 2.8824 26.272C2.72429 26.547 2.52492 26.9045 2.18806 27.5438C2.18806 27.5438 2.18806 27.5576 2.18118 27.5645L2.16056 27.6057L2.02994 27.8807C1.47996 29.07 1.12936 30.335 0.984987 31.6205C0.840618 32.9061 0.895615 34.2192 1.1431 35.5047C1.39747 36.7903 1.8512 38.0484 2.50429 39.2377L2.49742 39.2308Z" fill="currentColor"/>
<path d="M4.74563 44.2085C4.74563 44.2085 4.74563 44.1879 4.74563 44.181C4.74563 44.1329 4.74563 44.0848 4.74563 44.0367C4.74563 44.0229 4.74563 44.016 4.74563 44.0023C4.74563 44.0023 4.74563 43.9954 4.74563 43.9885C4.74563 43.9267 4.74563 43.8717 4.74563 43.8098C4.74563 43.8098 4.74563 43.8098 4.74563 43.8029C4.74563 43.7961 4.74563 43.7823 4.74563 43.7754C4.74563 43.7273 4.74563 43.6861 4.75938 43.6379C4.75938 43.6311 4.75938 43.6173 4.75938 43.6104C4.75938 43.6035 4.75938 43.5898 4.75938 43.5829C4.75938 43.5417 4.76626 43.5004 4.77313 43.4592C4.77313 43.4455 4.77313 43.4386 4.77313 43.4248C3.95504 42.6892 3.25382 41.8849 2.66947 41.0255C2.08513 40.1662 1.62452 39.2587 1.28079 38.3169C0.937051 37.3751 0.710186 36.4126 0.607065 35.4364C0.51082 34.5496 0.517694 33.6559 0.620815 32.7759C0.634564 32.6865 0.641439 32.5972 0.655188 32.5078L0.62769 32.714C0.572692 33.1746 0.538318 33.3946 0.524569 33.7521C0.51082 34.034 0.503945 34.4052 0.49707 35.0446C0.49707 35.1614 0.49707 35.2852 0.49707 35.4227C0.49707 35.7389 0.517694 36.0414 0.545193 36.3439C0.937051 40.6543 3.76943 43.2942 4.74563 44.2016V44.2085Z" fill="currentColor"/>
<path d="M0.854531 38.7778C0.854531 38.7778 0.854531 38.7984 0.854531 38.8122C0.895779 39.0597 0.950777 39.3072 1.01265 39.5478C1.0264 39.6028 1.04015 39.6509 1.0539 39.7059C0.978276 39.3828 0.909529 39.0597 0.847656 38.7778H0.854531Z" fill="currentColor"/>
<path d="M2.77975 44.0504C3.08911 44.5042 3.43972 44.9373 3.83158 45.3498C4.22343 45.7622 4.65654 46.1541 5.13089 46.5116C5.11027 46.4291 5.08277 46.3466 5.06215 46.2709C5.06215 46.2641 5.06215 46.2572 5.06215 46.2435C5.06215 46.2297 5.05527 46.2091 5.0484 46.1953C5.03465 46.1403 5.0209 46.0853 5.00715 46.0235C5.00715 46.0097 5.00028 45.996 4.9934 45.9822C4.9934 45.9685 4.9934 45.9616 4.98653 45.9478C4.97278 45.886 4.95903 45.8241 4.94528 45.7691C4.94528 45.7553 4.94528 45.7416 4.9384 45.7279C4.9384 45.7279 4.9384 45.721 4.9384 45.7141C4.92465 45.6385 4.90403 45.5628 4.89028 45.4941C4.89028 45.4941 4.89028 45.4872 4.89028 45.4804C4.32656 45.0266 3.8247 44.5385 3.37097 44.0229C2.92412 43.5073 2.52538 42.9574 2.18852 42.3936C1.85166 41.823 1.5698 41.2387 1.34981 40.6268C1.23982 40.3244 1.1367 40.015 1.0542 39.6987C1.17107 40.2006 1.30169 40.7162 1.40481 41.1424C1.41856 41.1906 1.43231 41.2318 1.44606 41.2799C1.45293 41.3074 1.45981 41.3281 1.46668 41.3556C1.60417 41.7887 1.76917 42.2218 1.96166 42.6342C2.18852 43.1155 2.45664 43.5898 2.77287 44.0435L2.77975 44.0504Z" fill="currentColor"/>
</svg>
