<svg width="88" height="88" viewBox="0 0 88 88" fill="none" xmlns="http://www.w3.org/2000/svg">
<path d="M69.2144 69.2256C69.345 69.2462 69.4756 69.2668 69.5994 69.2806C69.7025 69.2943 69.8056 69.3012 69.9156 69.315C69.895 69.315 69.8744 69.315 69.8469 69.3081C69.6475 69.2806 69.4344 69.2531 69.2075 69.2256H69.2144Z" fill="#222222"/>
<path d="M76.6047 68.6826C76.3228 68.7651 76.0341 68.8407 75.7454 68.9026C75.9722 68.8476 76.2541 68.772 76.6047 68.6826Z" fill="#222222"/>
<path d="M69.8813 68.7309C69.62 68.6621 69.3588 68.5796 69.0976 68.4902C69.1251 68.6415 69.1457 68.7859 69.1663 68.9302C69.6957 69.0746 70.225 69.1846 70.7681 69.2602C71.7099 69.3839 72.6655 69.3977 73.6074 69.2946L73.903 69.2602C74.5011 69.1846 74.7692 69.1433 75.216 69.0402C75.3673 69.0058 75.5323 68.9646 75.7385 68.9165C74.9411 69.0883 74.123 69.1777 73.3049 69.1846C72.1568 69.1983 71.0019 69.0471 69.8744 68.7377L69.8813 68.7309Z" fill="#222222"/>
<path d="M76.6047 68.6828C76.6047 68.6828 76.6116 68.6828 76.6185 68.6828L76.7078 68.6553C76.7078 68.6553 76.6803 68.6622 76.6735 68.669C76.6528 68.6759 76.6253 68.6828 76.6047 68.6897V68.6828Z" fill="#222222"/>
<path d="M68.7814 66.7916C68.8364 67.046 68.8914 67.3072 68.9395 67.5684C72.2806 69.0121 76.7285 69.4108 81.3827 66.3585C81.3827 66.3585 81.3827 66.3585 81.3896 66.3585C81.7402 66.1041 81.9258 65.9666 82.1733 65.7604C82.4208 65.5473 82.737 65.2585 83.3488 64.6879C83.5207 64.5161 83.7063 64.3029 83.8919 64.0967C83.8851 64.1036 83.8713 64.1173 83.8644 64.1242C80.3102 67.9053 74.3567 69.4727 68.7676 66.8053L68.7814 66.7916Z" fill="#222222"/>
<path d="M84.3869 63.5332C84.2288 63.7188 84.0707 63.9044 83.8988 64.0832C84.0707 63.8907 84.2357 63.6982 84.3869 63.5332Z" fill="#222222"/>
<path d="M86.7243 59.1469C86.4424 59.7175 86.1056 60.2743 85.7206 60.8105C85.3356 61.3468 84.9025 61.8555 84.4213 62.3436C83.1701 63.6017 81.6989 64.5572 80.1108 65.2103C78.5228 65.8634 76.8247 66.2072 75.1129 66.2415C73.4011 66.2759 71.6756 66.0078 70.0394 65.4235C69.4138 65.2035 68.7951 64.9285 68.2039 64.6191C68.2039 64.6329 68.2107 64.6466 68.2176 64.6604C68.2382 64.7222 68.252 64.7841 68.2726 64.846C68.3551 65.1141 68.4307 65.3685 68.5063 65.6228C68.9532 65.8497 69.4069 66.0491 69.8675 66.2278C71.4968 66.8465 73.2155 67.149 74.9204 67.1422C76.6254 67.1353 78.3165 66.8122 79.8977 66.1797C81.4789 65.5472 82.9432 64.5985 84.2013 63.3404C84.5313 63.0104 84.8406 62.6667 85.1225 62.3092C85.4044 61.9517 85.6656 61.5874 85.9062 61.2093C86.1468 60.8312 86.3599 60.4462 86.5524 60.0475C86.683 59.7725 86.8068 59.4975 86.9168 59.2156C86.9649 59.0919 87.013 58.9613 87.0612 58.8375C87.0749 58.7894 87.0955 58.7344 87.1093 58.6862C87.2468 58.2669 87.3911 57.7582 87.508 57.3526C87.508 57.3457 87.508 57.3388 87.5149 57.3319C87.5149 57.3182 87.5149 57.3045 87.5218 57.2907C87.5768 57.0432 87.6386 56.7614 87.6936 56.4795C87.6249 56.7889 87.5424 57.0913 87.4461 57.3938C87.2605 57.9919 87.0268 58.5831 86.738 59.1537L86.7243 59.1469Z" fill="#222222"/>
<path d="M87.673 56.4729C87.728 56.2186 87.7762 55.9573 87.8174 55.703C87.8243 55.6549 87.8312 55.6067 87.838 55.5586C87.838 55.5723 87.838 55.593 87.8312 55.6067C87.783 55.868 87.728 56.1705 87.673 56.4729Z" fill="#222222"/>
<path d="M67.1451 61.7734C67.317 62.1722 67.4888 62.6122 67.6401 63.0178C76.0341 67.4657 88.3054 62.5159 87.9754 51.5302L87.9617 51.3583C87.9136 50.8496 87.8242 50.224 87.7417 49.6534C87.7142 49.4678 87.6867 49.289 87.6661 49.124C87.6867 49.2478 87.7005 49.3646 87.7142 49.4884C89.041 60.0273 76.7559 66.9363 67.1451 61.7803V61.7734Z" fill="#222222"/>
<path d="M86.4081 49.6593C86.1537 50.6492 85.7481 51.6323 85.1844 52.581C84.6275 53.5366 83.9126 54.4578 83.0532 55.3241C81.7951 56.589 80.3308 57.6065 78.7634 58.3764C77.196 59.1395 75.5185 59.6482 73.8411 59.8888C72.1637 60.1226 70.4794 60.0951 68.8913 59.772C67.7501 59.5451 66.6571 59.1601 65.6465 58.6308C65.8665 59.057 66.1002 59.5038 66.279 59.8819C66.2996 59.9232 66.3133 59.9645 66.334 60.0057C67.2964 60.5213 68.3276 60.9132 69.4001 61.1675C71.0087 61.5525 72.7137 61.6419 74.4117 61.4563C76.1098 61.2707 77.7941 60.8032 79.3753 60.0676C80.9564 59.332 82.4207 58.3283 83.6788 57.0633C84.4969 56.2452 85.1706 55.3722 85.7069 54.4578C86.2431 53.5504 86.6487 52.6017 86.9099 51.6529C87.1712 50.6974 87.3018 49.7349 87.2949 48.7862C87.288 47.8994 87.1643 47.0263 86.9168 46.1807C86.8962 46.1188 86.8824 46.057 86.8618 45.9951C86.8137 45.8507 86.7587 45.6857 86.7037 45.5276C86.5593 45.1151 86.3943 44.6683 86.2499 44.2695C86.5181 45.0601 86.6762 45.8851 86.7106 46.7238C86.7587 47.6931 86.6487 48.6831 86.3943 49.6662L86.4081 49.6593Z" fill="#222222"/>
<path d="M84.7581 41.9327C84.8474 42.8608 84.7581 43.8439 84.5037 44.8407C84.2494 45.8376 83.8162 46.855 83.2181 47.8587C82.62 48.8624 81.8501 49.8524 80.9082 50.7942C79.6502 52.0591 78.1996 53.1178 76.6666 53.9565C75.1266 54.7952 73.5042 55.4071 71.8818 55.7715C70.2662 56.1358 68.6507 56.2596 67.1451 56.1083C65.9145 55.9846 64.7596 55.689 63.7146 55.194C63.8178 55.3659 63.9209 55.5309 64.0102 55.689C64.1821 55.9777 64.3815 56.3146 64.5808 56.6514C65.6189 57.167 66.7601 57.5039 67.9563 57.6758C69.5031 57.8958 71.1462 57.8407 72.7961 57.5314C74.446 57.222 76.0891 56.6514 77.6428 55.8471C79.1964 55.0427 80.647 53.9978 81.912 52.7329C82.8263 51.8185 83.5688 50.8492 84.1531 49.8661C84.7375 48.8762 85.1499 47.8656 85.4043 46.8687C85.6587 45.865 85.748 44.8751 85.6724 43.9195C85.6105 43.1014 85.4181 42.3108 85.1087 41.5615C85.0606 41.4377 85.0056 41.3209 84.9506 41.204C84.7031 40.6884 84.3525 40.0353 84.0775 39.4922C84.105 39.5472 84.1256 39.5953 84.1531 39.6503C84.4831 40.3584 84.6825 41.1215 84.7581 41.919V41.9327Z" fill="#222222"/>
<path d="M80.3514 42.8335C79.7121 43.8372 78.894 44.8478 77.904 45.8377C76.6391 47.1027 75.216 48.2095 73.7311 49.1307C72.2393 50.052 70.6787 50.7806 69.1457 51.2894C67.6126 51.7981 66.1002 52.0869 64.7046 52.1281C63.4603 52.1625 62.3122 51.9975 61.3154 51.6194C61.6729 52.1281 62.0304 52.6506 62.3603 53.1387C63.3847 53.5718 64.5534 53.7986 65.7977 53.833C67.2414 53.8743 68.8019 53.6543 70.3694 53.2074C71.9437 52.7606 73.5317 52.08 75.0442 51.1932C76.5566 50.3063 77.9865 49.2201 79.2515 47.9552C80.2208 46.9858 81.0183 45.9821 81.637 44.9716C82.2626 43.9679 82.7094 42.9573 82.9844 41.9879C83.2594 41.0117 83.3557 40.0699 83.28 39.1899C83.2044 38.31 82.9432 37.4987 82.5101 36.7769L81.4995 35.1751L81.4514 35.0995L81.3483 34.9482C81.3483 34.9482 81.3826 34.9964 81.3964 35.0239C81.7951 35.6632 82.0288 36.3988 82.0907 37.1962C82.1595 38.0281 82.0426 38.9424 81.7539 39.8912C81.4651 40.8399 80.9976 41.8367 80.3514 42.8335Z" fill="#222222"/>
<path d="M76.7422 37.5813C76.0548 38.5575 75.1954 39.5612 74.1848 40.5786C72.9199 41.8436 71.5312 42.9985 70.0944 44.0022C68.6645 45.0059 67.1864 45.8584 65.7633 46.5184C64.3334 47.1783 62.9516 47.6458 61.6935 47.8864C60.5179 48.1133 59.4592 48.127 58.5793 47.9208C58.6274 47.9827 58.6755 48.0445 58.7236 48.0995C59.0468 48.4983 59.4317 49.007 59.7823 49.4745C60.7173 49.7563 61.8173 49.8182 63.0203 49.6807C64.3334 49.5226 65.7771 49.1307 67.2483 48.5326C68.7263 47.9345 70.2319 47.1371 71.6893 46.1677C73.1468 45.1984 74.5492 44.0641 75.8141 42.7991C76.8178 41.7954 77.6566 40.7848 78.3234 39.7949C78.9902 38.8049 79.4921 37.8425 79.8152 36.9419C80.1383 36.0344 80.2896 35.1888 80.2552 34.4258C80.2277 33.7452 80.0558 33.1333 79.7396 32.6177C79.6983 32.5558 79.664 32.4939 79.6227 32.4321L79.2102 31.8615L78.839 31.3459L78.2959 30.624C78.6603 31.1053 78.8321 31.7171 78.8321 32.4184C78.8321 33.1264 78.6534 33.9308 78.2959 34.797C77.9453 35.6701 77.4159 36.605 76.7285 37.5744L76.7422 37.5813Z" fill="#222222"/>
<path d="M74.2674 29.6408C73.8342 30.4107 73.2361 31.277 72.4937 32.205C71.7512 33.1331 70.8575 34.1231 69.8263 35.1543C68.5614 36.4192 67.207 37.6223 65.8458 38.7154C64.4847 39.8084 63.1097 40.7847 61.8035 41.6027C60.4973 42.4208 59.2668 43.0739 58.1737 43.5208C57.115 43.9539 56.2006 44.1808 55.4926 44.1739C55.5338 44.222 55.5751 44.2701 55.6163 44.3114C55.9807 44.7307 56.4206 45.2532 56.8194 45.7344C57.6031 45.8307 58.5862 45.6932 59.6999 45.3495C60.8617 44.992 62.161 44.4145 63.5222 43.6652C64.8834 42.9158 66.2996 41.9877 67.6883 40.9359C69.0838 39.8841 70.4519 38.7016 71.7168 37.4367C72.7412 36.4124 73.6211 35.4086 74.3361 34.4599C75.0579 33.5112 75.6217 32.6175 76.0204 31.7994C76.4191 30.9882 76.6529 30.2526 76.7079 29.627C76.7629 29.0427 76.6597 28.5546 76.3985 28.1833C76.3848 28.1627 76.3641 28.1352 76.3435 28.1146L76.0823 27.7915L75.876 27.5371L74.8655 26.3271C75.1129 26.6228 75.1817 27.0696 75.0786 27.6265C74.9754 28.1902 74.7005 28.8639 74.2674 29.6408Z" fill="#222222"/>
<path d="M52.8046 41.1701C53.059 41.4382 53.3133 41.72 53.5608 41.9881C54.1589 41.8644 54.9701 41.5 55.9326 40.9501C56.9157 40.3863 58.0569 39.6232 59.2806 38.7089C60.5043 37.8014 61.8173 36.7496 63.1373 35.6084C64.4572 34.4672 65.784 33.2367 67.0559 31.9717C68.0939 30.9336 69.0083 29.9574 69.7851 29.0568C70.562 28.1563 71.2013 27.345 71.6894 26.6369C72.1775 25.9288 72.5144 25.3239 72.6862 24.8495C72.8581 24.3752 72.865 24.0314 72.7 23.8458L72.6312 23.7702L71.4763 22.5121L71.0913 22.0928C71.0913 22.0928 71.0982 22.1065 71.1051 22.1134C71.1875 22.2372 71.1119 22.4984 70.8988 22.8902C70.672 23.3027 70.2801 23.8458 69.7507 24.5127C69.2214 25.1795 68.5477 25.9564 67.7433 26.8294C66.939 27.7025 66.0109 28.6719 64.9728 29.7099C63.7079 30.9749 62.3948 32.2261 61.1092 33.4017C59.8237 34.5772 58.5656 35.6841 57.3969 36.6603C56.2351 37.6365 55.1626 38.4752 54.2552 39.1283C53.3615 39.7676 52.6396 40.2282 52.1309 40.4482C52.1721 40.4895 52.2134 40.5376 52.2546 40.5788C52.3165 40.6407 52.3784 40.7094 52.4402 40.7782C52.4402 40.7782 52.4334 40.7645 52.4265 40.7576L52.8115 41.1769L52.8046 41.1701Z" fill="#222222"/>
<path d="M50.041 38.2886C53.0452 35.4494 67.8327 20.7581 68.7402 19.665L68.6989 19.6238C68.2383 19.1632 67.7227 18.6545 67.3102 18.2489C67.2277 18.1732 67.1452 18.0908 67.0627 18.0083L67.0146 17.9601C66.9459 17.9051 66.7121 18.0151 66.3478 18.2695C65.9765 18.5307 65.4609 18.9501 64.8216 19.5069C64.1822 20.0638 63.426 20.7581 62.5667 21.5694C61.7073 22.3806 60.7449 23.3224 59.7068 24.3605C58.4419 25.6254 57.1769 26.9247 55.9738 28.1897C54.7708 29.4546 53.6364 30.6783 52.619 31.8058C51.6015 32.9332 50.7147 33.9576 50.0066 34.81C49.3123 35.6556 48.7967 36.3293 48.5148 36.7831C48.5629 36.8243 48.611 36.8724 48.6523 36.9137C49.0648 37.3193 49.5804 37.828 50.041 38.2886Z" fill="#222222"/>
<path d="M57.0944 16.5794C56.18 17.3356 55.1901 18.2362 54.152 19.2674C52.8871 20.5323 51.6702 21.8729 50.5565 23.2203C49.4428 24.5678 48.4323 25.9083 47.5798 27.187C46.7273 28.4588 46.0261 29.6551 45.5311 30.7069C45.0499 31.7312 44.768 32.6043 44.7199 33.2711C44.768 33.3124 44.823 33.3605 44.8643 33.3949C45.3043 33.773 45.8474 34.2611 46.3217 34.7079C46.4661 34.1305 46.8442 33.333 47.4148 32.3843C47.9992 31.4149 48.776 30.2875 49.6972 29.0775C50.6184 27.8676 51.684 26.5683 52.8321 25.2552C53.9801 23.9422 55.2176 22.6222 56.4894 21.3573C57.5275 20.3192 58.5037 19.4049 59.3974 18.628C60.2911 17.8512 61.1023 17.205 61.8035 16.71C62.5048 16.215 63.096 15.8713 63.5635 15.6857C64.0241 15.5 64.3541 15.4863 64.5328 15.6444L63.0547 14.3314L62.7041 14.022C62.7041 14.022 62.6629 13.9876 62.6423 13.9739C62.3879 13.7951 62.0029 13.7676 61.5148 13.8914C60.9855 14.022 60.3392 14.3176 59.5899 14.7713C58.8406 15.225 57.995 15.8369 57.0806 16.5931L57.0944 16.5794Z" fill="#222222"/>
<path d="M45.8474 34.2879C45.8474 34.2879 45.868 34.2948 45.8749 34.3017C45.868 34.3017 45.8542 34.2948 45.8474 34.2879Z" fill="#222222"/>
<path d="M41.3926 30.4522C41.7363 30.734 42.1006 31.0297 42.4375 31.3115C42.3481 30.5278 42.4994 29.5516 42.85 28.4448C43.2212 27.2898 43.8056 25.9974 44.5618 24.6431C45.318 23.2888 46.253 21.8794 47.3117 20.4907C48.3704 19.1021 49.5597 17.734 50.8246 16.4691C51.849 15.4447 52.8527 14.5717 53.8014 13.8498C54.7501 13.128 55.6438 12.5642 56.455 12.1655C57.2662 11.7668 57.9949 11.533 58.6137 11.4712C59.2049 11.4162 59.693 11.5193 60.0574 11.7874C60.0711 11.8012 60.0917 11.8149 60.1055 11.8218L59.9817 11.7186L58.3456 10.4193L58.2081 10.3093C58.2081 10.3093 58.1462 10.2681 58.1187 10.2475C57.6856 9.94499 57.1356 9.8075 56.4963 9.82125C55.8157 9.835 55.032 10.0275 54.1795 10.3918C53.327 10.7562 52.3989 11.2924 51.4296 11.9868C50.4603 12.6811 49.4566 13.5473 48.4322 14.5579C47.1673 15.8228 45.9986 17.2047 44.9811 18.6209C43.9637 20.037 43.0837 21.4945 42.3963 22.9038C41.7088 24.3131 41.2001 25.6674 40.9251 26.898C40.6638 28.0598 40.6088 29.0979 40.7807 29.9503C40.822 29.9847 40.8701 30.0191 40.9044 30.0535C41.0351 30.1566 41.1726 30.2735 41.3169 30.3903L41.4407 30.4934C41.4407 30.4934 41.4063 30.4659 41.3926 30.4591V30.4522Z" fill="#222222"/>
<path d="M48.6798 6.65814C47.7517 6.96062 46.7755 7.43498 45.7924 8.07432C44.8094 8.71367 43.8125 9.5249 42.8294 10.4942C41.5645 11.7523 40.4439 13.1754 39.5158 14.6534C38.5878 16.1383 37.8384 17.6852 37.3091 19.2045C36.7797 20.7238 36.4703 22.2225 36.4016 23.6043C36.3466 24.8417 36.4841 25.9829 36.8485 26.966C37.1441 27.1791 37.4328 27.3853 37.6803 27.5778C37.9209 27.7566 38.189 27.956 38.4571 28.1622C38.1615 27.2204 38.0997 26.1135 38.2371 24.8898C38.3884 23.5699 38.7802 22.1262 39.3715 20.6482C39.9627 19.1701 40.767 17.6577 41.7295 16.2002C42.6988 14.7428 43.8331 13.3403 45.0981 12.0754C46.0949 11.0854 47.0986 10.2536 48.0817 9.58677C49.0648 8.92679 50.0204 8.42496 50.921 8.10185C51.8215 7.77874 52.674 7.62747 53.4371 7.6481C54.2002 7.67559 54.8808 7.87497 55.4445 8.25995L53.939 7.22187L53.4921 6.9125C53.4371 6.87812 53.3752 6.84378 53.3202 6.8094C52.7221 6.47942 52.0415 6.2938 51.2991 6.25255C50.481 6.21131 49.5941 6.34192 48.6661 6.63754L48.6798 6.65814Z" fill="#222222"/>
<path d="M33.961 22.0374C33.9129 20.5868 34.1192 19.0194 34.5591 17.4451C34.9991 15.8708 35.6728 14.2759 36.5597 12.7634C37.4396 11.251 38.5258 9.8142 39.7977 8.55613C40.7464 7.60743 41.7363 6.83057 42.7194 6.21872C43.7094 5.60687 44.6993 5.16005 45.6618 4.87819C46.6242 4.6032 47.5592 4.49318 48.4323 4.55506C49.2985 4.61693 50.1097 4.84379 50.8384 5.24253C50.8384 5.24253 50.8522 5.24253 50.8591 5.24941L50.8178 5.22876L49.1266 4.25257L49.0098 4.18384C49.0098 4.18384 48.9754 4.17007 48.9616 4.16319C48.1917 3.77821 47.3461 3.55136 46.4524 3.48949C45.538 3.42074 44.5825 3.52385 43.5994 3.78509C42.6232 4.05321 41.6263 4.47944 40.6364 5.07754C39.6533 5.67564 38.6771 6.43873 37.7421 7.35994C36.4772 8.61801 35.4047 10.0617 34.5591 11.5947C33.7136 13.1278 33.0811 14.7433 32.703 16.3589C32.318 17.9676 32.1805 19.5694 32.3111 21.0681C32.4142 22.3193 32.7099 23.4949 33.2048 24.5467C33.6998 24.856 34.2017 25.186 34.6829 25.5023C34.6829 25.5023 34.6966 25.5091 34.7035 25.5091C34.2567 24.4779 34.016 23.3024 33.9748 22.0443L33.961 22.0374Z" fill="#222222"/>
<path d="M30.4481 22.9102C30.7025 23.0477 30.9499 23.1852 31.1837 23.3227C30.6612 22.2777 30.3106 21.1297 30.1319 19.9197C29.905 18.3661 29.9531 16.7161 30.2556 15.0662C30.5581 13.4163 31.1287 11.7663 31.933 10.2126C32.7374 8.65895 33.7823 7.20842 35.0473 5.95035C35.9547 5.04977 36.9103 4.31415 37.8865 3.73668C38.8627 3.1592 39.8664 2.74672 40.8633 2.49236C41.8601 2.23799 42.8432 2.14177 43.7988 2.21051C44.7337 2.27926 45.6274 2.49923 46.4661 2.87734C46.4799 2.88421 46.5005 2.89111 46.5143 2.89798L46.4455 2.87046L45.1049 2.26548L44.7406 2.11426C44.6375 2.07301 44.5344 2.03177 44.4312 1.9974C43.6406 1.70866 42.8019 1.53679 41.9495 1.4818C40.9801 1.4268 39.9833 1.52303 38.9933 1.77052C37.9965 2.02489 37.0066 2.43047 36.0372 2.9942C35.0679 3.55792 34.1329 4.27289 33.253 5.14598C31.988 6.40405 30.9568 7.86151 30.1869 9.42895C29.41 10.9964 28.8875 12.66 28.6332 14.3374C28.3788 16.008 28.3926 17.6855 28.6882 19.2666C28.9082 20.4353 29.2794 21.549 29.8156 22.5665C29.9737 22.649 30.1319 22.7384 30.29 22.8277C30.3037 22.8346 30.3244 22.8415 30.3381 22.8483L30.455 22.9171L30.4481 22.9102Z" fill="#222222"/>
<path d="M26.8251 21.0952C27.1344 21.2327 27.4713 21.384 27.7738 21.5352L27.8425 21.5627C27.8425 21.5627 27.8082 21.549 27.7944 21.5421C27.8632 21.5765 27.925 21.604 27.9869 21.6315C23.099 12.5156 30.7024 -1.74936 41.9425 1.08989C41.4201 0.93177 40.7395 0.75302 40.1757 0.608651C40.1139 0.594902 40.052 0.574273 39.9901 0.560523C39.942 0.546774 39.887 0.533033 39.832 0.526158C39.5639 0.47116 39.2477 0.416148 39.0002 0.381774C29.5268 -0.848796 21.4216 11.0926 26.8251 21.0952Z" fill="#222222"/>
<path d="M26.3507 3.51697C25.0858 4.76817 24.1233 6.23936 23.4633 7.82742C22.8034 9.41547 22.439 11.1135 22.384 12.8322C22.329 14.544 22.5765 16.2764 23.1333 17.9126C23.374 18.6276 23.6833 19.3288 24.0408 20.0025C24.1714 20.0506 24.302 20.0919 24.4258 20.14C24.6595 20.2294 24.9276 20.3325 25.2026 20.4356C20.7135 11.9866 25.732 -0.360343 36.7521 0.0521392C36.759 0.0521392 36.7659 0.0521392 36.7727 0.0521392H36.6971L36.1334 0.0108927H36.1128C36.1128 0.0108927 36.1059 0.0108927 36.099 0.0108927C35.5078 -0.00973142 34.731 0.00401798 34.1466 0.0108927C33.4454 0.0452662 32.751 0.148388 32.0567 0.313381C31.3692 0.478374 30.6886 0.705239 30.0287 1.00085C29.3687 1.29646 28.7294 1.64707 28.1106 2.0733C27.4988 2.49266 26.9076 2.98076 26.3507 3.53073V3.51697Z" fill="#222222"/>
<path d="M20.3216 13.3475C20.3285 15.0456 20.6516 16.7505 21.2909 18.366C21.4215 18.6891 21.5659 19.0054 21.7171 19.3216C22.0334 19.4041 22.3634 19.4866 22.6933 19.5828C18.9604 12.3438 21.944 3.57169 29.8843 0.746185C29.898 0.746185 29.9049 0.739297 29.9187 0.732422C29.9049 0.732422 29.8843 0.746191 29.8705 0.753066C29.2174 0.979931 28.3718 1.30988 27.7462 1.578C27.3956 1.74299 26.9488 1.99736 26.5982 2.18297C26.5913 2.18297 26.5776 2.18986 26.5707 2.19674C26.5707 2.19674 26.5569 2.20362 26.5501 2.2105C26.3369 2.33424 26.1238 2.47171 25.9107 2.6092C25.6976 2.75357 25.4845 2.90484 25.2714 3.06295C25.0651 3.22107 24.8589 3.38605 24.6595 3.56479C24.4601 3.73666 24.2608 3.92227 24.0752 4.11476C22.8171 5.36596 21.8684 6.83029 21.2428 8.39773C20.6172 9.97203 20.3078 11.6563 20.3147 13.3544L20.3216 13.3475Z" fill="#222222"/>
<path d="M19.9159 18.937C20.1565 18.9782 20.3971 19.0195 20.624 19.0676C18.7128 14.7572 19.2284 9.93115 22.2739 5.86133L21.6758 6.64505C21.6415 6.69318 21.614 6.73438 21.5865 6.77563C21.3527 7.10562 21.2221 7.30499 21.0434 7.6006C20.8853 7.87559 20.6859 8.2331 20.349 8.87245C20.349 8.87245 20.349 8.88618 20.3421 8.89305L20.3215 8.9343L20.1909 9.2093C19.6409 10.3986 19.2903 11.6636 19.146 12.9491C19.0016 14.2347 19.0566 15.5477 19.3041 16.8333C19.4416 17.5483 19.6547 18.2495 19.9159 18.937Z" fill="#222222"/>
<path d="M18.8779 18.7857C18.8779 18.7857 18.8985 18.7857 18.9122 18.7857C19.0016 18.7994 19.1047 18.8132 19.1941 18.82C19.0016 18.1463 18.8641 17.4589 18.7885 16.7714C18.6923 15.8846 18.6991 14.9909 18.8022 14.1109C18.816 14.0215 18.8229 13.9321 18.8366 13.8428L18.8091 14.049C18.7541 14.5096 18.7198 14.7296 18.706 15.0871C18.6923 15.369 18.6854 15.7402 18.6785 16.3795C18.6785 16.4964 18.6785 16.6201 18.6785 16.7576C18.6785 17.0739 18.6991 17.3764 18.7266 17.6789C18.761 18.0638 18.8229 18.4282 18.8916 18.7857H18.8779Z" fill="#222222"/>
<path d="M5.00474 47.6251C5.00474 47.6251 5.00474 47.6114 4.99786 47.5976C4.97036 47.522 4.94286 47.4464 4.91537 47.3708C4.91537 47.357 4.90849 47.3501 4.90162 47.3364C4.90162 47.3295 4.90162 47.3158 4.89474 47.3089C4.86724 47.2264 4.83974 47.1439 4.81225 47.0614C4.81225 47.0614 4.81225 47.0545 4.81225 47.0476C4.78475 46.972 4.76412 46.8964 4.73662 46.8208C4.73662 46.807 4.72975 46.8002 4.72287 46.7864C4.72287 46.7795 4.72287 46.7658 4.716 46.7589C4.6885 46.6764 4.66788 46.5939 4.64725 46.5183C4.1729 46.154 3.73979 45.7621 3.34794 45.3565C2.95608 44.944 2.60547 44.5109 2.29611 44.0572C1.98675 43.6034 1.71863 43.136 1.48489 42.6479C1.28553 42.2285 1.12053 41.8022 0.989914 41.3691C1.16178 41.926 1.38865 42.5929 1.56051 43.1085C1.60176 43.2185 1.63614 43.3216 1.67738 43.4247C2.57797 45.7071 4.0904 46.9101 5.01161 47.6389L5.00474 47.6251Z" fill="#222222"/>
<path d="M6.33842 50.6226C6.33842 50.6226 6.33155 50.6019 6.32467 50.5951C6.27655 50.4988 6.22843 50.4026 6.1803 50.3063C6.1803 50.3063 6.1803 50.2995 6.1803 50.2926C6.1803 50.2788 6.16655 50.2719 6.16655 50.2582C6.12531 50.1757 6.08406 50.0932 6.04281 50.0107C6.04281 49.997 6.02906 49.9832 6.02218 49.9695C6.02218 49.9626 6.01531 49.9488 6.00844 49.942C5.96031 49.8457 5.91906 49.7563 5.87094 49.6601C5.87094 49.6601 5.87094 49.6532 5.87094 49.6464C5.87094 49.6326 5.85719 49.6257 5.85719 49.612C5.81594 49.5295 5.78157 49.4539 5.7472 49.3714C5.7472 49.3576 5.73345 49.3439 5.72657 49.3301C3.82228 47.9895 3.27918 46.9652 2.71546 45.8859C2.71546 45.879 2.70858 45.8653 2.70171 45.8584C2.95607 46.4152 3.3273 47.144 3.59542 47.6939C3.67791 47.852 3.76041 48.0033 3.85666 48.1545C3.93228 48.2783 4.01477 48.4089 4.10414 48.5327C4.28976 48.8008 4.50288 49.062 4.72974 49.3026C4.95661 49.5501 5.21097 49.7838 5.47908 50.0038C5.7472 50.2238 6.04281 50.4301 6.35217 50.6294L6.33842 50.6226Z" fill="#222222"/>
<path d="M8.17396 53.7915C8.14647 53.7502 8.11897 53.7021 8.09147 53.6609C8.07084 53.6265 8.05022 53.599 8.0296 53.5646C7.98147 53.4821 7.92648 53.3996 7.87835 53.3171C7.85773 53.2896 7.8371 53.2552 7.82335 53.2277L7.81648 53.214C7.80961 53.2003 7.80273 53.1865 7.78898 53.1728C7.73398 53.0834 7.67899 52.994 7.62399 52.9047C7.61711 52.8909 7.60336 52.8772 7.59649 52.8634C7.59649 52.8565 7.58962 52.8428 7.58274 52.8359C7.52087 52.7328 7.459 52.6297 7.404 52.5334C7.404 52.5334 7.39712 52.5197 7.39025 52.5128C7.12214 52.3684 6.87465 52.2103 6.64091 52.0384C6.40717 51.8666 6.19405 51.6878 5.99469 51.4953C5.79532 51.3029 5.6097 51.1035 5.44471 50.8904C5.32096 50.7391 5.21097 50.5741 5.10785 50.416L6.01531 51.9009L6.09093 52.0247C6.09093 52.0247 6.11843 52.0728 6.13905 52.0934C6.24905 52.2653 6.37279 52.4234 6.50341 52.5815C6.65466 52.7603 6.81965 52.9253 6.99839 53.0834C7.17713 53.2415 7.3765 53.3927 7.58274 53.5302C7.78898 53.6677 8.01585 53.7983 8.25646 53.9152C8.22896 53.874 8.20146 53.8327 8.18084 53.7915H8.17396Z" fill="#222222"/>
<path d="M10.4152 57.0848C10.4152 57.0848 10.4014 57.0642 10.3946 57.0573C10.3052 56.9336 10.2158 56.8098 10.1265 56.6861C10.1196 56.6724 10.1058 56.6586 10.099 56.6449C10.0715 56.6105 10.0508 56.5761 10.0233 56.5417C9.96834 56.4661 9.92021 56.3905 9.86522 56.3217C9.83772 56.2805 9.81022 56.2392 9.78272 56.2049C9.74835 56.1567 9.72085 56.1155 9.68647 56.0674C9.65898 56.033 9.63148 55.9918 9.61085 55.9574C9.40461 55.8749 9.21212 55.7786 9.03338 55.6755C8.85464 55.5724 8.68277 55.4624 8.53152 55.3386C8.37341 55.2149 8.23591 55.0912 8.10529 54.9537C7.9953 54.8368 7.89905 54.72 7.80968 54.5962C7.78906 54.5687 7.76843 54.5412 7.75468 54.5137L7.82343 54.6099L9.0265 56.2874C9.12275 56.418 9.22587 56.5349 9.34274 56.6449C9.45961 56.7548 9.58335 56.8648 9.72085 56.9611C9.85834 57.0573 10.0096 57.1467 10.1677 57.2292C10.3258 57.3117 10.4977 57.3804 10.6833 57.4423C10.6214 57.3598 10.5596 57.2704 10.4977 57.1879C10.4771 57.1604 10.4564 57.1261 10.4289 57.0986L10.4152 57.0848Z" fill="#222222"/>
<path d="M13.1582 60.6388C13.1307 60.6044 13.1032 60.57 13.0688 60.5288C13.007 60.4531 12.9382 60.3707 12.8763 60.2882C12.842 60.2469 12.8145 60.2125 12.7801 60.1713C12.7389 60.1232 12.7045 60.075 12.6632 60.0269C12.6289 59.9857 12.6014 59.9444 12.567 59.9032C12.5051 59.8276 12.4432 59.7519 12.3814 59.6694C12.3539 59.635 12.3264 59.5938 12.2989 59.5594C12.2851 59.5457 12.2782 59.5319 12.2645 59.5182C12.1064 59.4838 11.962 59.4426 11.8245 59.3876C11.687 59.3326 11.5633 59.2776 11.4464 59.2088C11.3295 59.1401 11.2264 59.0644 11.1302 58.9819C11.082 58.9407 11.0339 58.8995 10.9927 58.8513C10.9514 58.8101 10.9102 58.762 10.8758 58.7139L11.3777 59.3394L12.2782 60.46L12.292 60.4738C12.6426 60.8725 12.9588 60.9344 13.4882 61.0375C13.3851 60.9069 13.2751 60.7832 13.172 60.6525C13.1651 60.6388 13.1513 60.625 13.1445 60.6181L13.1582 60.6388Z" fill="#222222"/>
<path d="M16.5748 64.5983C16.4992 64.5158 16.4236 64.4333 16.348 64.3508C16.3136 64.3095 16.2792 64.2751 16.2448 64.2339C16.2036 64.1858 16.1623 64.1377 16.1142 64.0896C16.073 64.0483 16.0386 64.007 15.9973 63.9658C15.9286 63.8902 15.8667 63.8146 15.798 63.7389C15.7636 63.7046 15.7292 63.6633 15.6949 63.6289C15.6811 63.6152 15.6674 63.6014 15.6536 63.5808C15.5436 63.4502 15.4267 63.3264 15.3168 63.1958C15.1999 63.2027 15.0968 63.2027 15.0005 63.1958C14.9043 63.1889 14.8149 63.1752 14.7393 63.1477C14.6637 63.1271 14.588 63.0927 14.5262 63.0584C14.478 63.0309 14.4368 62.9965 14.4024 62.9621C14.3887 62.9484 14.3749 62.9346 14.368 62.9277L15.5505 64.2545L15.9217 64.6601C15.9561 64.6945 15.9905 64.722 16.0386 64.7426C16.0867 64.7632 16.1417 64.777 16.2036 64.7839C16.2655 64.7907 16.3411 64.7839 16.4167 64.7839C16.4923 64.7839 16.5817 64.7564 16.6848 64.7358C16.6711 64.722 16.6642 64.7151 16.6504 64.7014C16.6229 64.667 16.5886 64.6395 16.5611 64.6052L16.5748 64.5983Z" fill="#222222"/>
<path d="M19.9228 68.1116C19.8816 68.0704 19.8403 68.0291 19.7922 67.981C19.7235 67.9123 19.6547 67.8435 19.586 67.7679C19.5447 67.7267 19.5104 67.6923 19.4691 67.6511C19.4554 67.6373 19.4347 67.6167 19.421 67.6029C19.2972 67.4792 19.1735 67.3554 19.0498 67.2248C19.0429 67.218 19.036 67.211 19.0291 67.1973C19.0016 67.1698 18.9741 67.1423 18.9466 67.1148C18.8573 67.0254 18.7679 66.9361 18.6854 66.8398C18.6098 66.888 18.5479 66.9292 18.486 66.9567C18.431 66.9911 18.376 67.0117 18.3348 67.0323C18.2935 67.0461 18.2592 67.0598 18.2317 67.0598C18.211 67.0598 18.1973 67.0598 18.1904 67.0598C18.1904 67.0598 18.1767 67.0598 18.1767 67.053L18.981 67.8779L19.8403 68.7372C19.8403 68.7372 19.8403 68.7235 19.8541 68.7097C19.8678 68.696 19.8885 68.6685 19.9091 68.6341C19.9366 68.5998 19.971 68.5585 20.0122 68.5173C20.0535 68.4691 20.1016 68.4141 20.1635 68.3522C20.1291 68.3179 20.0947 68.2835 20.0603 68.2491C20.0122 68.201 19.9641 68.1529 19.9228 68.1116Z" fill="#222222"/>
<path d="M23.8965 72.5531C23.869 72.4981 23.8483 72.4362 23.8346 72.3675C23.8208 72.2987 23.814 72.2231 23.8208 72.1337C23.8277 72.0443 23.8346 71.955 23.8552 71.8519C23.7865 71.79 23.7108 71.7212 23.6421 71.6594C23.6008 71.625 23.5596 71.5838 23.5183 71.5494C23.4977 71.5356 23.484 71.515 23.4633 71.5013C23.3327 71.3844 23.2021 71.2606 23.0715 71.1438C23.0715 71.1438 23.0577 71.13 23.0509 71.1232C23.0234 71.1025 23.0027 71.075 22.9752 71.0544C22.879 70.965 22.7759 70.8757 22.6796 70.7794C22.6453 70.7519 22.6178 70.7175 22.5834 70.69C22.5353 70.6419 22.4871 70.6007 22.439 70.5525C22.3909 70.5044 22.3428 70.4632 22.2946 70.415C22.2603 70.5044 22.2328 70.5801 22.2122 70.6488C22.1915 70.7175 22.1778 70.7794 22.1778 70.8344C22.1778 70.8894 22.1778 70.9375 22.1847 70.9719C22.1915 71.0063 22.2122 71.0338 22.2328 71.0613L22.3428 71.1644L22.5971 71.405L23.4771 72.2094L23.9927 72.6768C23.9927 72.6768 23.9652 72.6493 23.9515 72.6356C23.9308 72.6081 23.9102 72.5806 23.8896 72.5462L23.8965 72.5531Z" fill="#222222"/>
<path d="M28.1243 76.1824C28.0487 76.093 27.9868 75.9968 27.9318 75.8868C27.8768 75.7768 27.8218 75.6599 27.7806 75.5362C27.7393 75.4124 27.705 75.2749 27.6775 75.1237C27.54 75.0137 27.4094 74.9037 27.2719 74.7937C27.2719 74.7937 27.2581 74.7868 27.2581 74.78C27.2375 74.7593 27.2169 74.7456 27.1894 74.7249C27.0794 74.6356 26.9762 74.5462 26.8663 74.4637C26.8319 74.4362 26.8044 74.4087 26.77 74.3812C26.7219 74.34 26.6738 74.2987 26.6256 74.2575C26.5706 74.2162 26.5225 74.1681 26.4675 74.1268C26.3988 74.0718 26.3369 74.0169 26.2682 73.9619C26.22 73.9275 26.1788 73.8862 26.1375 73.8518C26.1169 73.8312 26.0894 73.8106 26.0688 73.7969C26.0688 73.9275 26.0894 74.0443 26.11 74.1543C26.1307 74.2643 26.165 74.3606 26.1994 74.4568C26.2338 74.5462 26.2819 74.6287 26.33 74.7043C26.3781 74.7731 26.4331 74.828 26.4881 74.883C26.4881 74.883 26.5019 74.8968 26.5088 74.8968L26.715 75.0618L27.1 75.3849L28.3581 76.423C28.3031 76.3818 28.2549 76.3336 28.2137 76.2855C28.1793 76.2511 28.1518 76.2167 28.1243 76.1824Z" fill="#222222"/>
<path d="M32.7992 79.8061C32.7992 79.8061 32.8542 79.8473 32.8817 79.8679C32.9023 79.8817 32.9161 79.8954 32.9367 79.9092L32.703 79.7373C32.703 79.7373 32.7648 79.7855 32.7992 79.8061Z" fill="#222222"/>
<path d="M32.1255 79.1385C32.0086 78.9873 31.8987 78.8154 31.7955 78.6367C31.6924 78.4579 31.603 78.2654 31.5274 78.0592C31.493 78.0317 31.4518 78.0042 31.4174 77.9836C31.3487 77.9355 31.2799 77.8874 31.2112 77.8392C31.1837 77.8186 31.1562 77.8049 31.1356 77.7842C31.1012 77.7567 31.0668 77.7361 31.0324 77.7086C30.9637 77.6605 30.8949 77.6124 30.8262 77.5574C30.7987 77.5367 30.7712 77.5161 30.7368 77.4955C30.7025 77.4749 30.675 77.4474 30.6406 77.4267C30.5718 77.3786 30.5031 77.3236 30.4343 77.2755C30.4 77.2549 30.3725 77.2274 30.3381 77.2067C30.3106 77.1861 30.2831 77.1655 30.2487 77.1449C30.18 77.0899 30.1112 77.0417 30.0425 76.9867C30.0081 76.9592 29.9737 76.9318 29.9394 76.9111C29.9944 77.0899 30.0562 77.2549 30.1319 77.4061C30.2006 77.5574 30.2831 77.7017 30.3725 77.8392C30.4618 77.9699 30.5581 78.0936 30.6612 78.2036C30.7643 78.3136 30.8812 78.4167 30.9981 78.4992L32.703 79.7435C32.6342 79.6885 32.5655 79.6266 32.5036 79.5716C32.3661 79.441 32.2424 79.3035 32.1186 79.1523L32.1255 79.1385Z" fill="#222222"/>
<path d="M36.7589 82.4177C36.539 82.2528 36.3258 82.0671 36.1265 81.8609C35.9271 81.6547 35.7415 81.4346 35.5627 81.194C35.3909 80.9534 35.2259 80.6922 35.0746 80.4103C35.0403 80.3897 35.0059 80.3691 34.9715 80.3485C34.9097 80.3072 34.8478 80.2728 34.7859 80.2316C34.7653 80.2179 34.7447 80.2041 34.724 80.1972C34.6897 80.1766 34.6553 80.156 34.6209 80.1353C34.559 80.0941 34.4972 80.0597 34.4284 80.0185C34.4078 80.0047 34.3803 79.991 34.3597 79.9772C34.3253 79.9566 34.2978 79.936 34.2634 79.9153C34.2016 79.8741 34.1397 79.8329 34.0709 79.7916C34.0434 79.7779 34.0159 79.7572 33.9953 79.7435C33.9678 79.7229 33.9403 79.7023 33.9059 79.6885C33.8441 79.6473 33.7753 79.606 33.7135 79.5647C33.686 79.5441 33.6585 79.5304 33.6241 79.5098C33.741 79.7573 33.8716 79.991 34.0159 80.2041C34.1603 80.4172 34.3116 80.6166 34.4765 80.8022C34.6415 80.9878 34.8134 81.1528 34.999 81.3041C35.0403 81.3384 35.0884 81.3728 35.1296 81.4072C35.274 81.5172 35.4253 81.6203 35.5765 81.7096L36.8896 82.5277C36.8896 82.5277 36.8758 82.5209 36.8758 82.514C36.8346 82.4865 36.7864 82.4521 36.7452 82.4177H36.7589Z" fill="#222222"/>
<path d="M39.8252 83.9582C39.5364 83.7039 39.2614 83.4289 39.0002 83.1264C38.739 82.8239 38.4915 82.5008 38.2646 82.1502C38.2302 82.1364 38.1959 82.1158 38.1615 82.102C38.1065 82.0745 38.0515 82.0471 37.9965 82.0196C37.9827 82.0127 37.969 82.0058 37.9484 81.999C37.914 81.9852 37.8865 81.9646 37.8521 81.9508C37.7971 81.9233 37.7421 81.8958 37.6871 81.8683C37.6665 81.8615 37.6528 81.8477 37.6321 81.8408C37.6046 81.8271 37.5703 81.8065 37.5428 81.7927C37.4878 81.7652 37.4328 81.7377 37.3709 81.7033C37.3503 81.6896 37.3296 81.6827 37.309 81.6689C37.2815 81.6552 37.254 81.6415 37.2197 81.6209C37.1647 81.5934 37.1028 81.559 37.0478 81.5315C37.0272 81.5177 36.9997 81.5039 36.979 81.4971C37.1715 81.8202 37.3846 82.1158 37.6046 82.3977C37.8315 82.6726 38.0652 82.927 38.3196 83.1608C38.5671 83.3945 38.8352 83.6007 39.1102 83.7932C39.2271 83.8689 39.3439 83.9445 39.4608 84.0201C39.6258 84.1164 39.7908 84.2126 39.9627 84.2951L40.107 84.3707L41.1314 84.8863C40.9939 84.8107 40.8564 84.7282 40.7257 84.6457C40.4095 84.4463 40.107 84.2195 39.8183 83.9651L39.8252 83.9582Z" fill="#222222"/>
<path d="M41.3789 85.0026C41.482 85.0576 41.5851 85.1057 41.6882 85.1539C41.6951 85.1539 41.702 85.1608 41.7157 85.1676L41.1451 84.8789C41.2207 84.9202 41.3032 84.9683 41.3857 85.0095L41.3789 85.0026Z" fill="#222222"/>
<path d="M46.1292 86.928C45.9367 86.8593 45.7236 86.7836 45.4967 86.708C45.7029 86.7905 45.9161 86.8593 46.1292 86.928Z" fill="#222222"/>
<path d="M43.3657 85.566C42.9326 85.2635 42.5269 84.9197 42.1351 84.5348C41.7432 84.1498 41.3789 83.7304 41.0351 83.2698C41.0076 83.2629 40.9733 83.2492 40.9458 83.2423C40.8976 83.2286 40.8495 83.2079 40.8014 83.1942C40.7877 83.1942 40.7808 83.1942 40.767 83.1804C40.7395 83.1735 40.7052 83.1598 40.6777 83.1529C40.6295 83.1392 40.5814 83.1186 40.5333 83.1048C40.5195 83.1048 40.5058 83.0979 40.492 83.091C40.4645 83.0842 40.437 83.0704 40.4095 83.0567C40.3614 83.0361 40.3133 83.0223 40.2652 83.0017C40.2514 83.0017 40.2377 82.9879 40.2171 82.9879C40.1896 82.9811 40.1621 82.9673 40.1346 82.9536C40.0864 82.933 40.0383 82.9192 39.9833 82.8986C39.9627 82.8986 39.9489 82.8848 39.9283 82.8779C40.2102 83.2767 40.5127 83.6479 40.8358 83.9848C41.1589 84.3216 41.4957 84.631 41.8464 84.9129C42.197 85.1947 42.5682 85.4422 42.9532 85.6553C43.2832 85.841 43.62 86.0059 43.9706 86.1503C44.0256 86.1709 44.0806 86.1984 44.1356 86.2191C44.3212 86.2878 44.5275 86.3634 44.7406 86.4459C44.9881 86.5353 45.2493 86.6247 45.4968 86.714C45.2287 86.6109 44.9606 86.494 44.7062 86.3703C44.2456 86.1434 43.7988 85.8753 43.3657 85.5728V85.566Z" fill="#222222"/>
<path d="M46.9885 86.7352C46.3148 86.3846 45.6617 85.9583 45.0498 85.4634C44.438 84.9684 43.8537 84.3978 43.3243 83.7653C43.2968 83.7653 43.2762 83.7653 43.2487 83.7585C43.2074 83.7585 43.1662 83.7516 43.1249 83.7447C43.1249 83.7447 43.1112 83.7447 43.1043 83.7447C43.0768 83.7447 43.0562 83.7447 43.0287 83.7378C42.9874 83.7378 42.9462 83.731 42.9049 83.7241C42.8981 83.7241 42.8912 83.7241 42.8774 83.7241C42.8499 83.7241 42.8293 83.7172 42.8018 83.7103C42.7606 83.7103 42.7193 83.6966 42.6781 83.6897C42.6643 83.6897 42.6575 83.6897 42.6437 83.6897C42.6231 83.6897 42.5956 83.6828 42.575 83.676C42.5337 83.6691 42.4925 83.6622 42.4512 83.6553C42.4375 83.6553 42.4237 83.6553 42.4168 83.6484C42.8568 84.1984 43.3243 84.6865 43.8262 85.1334C44.328 85.5734 44.8505 85.9584 45.4005 86.2952C45.9504 86.6321 46.5142 86.907 47.0985 87.1339C47.6829 87.3608 48.281 87.5327 48.8928 87.6564C49.2984 87.732 49.7934 87.8008 50.2677 87.8695C49.8621 87.8008 49.4634 87.7045 49.0647 87.5945C48.3497 87.3883 47.6485 87.1064 46.9748 86.7558L46.9885 86.7352Z" fill="#222222"/>
<path d="M50.2746 87.8486C50.4946 87.8899 50.7146 87.9173 50.9414 87.9448C51.0446 87.9586 51.1477 87.9655 51.2577 87.9793C51.2371 87.9793 51.2164 87.9792 51.1889 87.9724C50.9071 87.938 50.5977 87.8967 50.2746 87.8555V87.8486Z" fill="#222222"/>
<path d="M57.94 87.3467C57.6581 87.4292 57.3694 87.5048 57.0806 87.5667C57.3075 87.5117 57.5894 87.4361 57.94 87.3467Z" fill="#222222"/>
<path d="M51.2166 87.3884C50.0891 87.079 48.996 86.6115 47.958 85.9859C46.9268 85.3603 45.9505 84.5698 45.0775 83.6279C45.0568 83.6279 45.0431 83.6348 45.0225 83.6417C44.995 83.6486 44.9606 83.6623 44.9262 83.6692C44.9262 83.6692 44.9193 83.6692 44.9125 83.6692C44.8918 83.6692 44.8712 83.6761 44.8575 83.6829C44.83 83.6898 44.7956 83.6967 44.7681 83.7035C44.7681 83.7035 44.7612 83.7035 44.7543 83.7035C44.7337 83.7035 44.7131 83.7036 44.6994 83.7173C44.6719 83.7173 44.6375 83.731 44.6031 83.731C44.6031 83.731 44.5894 83.731 44.5825 83.731C44.5619 83.731 44.5412 83.731 44.5275 83.7379C44.4931 83.7379 44.4656 83.7448 44.4312 83.7517C44.4244 83.7517 44.4175 83.7517 44.4106 83.7517C45.1187 84.5491 45.8955 85.2366 46.7205 85.8072C47.5455 86.3778 48.4186 86.8453 49.326 87.189C50.2335 87.5328 51.1616 87.7733 52.1034 87.8971C53.0452 88.0208 54.0008 88.0346 54.9427 87.9315L55.2383 87.8971C55.8364 87.8215 56.1045 87.7803 56.5513 87.6771C56.7026 87.6428 56.8676 87.6015 57.0738 87.5534C56.2763 87.7252 55.4583 87.8146 54.6402 87.8215C53.4921 87.8352 52.3371 87.684 51.2097 87.3746L51.2166 87.3884Z" fill="#222222"/>
<path d="M57.94 87.3468C57.94 87.3468 57.9468 87.3468 57.9537 87.3468L58.0431 87.3193C58.0431 87.3193 58.0156 87.3262 58.0087 87.3331C57.9881 87.34 57.9606 87.3468 57.94 87.3537V87.3468Z" fill="#222222"/>
<path d="M46.2736 82.8442C46.2736 82.8442 46.2598 82.8648 46.2461 82.8786C46.2461 82.8855 46.2323 82.8924 46.2186 82.9061C46.2117 82.9199 46.1979 82.9336 46.1842 82.9473C46.1842 82.9473 46.1773 82.9611 46.1704 82.968C46.1704 82.968 46.1704 82.968 46.1636 82.9748C46.1429 83.0023 46.1154 83.0229 46.0948 83.0436C46.0742 83.0642 46.0604 83.0779 46.0398 83.0986C46.0261 83.1123 46.0123 83.1192 45.9986 83.1329C45.9986 83.1329 45.9917 83.1398 45.9848 83.1467C45.9848 83.1467 45.9848 83.1467 45.9779 83.1536C45.9573 83.1673 45.9367 83.188 45.9161 83.2017C45.9092 83.2086 45.8954 83.2154 45.8886 83.2223C45.8886 83.2223 45.8748 83.2292 45.8748 83.2361C45.8748 83.2429 45.8611 83.243 45.8542 83.2498C48.7072 86.151 55.465 89.7876 62.7247 85.0235C62.7247 85.0235 62.7247 85.0235 62.7316 85.0235C63.0822 84.7691 63.2678 84.6316 63.5153 84.4254C63.7628 84.2123 64.079 83.9235 64.6909 83.3529C64.8627 83.1811 65.0484 82.968 65.234 82.7617C65.2271 82.7686 65.2133 82.7823 65.2065 82.7892C60.8135 87.4571 52.7633 88.7496 46.2667 82.858L46.2736 82.8442Z" fill="#222222"/>
<path d="M65.722 82.1973C65.5639 82.3829 65.4058 82.5685 65.2339 82.7472C65.4058 82.5547 65.5708 82.3623 65.722 82.1973Z" fill="#222222"/>
<path d="M68.0595 77.811C67.7776 78.3816 67.4407 78.9385 67.0558 79.4747C66.6708 80.0109 66.2377 80.5197 65.7564 81.0078C64.5052 82.2659 63.0341 83.2214 61.446 83.8745C59.8579 84.5276 58.1599 84.8714 56.4481 84.9057C54.7363 84.9401 53.0107 84.672 51.3746 84.0876C49.7384 83.5033 48.1916 82.6165 46.8304 81.4065C46.8304 81.4134 46.8304 81.4203 46.8304 81.4271C46.8304 81.4753 46.8166 81.5234 46.8098 81.5715C46.8098 81.5715 46.8098 81.5784 46.8098 81.5852C46.8029 81.6402 46.7891 81.6884 46.7823 81.7434V81.7571C46.7823 81.764 46.7823 81.7778 46.7754 81.7846C46.7685 81.819 46.7548 81.8602 46.7479 81.8946C46.7479 81.9015 46.7479 81.9153 46.7479 81.9221V81.9359C46.7341 81.984 46.7204 82.0321 46.7066 82.0734C48.0541 83.3177 49.594 84.2526 51.2164 84.8714C52.8458 85.4901 54.5644 85.7926 56.2694 85.7857C57.9743 85.7788 59.6655 85.4557 61.2466 84.8232C62.8278 84.1908 64.2921 83.2421 65.5502 81.984C65.8802 81.654 66.1895 81.3103 66.4714 80.9528C66.7533 80.5953 67.0145 80.231 67.2551 79.8528C67.4957 79.4747 67.7089 79.0897 67.9013 78.691C68.032 78.416 68.1557 78.141 68.2657 77.8592C68.3138 77.7354 68.3619 77.6048 68.4101 77.4811C68.4238 77.4329 68.4444 77.3779 68.4582 77.3298C68.5957 76.9104 68.7401 76.4017 68.8569 75.9961C68.8569 75.9892 68.8569 75.9824 68.8638 75.9755C68.8638 75.9618 68.8638 75.948 68.8707 75.9343C68.9257 75.6868 68.9875 75.4049 69.0425 75.123C68.9738 75.4324 68.8913 75.7349 68.7951 76.0374C68.6094 76.6355 68.3757 77.2267 68.087 77.7973L68.0595 77.811Z" fill="#222222"/>
<path d="M69.0081 75.1379C69.0631 74.8836 69.1113 74.6223 69.1525 74.368C69.1594 74.3199 69.1663 74.2718 69.1731 74.2236C69.1731 74.2374 69.1731 74.258 69.1663 74.2718C69.1181 74.533 69.0631 74.8355 69.0081 75.1379Z" fill="#222222"/>
<path d="M69.0769 68.3106C69.0494 68.125 69.0219 67.9462 69.0013 67.7812C69.0219 67.905 69.0356 68.0218 69.0494 68.1456C70.4587 79.3513 56.4824 86.4529 46.6998 79.317C46.6998 79.317 46.6998 79.3307 46.6998 79.3376C46.7135 79.4132 46.7273 79.4888 46.741 79.5644C46.741 79.5644 46.741 79.5645 46.741 79.5713C46.741 79.5782 46.741 79.592 46.741 79.5989C46.7548 79.6607 46.7616 79.7226 46.7685 79.7844C46.7685 79.7913 46.7685 79.8051 46.7685 79.812C46.7685 79.8257 46.7685 79.8326 46.7685 79.8463C46.7754 79.9013 46.7823 79.9563 46.7891 80.0044C46.7891 80.0182 46.7891 80.0319 46.7891 80.0457C46.7891 80.0457 46.7891 80.0526 46.7891 80.0594C46.796 80.1282 46.8029 80.1969 46.8098 80.2657C46.8098 80.2657 46.8098 80.2657 46.8098 80.2726C55.0594 86.9685 69.6475 82.1494 69.2831 70.1874L69.2694 70.0155C69.2213 69.5068 69.1319 68.8812 69.0494 68.3106H69.0769Z" fill="#222222"/>
<path d="M68.197 64.6189C68.1557 64.4814 68.1007 64.337 68.0526 64.1858C67.9082 63.7733 67.7432 63.3265 67.5989 62.9277C67.867 63.7183 68.0251 64.5433 68.0595 65.382C68.1076 66.3513 67.9976 67.3413 67.7432 68.3244C67.4889 69.3143 67.0833 70.2974 66.5195 71.2461C65.9627 72.2017 65.2477 73.1229 64.3884 73.9891C63.1303 75.254 61.666 76.2715 60.0986 77.0415C58.5311 77.8046 56.8537 78.3133 55.1763 78.5539C53.4989 78.7876 51.8146 78.7602 50.2265 78.437C48.6384 78.1208 47.1466 77.5158 45.8473 76.6152C45.8473 76.6152 45.8473 76.629 45.8542 76.6359C45.8886 76.7253 45.9229 76.8146 45.9573 76.904C45.9573 76.904 45.9573 76.9177 45.9642 76.9246C45.9642 76.9384 45.9711 76.9521 45.9779 76.959C46.0054 77.0346 46.0329 77.1102 46.0604 77.1858C46.0604 77.1996 46.0673 77.2065 46.0742 77.2202V77.234C46.1086 77.3233 46.136 77.4058 46.1635 77.4883C46.1635 77.4883 46.1635 77.5021 46.1704 77.5089C46.1704 77.5227 46.1773 77.5296 46.1842 77.5433C46.2117 77.6189 46.2323 77.6877 46.2598 77.7633C46.2598 77.7771 46.2667 77.784 46.2735 77.7977C47.6004 78.7739 49.1197 79.4476 50.7283 79.8326C52.337 80.2176 54.042 80.3069 55.74 80.1213C57.4381 79.9357 59.1224 79.4682 60.7035 78.7327C62.2847 77.9971 63.749 76.9934 65.0071 75.7284C65.8252 74.9103 66.4989 74.0372 67.0351 73.1229C67.5714 72.2154 67.977 71.2667 68.2382 70.318C68.4994 69.3625 68.6301 68.4 68.6232 67.4513C68.6163 66.5644 68.4926 65.6913 68.2451 64.8458C68.2245 64.7839 68.2107 64.722 68.1901 64.6601C68.1901 64.6464 68.1832 64.6326 68.1763 64.6189H68.197Z" fill="#222222"/>
<path d="M65.6534 58.6383C65.5709 58.4802 65.4884 58.3221 65.4128 58.1777C65.4403 58.2327 65.4609 58.2808 65.4884 58.3358C65.8184 59.0439 66.0178 59.8071 66.0934 60.6045C66.1827 61.5326 66.0934 62.5157 65.839 63.5125C65.5847 64.5093 65.1515 65.5268 64.5534 66.5305C63.9553 67.5342 63.1854 68.5241 62.2435 69.466C60.9855 70.7309 59.5349 71.7896 58.0019 72.6284C56.4619 73.4671 54.8395 74.0789 53.2171 74.4433C51.6015 74.8077 49.986 74.9314 48.4804 74.7801C46.9748 74.6358 45.5724 74.2164 44.3625 73.5152C44.3693 73.5289 44.3762 73.5427 44.3831 73.5564C44.4312 73.6458 44.4793 73.7283 44.5206 73.8177C44.5275 73.8314 44.5343 73.8452 44.5412 73.8589C44.5412 73.8589 44.5412 73.8727 44.5481 73.8727C44.6031 73.9689 44.6512 74.072 44.7062 74.1683C44.7062 74.1752 44.7131 74.182 44.7199 74.1958C44.7268 74.2095 44.7337 74.2233 44.7406 74.237C44.7818 74.3195 44.8299 74.4089 44.8712 74.4914C44.8712 74.5051 44.8849 74.512 44.8918 74.5258C44.8918 74.5258 44.8918 74.5326 44.8987 74.5395C44.9468 74.6358 44.9949 74.732 45.0431 74.8283C45.0431 74.8351 45.0499 74.842 45.0568 74.8558C46.308 75.6463 47.7517 76.1413 49.2985 76.3613C50.8453 76.5813 52.4884 76.5263 54.1383 76.2169C55.7882 75.9076 57.4313 75.337 58.9849 74.5327C60.5386 73.7283 61.9892 72.6834 63.2541 71.4184C64.1685 70.5041 64.9109 69.5348 65.4953 68.5517C66.0796 67.5617 66.4921 66.5511 66.7465 65.5543C67.0008 64.5506 67.0902 63.5606 67.0146 62.605C66.9527 61.787 66.7602 60.9964 66.4509 60.247C66.4165 60.1714 66.3821 60.0889 66.3477 60.0133C66.3271 59.972 66.3134 59.9308 66.2927 59.8895C66.114 59.5183 65.8803 59.0646 65.6603 58.6383H65.6534Z" fill="#222222"/>
<path d="M42.5063 70.4495C42.5063 70.4495 42.5269 70.4838 42.5407 70.4975C42.6163 70.6213 42.6988 70.7382 42.7744 70.8619C42.7744 70.8688 42.7813 70.8756 42.7881 70.8825C42.8019 70.91 42.8225 70.9376 42.8363 70.9582C42.8913 71.0475 42.9463 71.13 43.0013 71.2194C43.0219 71.2538 43.0425 71.2813 43.0631 71.3156C43.0906 71.3569 43.1181 71.405 43.1456 71.4463C43.1731 71.4875 43.2006 71.5356 43.2281 71.5769C44.3624 72.1543 45.6961 72.4568 47.1398 72.4912C48.5835 72.5325 50.1441 72.3125 51.7115 71.8656C53.2858 71.4188 54.8739 70.7382 56.3863 69.8513C57.8987 68.9645 59.3287 67.8783 60.5936 66.6134C61.5629 65.644 62.3604 64.6403 62.9791 63.6297C63.6047 62.626 64.0516 61.6155 64.3266 60.6461C64.6016 59.6699 64.6978 58.7281 64.6222 57.8481C64.5466 56.9682 64.2853 56.1569 63.8522 55.4351L62.8416 53.8333L62.7935 53.7577L62.6904 53.6064C62.6904 53.6064 62.7248 53.6546 62.7385 53.6821C63.1372 54.3214 63.371 55.057 63.4329 55.8544C63.5016 56.6863 63.3847 57.6006 63.096 58.5494C62.8073 59.4981 62.3398 60.4949 61.6936 61.4917C61.0542 62.4954 60.2361 63.506 59.253 64.4959C57.9881 65.7609 56.565 66.8677 55.0801 67.7889C53.5883 68.7101 52.0346 69.4388 50.4947 69.9476C48.9616 70.4563 47.4492 70.7451 46.0536 70.7863C44.6581 70.8276 43.3794 70.6144 42.3069 70.1263C42.3482 70.1951 42.3963 70.2569 42.4375 70.3257C42.465 70.3669 42.4857 70.4013 42.5132 70.4426L42.5063 70.4495Z" fill="#222222"/>
<path d="M40.0383 66.9355C40.0383 66.9355 40.0795 66.9836 40.0933 67.0111C40.162 67.1074 40.2376 67.2036 40.3064 67.2998C40.327 67.3342 40.3545 67.3617 40.3751 67.3961C40.4095 67.4442 40.4439 67.4923 40.4782 67.5404C40.5126 67.5886 40.547 67.6367 40.5814 67.6848C40.6295 67.7467 40.6707 67.8086 40.7189 67.8705C40.7532 67.9117 40.7807 67.9598 40.8151 68.0011C40.8289 68.0217 40.8426 68.0423 40.8564 68.056C41.8394 68.4135 43.0288 68.496 44.3487 68.3379C45.6686 68.1798 47.1055 67.7879 48.5766 67.1898C50.0547 66.5917 51.5603 65.7943 53.0177 64.8249C54.4751 63.8556 55.8776 62.7213 57.1425 61.4564C58.1462 60.4526 58.9849 59.4421 59.6518 58.4521C60.3186 57.4622 60.8205 56.4997 61.1436 55.5991C61.4667 54.6916 61.6179 53.8461 61.5836 53.083C61.5561 52.4024 61.3842 51.7905 61.068 51.2749C61.0267 51.2131 60.9923 51.1512 60.9511 51.0893L60.5386 50.5187L60.1674 50.0031L59.6243 49.2812C59.9886 49.7625 60.1605 50.3743 60.1605 51.0755C60.1605 51.7836 59.9818 52.588 59.6243 53.4542C59.2737 54.3273 58.7512 55.2622 58.0568 56.2316C57.3694 57.2078 56.51 58.2115 55.4995 59.229C54.2345 60.4939 52.8458 61.6488 51.409 62.6525C49.9791 63.6562 48.501 64.5087 47.078 65.1687C45.648 65.8286 44.2662 66.2961 43.0081 66.5368C41.7569 66.7774 40.6295 66.7842 39.722 66.5299C39.8183 66.6605 39.9145 66.7842 40.0108 66.9149C40.0108 66.9149 40.0176 66.9286 40.0245 66.9355H40.0383Z" fill="#222222"/>
<path d="M55.6026 48.3058C55.1694 49.0758 54.5713 49.942 53.8289 50.87C53.0864 51.7981 52.1927 52.7881 51.1615 53.8193C49.8966 55.0843 48.5422 56.2873 47.181 57.3804C45.8199 58.4735 44.4449 59.4497 43.1387 60.2678C41.8325 61.0859 40.602 61.739 39.5089 62.1858C38.4227 62.6327 37.474 62.8664 36.759 62.8458C36.759 62.8458 36.7659 62.8526 36.7728 62.8595C36.7934 62.8801 36.8071 62.9008 36.8278 62.9283C36.9171 63.0314 36.9996 63.1345 37.089 63.2376C37.1165 63.2651 37.1371 63.2995 37.1646 63.327C37.2059 63.3751 37.2471 63.4233 37.2815 63.4714C37.3227 63.5195 37.364 63.5745 37.4052 63.6226C37.4602 63.6845 37.5083 63.7464 37.5633 63.8151C37.5977 63.8564 37.639 63.9045 37.6733 63.9457C37.694 63.9664 37.7077 63.987 37.7283 64.0076C37.8315 64.1382 37.9415 64.2689 38.0446 64.3926C38.8489 64.5163 39.8664 64.3719 41.0282 64.0145C42.19 63.657 43.4893 63.0795 44.8505 62.3302C46.2117 61.5809 47.6279 60.6527 49.0166 59.6009C50.4122 58.5491 51.7802 57.3666 53.0452 56.1017C54.0695 55.0773 54.9495 54.0737 55.6713 53.125C56.3931 52.1763 56.9569 51.2826 57.3556 50.4645C57.7543 49.6532 57.9812 48.9176 58.0431 48.292C58.0981 47.7077 57.9949 47.2196 57.7337 46.8484C57.72 46.8277 57.6993 46.8002 57.6787 46.7796L57.4175 46.4565L57.2112 46.2021L56.2006 44.9922C56.4481 45.2878 56.5169 45.7347 56.4138 46.2915C56.3106 46.8552 56.0357 47.529 55.6026 48.3058Z" fill="#222222"/>
<path d="M33.7892 59.4973C33.8442 59.5592 33.8992 59.6211 33.9542 59.6761C33.9955 59.7242 34.0367 59.7654 34.0848 59.8136C34.1054 59.8342 34.1261 59.8617 34.1467 59.8823C34.2636 60.0129 34.3804 60.1436 34.5042 60.2673C34.5179 60.2811 34.5248 60.2879 34.5386 60.3017C34.6417 60.4186 34.7517 60.5354 34.8548 60.6523C35.4529 60.5354 36.2778 60.1642 37.2609 59.6005C38.244 59.0367 39.3852 58.2736 40.6089 57.3593C41.8326 56.4518 43.1457 55.4 44.4656 54.2588C45.7856 53.1176 47.1124 51.887 48.3842 50.6221C49.4223 49.584 50.3366 48.6078 51.1134 47.7072C51.8903 46.8067 52.5296 45.9954 53.0177 45.2873C53.5058 44.5792 53.8427 43.9743 54.0146 43.4999C54.1864 43.0256 54.1933 42.6818 54.0283 42.4962L53.9596 42.4206L52.8046 41.1625L52.4196 40.7432C52.4196 40.7432 52.4265 40.7569 52.4334 40.7638C52.5159 40.8875 52.4403 41.1488 52.2271 41.5406C52.0003 41.9531 51.6084 42.4962 51.0791 43.1631C50.5497 43.8299 49.876 44.6068 49.0717 45.4798C48.886 45.6792 48.7004 45.8854 48.5011 46.0917C47.8411 46.7998 47.1055 47.556 46.3012 48.3603C45.8612 48.8003 45.4143 49.2403 44.9606 49.6734C44.1219 50.4846 43.2694 51.289 42.4307 52.052C42.1488 52.3064 41.8739 52.5608 41.5989 52.8082C41.5576 52.8495 41.5095 52.8907 41.4682 52.932C41.097 53.262 40.7327 53.5851 40.3683 53.9013C39.8046 54.3963 39.2546 54.8707 38.7184 55.3106C38.5396 55.4619 38.3678 55.5994 38.1959 55.7438C37.9209 55.9706 37.6528 56.1837 37.3916 56.39C36.7385 56.9125 36.1266 57.3799 35.5766 57.7718C35.1916 58.0537 34.841 58.2874 34.5179 58.4936C34.0848 58.7686 33.7136 58.9818 33.4249 59.1055C33.4523 59.133 33.4798 59.1605 33.5073 59.1948C33.5555 59.243 33.5967 59.2911 33.6448 59.3392C33.693 59.3942 33.7411 59.4423 33.7892 59.4973Z" fill="#222222"/>
<path d="M30.1455 55.7712C30.1455 55.7712 30.1936 55.8193 30.2211 55.84C30.3517 55.9637 30.4755 56.0874 30.6061 56.2181H30.613C30.6886 56.3006 30.7642 56.3762 30.833 56.4518C30.8811 56.4999 30.9292 56.548 30.9842 56.5962C31.0117 56.6237 31.0323 56.6443 31.0598 56.6718C31.1079 56.7199 31.1492 56.7612 31.1973 56.8093L31.3623 56.9743C34.3322 54.1625 49.1678 39.4232 50.0821 38.3301L50.0477 38.2957C49.5871 37.8282 49.0715 37.3195 48.659 36.9139C48.6178 36.8727 48.5697 36.8245 48.5215 36.7833C48.4872 36.7489 48.4459 36.7145 48.4116 36.6733L48.3634 36.6252C48.2947 36.5702 48.0609 36.6802 47.6966 36.9345C47.3254 37.1958 46.8097 37.6151 46.1704 38.172C45.5311 38.7288 44.7748 39.4232 43.9155 40.2344C43.0562 41.0456 42.0937 41.9874 41.0556 43.0255C39.7907 44.2905 38.5257 45.5898 37.3227 46.8547C36.1196 48.1197 34.9853 49.3434 33.9678 50.4708C32.9504 51.5983 32.0635 52.6226 31.3554 53.4751C30.6473 54.3275 30.1317 55.015 29.8499 55.4687C29.9117 55.5237 29.9667 55.5856 30.0286 55.6406C30.0767 55.6818 30.118 55.7299 30.1661 55.7712H30.1455Z" fill="#222222"/>
<path d="M31.0392 47.7417C31.9604 46.5317 33.026 45.2324 34.1741 43.9193C34.4353 43.6237 34.7034 43.3212 34.9715 43.0256C35.6796 42.2419 36.4221 41.4582 37.1714 40.6882C37.3914 40.4613 37.6114 40.2414 37.8314 40.0214C38.8695 38.9833 39.8457 38.0689 40.7394 37.2921C41.1038 36.9759 41.4544 36.6803 41.7912 36.4122C42.2793 36.0203 42.7331 35.6697 43.1455 35.3741C43.3724 35.2091 43.5855 35.0716 43.7918 34.941C44.2111 34.6729 44.5892 34.4735 44.8986 34.3498C45.2355 34.2123 45.5036 34.171 45.6961 34.2191C45.6961 34.2191 45.7029 34.2191 45.7098 34.2191C45.7648 34.2329 45.8061 34.2604 45.8473 34.2879C45.8542 34.2879 45.8679 34.2948 45.8748 34.3016L44.7199 33.2704L44.4036 32.9885L44.053 32.6792C44.053 32.6792 44.0118 32.6448 43.9911 32.6311C43.7368 32.4523 43.3518 32.4248 42.8637 32.5486C42.3343 32.6792 41.6881 32.9748 40.9388 33.4285C40.1894 33.8823 39.3438 34.4941 38.4295 35.2503C37.5152 36.0066 36.5252 36.9071 35.4871 37.9383C34.2222 39.2033 33.0054 40.5438 31.8917 41.8913C30.778 43.2387 29.7674 44.5793 28.9149 45.858C28.0625 47.1298 27.3612 48.326 26.8663 49.3778C26.3713 50.4228 26.0825 51.3234 26.0482 51.9971C26.1719 52.1071 26.3025 52.2171 26.4263 52.3271C26.4332 52.3271 26.44 52.3408 26.4469 52.3477C26.4469 52.3477 26.4538 52.3546 26.4607 52.3615C26.5913 52.4783 26.7219 52.5883 26.8456 52.7052C26.8731 52.7258 26.8938 52.7464 26.9213 52.7739C26.9694 52.8152 27.0175 52.8633 27.0656 52.9046C27.1275 52.9596 27.1894 53.0145 27.2444 53.0695C27.2994 53.1177 27.3544 53.1727 27.4094 53.2208C27.4575 53.2621 27.5056 53.3101 27.5537 53.3514C27.5812 53.3789 27.6087 53.3995 27.6362 53.427C27.6843 53.2139 27.7806 52.9596 27.8975 52.6846C28.0968 52.2171 28.3718 51.674 28.7431 51.0621C28.7912 50.9865 28.8462 50.8971 28.8943 50.8215C29.2793 50.1959 29.733 49.5222 30.2555 48.7935C30.503 48.4566 30.7573 48.106 31.0255 47.7554L31.0392 47.7417Z" fill="#222222"/>
<path d="M32.1667 35.1341C33.191 34.1098 34.1947 33.2367 35.1434 32.5148C36.0921 31.793 36.9858 31.2293 37.797 30.8306C38.6083 30.4319 39.337 30.1981 39.9557 30.1362C40.5469 30.0812 41.035 30.1843 41.3994 30.4524C41.4131 30.4662 41.4338 30.48 41.4475 30.4868L41.3238 30.3837L39.6876 29.0844L39.5501 28.9744C39.5501 28.9744 39.4882 28.9331 39.4607 28.9125C39.0276 28.61 38.4776 28.4725 37.8383 28.4863C37.1577 28.5 36.374 28.6925 35.5215 29.0569C34.6691 29.4213 33.741 29.9575 32.7716 30.6518C31.8023 31.3462 30.7986 32.2124 29.7743 33.223C28.5093 34.4879 27.3406 35.8697 26.3232 37.2859C25.3057 38.7021 24.4258 40.1595 23.7383 41.5689C23.0508 42.9782 22.5421 44.3325 22.2671 45.5631C21.9921 46.7867 21.9371 47.8867 22.1571 48.7598C22.2946 48.8629 22.4321 48.9729 22.5696 49.0829C22.5971 49.1035 22.6177 49.1242 22.6452 49.1379C22.6933 49.1792 22.7415 49.2135 22.7896 49.2548C22.8514 49.3029 22.9202 49.3579 22.9821 49.406C23.0371 49.4472 23.0921 49.4954 23.1471 49.5366C23.1952 49.5779 23.2502 49.6191 23.2983 49.6603C23.3258 49.6878 23.3602 49.7085 23.3877 49.736C23.4977 49.8254 23.6145 49.9216 23.7245 50.011C23.7452 50.0247 23.7658 50.0453 23.7864 50.0591C23.7864 50.0591 23.7933 50.0591 23.8002 50.066C23.6902 49.2685 23.8414 48.2579 24.2058 47.103C24.577 45.948 25.1613 44.6556 25.9176 43.3013C26.6738 41.9469 27.6087 40.5376 28.6674 39.1489C29.7261 37.7603 30.9155 36.3922 32.1804 35.1273L32.1667 35.1341Z" fill="#222222"/>
<path d="M26.4401 30.7473C27.4369 29.7573 28.4406 28.9254 29.4237 28.2586C30.4068 27.5986 31.3623 27.0968 32.2629 26.7737C33.1635 26.4506 34.016 26.2993 34.7791 26.32C35.5422 26.3475 36.2227 26.5468 36.7865 26.9318L35.2809 25.8937L34.8341 25.5844C34.7859 25.55 34.7309 25.5225 34.6759 25.495C34.6759 25.495 34.6622 25.4881 34.6553 25.4881C34.0572 25.1581 33.3766 24.9725 32.6342 24.9313C31.8161 24.89 30.9292 25.0206 30.0011 25.3162C29.0731 25.6187 28.0969 26.0931 27.1138 26.7324C26.1307 27.3718 25.1339 28.183 24.1508 29.1523C22.8858 30.4104 21.7653 31.8335 20.8372 33.3115C19.9091 34.7965 19.1597 36.3433 18.6304 37.8626C18.101 39.3819 17.7917 40.8806 17.7229 42.2624C17.6611 43.6442 17.8398 44.9022 18.3004 45.9609C18.3417 45.9884 18.376 46.016 18.4173 46.0366C18.486 46.0847 18.5548 46.1328 18.6235 46.1741C18.6441 46.1878 18.6648 46.2016 18.6854 46.2153C18.7198 46.2428 18.761 46.2635 18.7954 46.291C18.8641 46.3391 18.9329 46.3872 19.0016 46.4353C19.0291 46.449 19.0498 46.4697 19.0704 46.4834C19.1047 46.504 19.1391 46.5316 19.1735 46.5522C19.2422 46.6003 19.311 46.6484 19.3797 46.6965C19.4072 46.7172 19.4347 46.7378 19.4622 46.7515C19.4966 46.7722 19.5241 46.7928 19.5585 46.8203C19.6272 46.8684 19.696 46.9165 19.7647 46.9715C19.7991 46.9922 19.8266 47.0128 19.8541 47.0403C19.4897 46.0503 19.4072 44.8541 19.5585 43.5342C19.7097 42.2143 20.1016 40.7706 20.6928 39.2925C21.284 37.8145 22.0884 36.302 23.0508 34.8446C24.0202 33.3871 25.1545 31.9847 26.4194 30.7197L26.4401 30.7473Z" fill="#222222"/>
<path d="M14.9593 43.8786C15.0211 43.9129 15.0899 43.9542 15.1518 43.9885C15.1655 43.9885 15.1724 44.0023 15.1861 44.0092C15.2205 44.0298 15.2618 44.0504 15.303 44.0779C15.3649 44.1123 15.4268 44.1535 15.4955 44.1879C15.5093 44.1948 15.523 44.2017 15.5368 44.2154C15.5711 44.236 15.6124 44.2567 15.6467 44.2773C15.7086 44.3117 15.7705 44.3529 15.8392 44.3873C15.8599 44.401 15.8736 44.4079 15.8942 44.4216C15.9286 44.4423 15.963 44.4629 15.9974 44.4835C16.0592 44.5248 16.1211 44.5591 16.1898 44.6004C16.2105 44.6141 16.2311 44.6279 16.2517 44.6416C15.6605 43.5004 15.3511 42.153 15.303 40.7024C15.2549 39.2519 15.4611 37.6845 15.9011 36.1102C16.3411 34.5358 17.0148 32.9409 17.9016 31.4285C18.7816 29.9161 19.8678 28.4792 21.1396 27.2212C22.0883 26.2725 23.0783 25.4956 24.0614 24.8838C25.0513 24.2719 26.0413 23.825 27.0037 23.5432C27.9662 23.2682 28.9012 23.1582 29.7742 23.2201C30.6405 23.282 31.4517 23.5088 32.1804 23.9076C32.1804 23.9076 32.1941 23.9076 32.201 23.9144L32.1598 23.8938L30.4686 22.9176L30.3517 22.8488C30.3517 22.8488 30.3174 22.8351 30.3036 22.8282C29.5336 22.4432 28.688 22.2164 27.7943 22.1545C26.88 22.0858 25.9244 22.1889 24.9413 22.4501C23.9651 22.7182 22.9683 23.1445 21.9783 23.7426C20.9953 24.3407 20.0191 25.1037 19.0841 26.0249C17.8192 27.283 16.7467 28.7267 15.9011 30.2598C15.0555 31.7928 14.4231 33.4084 14.0449 35.0239C13.66 36.6326 13.5225 38.2344 13.6531 39.7331C13.7837 41.2318 14.1756 42.6273 14.8562 43.8167C14.8974 43.8373 14.9318 43.8579 14.973 43.8854L14.9593 43.8786Z" fill="#222222"/>
<path d="M27.7806 21.5287L26.4401 20.9237L26.0757 20.7725C25.9726 20.7313 25.8695 20.69 25.7663 20.6556C24.9757 20.3669 24.137 20.195 23.2846 20.14C22.3152 20.085 21.3184 20.1813 20.3285 20.4288C19.3316 20.6831 18.3417 21.0887 17.3723 21.6524C16.4099 22.2162 15.468 22.9311 14.5881 23.8042C13.3231 25.0623 12.2919 26.5197 11.522 28.0871C10.7451 29.6546 10.2226 31.3183 9.96828 32.9957C9.71392 34.6662 9.72767 36.3437 10.0233 37.9249C10.3189 39.5061 10.9032 40.991 11.7763 42.2834C11.797 42.2903 11.8245 42.304 11.8451 42.3109C11.9207 42.3453 11.9894 42.3728 12.0651 42.4072C12.0651 42.4072 12.0719 42.4072 12.0788 42.4072C12.1132 42.4209 12.1476 42.4347 12.1751 42.4484C12.2369 42.4759 12.2988 42.5034 12.3607 42.5309C12.3607 42.5309 12.3744 42.5309 12.3813 42.5378C12.4157 42.5515 12.45 42.5722 12.4844 42.5859C12.5463 42.6134 12.6013 42.6409 12.6632 42.6684C12.67 42.6684 12.6838 42.6753 12.6907 42.6822C12.725 42.6959 12.7594 42.7165 12.7938 42.7303C12.8488 42.7578 12.9107 42.7853 12.9657 42.8128C12.9794 42.8128 12.9931 42.8265 13 42.8334C12.2026 41.5753 11.6938 40.1247 11.467 38.5779C11.2401 37.0243 11.2882 35.3743 11.5907 33.7244C11.8932 32.0745 12.4638 30.4246 13.2681 28.8709C14.0725 27.3172 15.1174 25.8666 16.3824 24.6086C17.2898 23.708 18.2454 22.9724 19.2216 22.3949C20.1978 21.8174 21.2015 21.405 22.1984 21.1506C23.1952 20.8962 24.1783 20.8 25.1339 20.8687C26.0688 20.9375 26.9625 21.1575 27.8012 21.5356C27.815 21.5425 27.8356 21.5493 27.8494 21.5562L27.7806 21.5287Z" fill="#222222"/>
<path d="M23.2777 19.7552C22.7552 19.5971 22.0746 19.4183 21.5109 19.274C21.449 19.2602 21.3872 19.2396 21.3253 19.2259C21.2772 19.2121 21.2222 19.1984 21.1672 19.1915C20.8991 19.1365 20.5828 19.0815 20.3353 19.0471C10.3395 17.7547 1.86303 31.1053 9.15709 41.383C9.15709 41.383 9.16396 41.383 9.17084 41.383C9.22583 41.3967 9.28083 41.4105 9.33583 41.4242C9.35645 41.4242 9.38395 41.438 9.40458 41.4449C9.48707 41.4655 9.56957 41.493 9.65206 41.5136C9.65894 41.5136 9.66581 41.5136 9.67956 41.5205C9.75519 41.5411 9.83081 41.5617 9.90643 41.5892C9.90643 41.5892 9.90643 41.5892 9.9133 41.5892C9.9408 41.5961 9.9683 41.6099 9.9958 41.6167C10.0508 41.6374 10.1058 41.6511 10.1677 41.6717C10.1677 41.6717 10.1745 41.6717 10.1814 41.6717C10.037 41.4586 9.83768 41.1836 9.70019 40.9636C4.04231 31.8959 11.742 16.8335 23.264 19.7415L23.2777 19.7552Z" fill="#222222"/>
<path d="M7.68596 22.1821C6.42101 23.4333 5.45855 24.9045 4.79858 26.4925C4.13861 28.0806 3.77425 29.7786 3.71926 31.4973C3.66426 33.2091 3.91175 34.9415 4.4686 36.5777C5.02545 38.2208 5.89166 39.7676 7.06723 41.1288C7.06723 41.1288 7.08098 41.1288 7.08786 41.1288C7.12223 41.1288 7.16348 41.1288 7.19785 41.1288C7.21848 41.1288 7.2391 41.1288 7.25973 41.1288H7.27347C7.31472 41.1288 7.3491 41.1288 7.39034 41.1288C7.41097 41.1288 7.43847 41.1288 7.45909 41.1288C7.45909 41.1288 7.46597 41.1288 7.47284 41.1288C7.51409 41.1288 7.56221 41.1288 7.60346 41.1356C7.62408 41.1356 7.64471 41.1356 7.66533 41.1356C7.7272 41.1356 7.78908 41.1425 7.84407 41.1494C7.85095 41.1494 7.85782 41.1494 7.87157 41.1494C1.22374 32.831 6.11853 18.2567 18.0805 18.7035C18.0874 18.7035 18.0942 18.7035 18.1011 18.7035H18.0255L17.4618 18.6623H17.4412C17.4412 18.6623 17.4343 18.6623 17.4274 18.6623C16.8431 18.6416 16.0662 18.6554 15.475 18.6623C14.7738 18.7035 14.0794 18.7998 13.392 18.9647C12.7045 19.1297 12.0239 19.3566 11.3639 19.6522C10.7039 19.9478 10.0646 20.2984 9.44588 20.7247C8.83403 21.144 8.24281 21.6321 7.68596 22.1821Z" fill="#222222"/>
<path d="M1.65684 32.0124C1.66371 33.7105 1.98682 35.4154 2.62617 37.0309C3.26552 38.6465 4.2211 40.1727 5.49979 41.5064C5.50667 41.5064 5.51354 41.4995 5.52042 41.4926C5.54104 41.4789 5.56854 41.4651 5.58916 41.4582C5.60291 41.4582 5.61666 41.4445 5.63041 41.4376C5.63041 41.4376 5.64416 41.4376 5.65104 41.4308C5.67853 41.417 5.69916 41.4101 5.72666 41.3964C5.74041 41.3964 5.75416 41.3826 5.76791 41.3758C5.76791 41.3758 5.78165 41.3758 5.78853 41.3758C5.81603 41.362 5.84353 41.3551 5.87103 41.3483C5.88477 41.3483 5.9054 41.3345 5.91915 41.3276C5.91915 41.3276 5.92602 41.3276 5.9329 41.3276C5.9604 41.3208 5.99477 41.307 6.02227 41.3001C6.04289 41.3001 6.05664 41.2864 6.07727 41.2864C-0.460571 33.683 2.13806 22.6628 11.2195 19.4317C11.2333 19.4317 11.2402 19.4248 11.2539 19.418C11.2402 19.418 11.2195 19.4317 11.1989 19.4386C10.5458 19.6655 9.70023 19.9955 9.07463 20.2636C8.72402 20.4286 8.27717 20.6829 7.92656 20.8685C7.91969 20.8685 7.90594 20.8754 7.89906 20.8823C7.89906 20.8823 7.88531 20.8892 7.87844 20.896C7.66532 21.0198 7.45221 21.1573 7.23909 21.2948C7.02598 21.4392 6.81286 21.5904 6.59974 21.7485C6.3935 21.9066 6.18726 22.0716 5.9879 22.2503C5.78853 22.4222 5.58916 22.6079 5.40355 22.8003C4.14548 24.0515 3.19677 25.5158 2.57117 27.0833C1.94557 28.6576 1.63621 30.3419 1.64309 32.0399L1.65684 32.0124Z" fill="#222222"/>
<path d="M2.00053 39.2303C2.65363 40.4197 3.50609 41.5334 4.55105 42.5371C4.55105 42.5302 4.55792 42.5233 4.56479 42.5165C4.57854 42.4821 4.59917 42.4477 4.61292 42.4202C4.61292 42.4202 4.61292 42.4064 4.61979 42.3996C4.61979 42.3996 4.62667 42.3858 4.63354 42.379C4.64729 42.3515 4.66792 42.3171 4.68854 42.2896C4.68854 42.2827 4.69541 42.2758 4.70229 42.2689C4.70229 42.2689 4.70229 42.269 4.70229 42.2621C4.72979 42.2208 4.75041 42.1865 4.77791 42.1521C4.77791 42.1521 4.78479 42.1452 4.79166 42.1383C4.81228 42.1108 4.83978 42.0765 4.86041 42.049C4.86041 42.049 4.86728 42.0421 4.87416 42.0352C0.0137449 36.9204 -0.494982 30.0801 3.57484 24.5872C3.58859 24.5666 3.60234 24.546 3.61609 24.5322L3.51984 24.656L3.08673 25.2266L3.01799 25.316C2.98361 25.3641 2.95612 25.4053 2.92862 25.4466C2.69488 25.7766 2.56426 25.9759 2.38552 26.2715C2.2274 26.5465 2.02803 26.904 1.69117 27.5433C1.69117 27.5433 1.69117 27.5571 1.6843 27.564L1.66367 27.6052L1.53305 27.8802C0.983078 29.0695 0.632468 30.3345 0.488099 31.62C0.343731 32.9056 0.398728 34.2187 0.646217 35.5043C0.900581 36.7898 1.35431 38.0479 2.00741 39.2372L2.00053 39.2303Z" fill="#222222"/>
<path d="M4.24856 44.2085C4.24856 44.2085 4.24856 44.1879 4.24856 44.181C4.24856 44.1329 4.24856 44.0848 4.24856 44.0367C4.24856 44.0229 4.24856 44.016 4.24856 44.0023C4.24856 44.0023 4.24856 43.9954 4.24856 43.9885C4.24856 43.9267 4.24856 43.8717 4.24856 43.8098C4.24856 43.8098 4.24856 43.8098 4.24856 43.8029C4.24856 43.7961 4.24856 43.7823 4.24856 43.7754C4.24856 43.7273 4.24856 43.6861 4.26231 43.6379C4.26231 43.6311 4.26231 43.6173 4.26231 43.6104C4.26231 43.6035 4.26231 43.5898 4.26231 43.5829C4.26231 43.5417 4.26919 43.5004 4.27606 43.4592C4.27606 43.4455 4.27606 43.4386 4.27606 43.4248C3.45797 42.6892 2.75675 41.8849 2.1724 41.0255C1.58806 40.1662 1.12745 39.2587 0.783715 38.3169C0.439981 37.3751 0.213116 36.4126 0.109995 35.4364C0.0137494 34.5496 0.0206241 33.6559 0.123745 32.7759C0.137494 32.6865 0.144369 32.5972 0.158118 32.5078L0.130619 32.714C0.0756217 33.1746 0.0412482 33.3946 0.0274988 33.7521C0.0137494 34.034 0.0068747 34.4052 0 35.0446C0 35.1614 0 35.2852 0 35.4227C0 35.7389 0.0206241 36.0414 0.0481229 36.3439C0.439981 40.6543 3.27236 43.2942 4.24856 44.2016V44.2085Z" fill="#222222"/>
<path d="M0.357484 38.7773C0.357484 38.7773 0.357484 38.798 0.357484 38.8117C0.398732 39.0592 0.453729 39.3067 0.515602 39.5473C0.529351 39.6023 0.5431 39.6504 0.55685 39.7054C0.481228 39.3823 0.412481 39.0592 0.350609 38.7773H0.357484Z" fill="#222222"/>
<path d="M2.28244 44.0499C2.5918 44.5037 2.94241 44.9368 3.33427 45.3493C3.72613 45.7617 4.15923 46.1536 4.63359 46.5111C4.61296 46.4286 4.58546 46.3461 4.56484 46.2705C4.56484 46.2636 4.56484 46.2567 4.56484 46.243C4.56484 46.2292 4.55797 46.2086 4.55109 46.1948C4.53734 46.1398 4.52359 46.0848 4.50984 46.023C4.50984 46.0092 4.50297 45.9955 4.49609 45.9817C4.49609 45.968 4.49609 45.9611 4.48922 45.9474C4.47547 45.8855 4.46172 45.8236 4.44797 45.7686C4.44797 45.7549 4.44797 45.7411 4.4411 45.7274C4.4411 45.7274 4.4411 45.7205 4.4411 45.7136C4.42735 45.638 4.40672 45.5624 4.39297 45.4936C4.39297 45.4936 4.39297 45.4868 4.39297 45.4799C3.82925 45.0262 3.3274 44.5381 2.87367 44.0225C2.42681 43.5069 2.02808 42.9569 1.69122 42.3932C1.35436 41.8226 1.07249 41.2382 0.852504 40.6264C0.742509 40.3239 0.639389 40.0145 0.556892 39.6982C0.673762 40.2001 0.804381 40.7157 0.907502 41.142C0.921251 41.1901 0.935001 41.2313 0.94875 41.2794C0.955625 41.3069 0.9625 41.3276 0.969374 41.3551C1.10687 41.7882 1.27186 42.2213 1.46435 42.6338C1.69122 43.115 1.95933 43.5893 2.27557 44.0431L2.28244 44.0499Z" fill="#222222"/>
</svg>
