<svg  viewBox="0 0 88 88" fill="none" xmlns="http://www.w3.org/2000/svg">
<path d="M52.9404 1.62109C53.1433 1.64208 53.3462 1.67007 53.5491 1.69106C53.3462 1.66307 53.1433 1.64208 52.9404 1.62109Z" fill="currentColor"/>
<path d="M65.6738 5.73229L64.5613 5.13113C64.5264 5.11715 64.4984 5.09618 64.4634 5.0822C64.3444 5.01929 64.2325 4.96337 64.1136 4.90745C64.1905 4.9424 64.2675 4.97735 64.3444 5.01929C64.1695 4.92842 63.9946 4.83754 63.8127 4.73968L63.0291 4.38318C63.0991 4.41813 63.169 4.45308 63.232 4.48104C62.2805 4.04066 61.301 3.64222 60.3005 3.28572C56.0256 2.27912 51.6108 1.85971 44.0195 1.73389C58.0896 2.42592 62.9242 4.43211 64.5473 5.12414C64.9252 5.31987 65.296 5.5156 65.6668 5.7253L65.6738 5.73229Z" fill="currentColor"/>
<path d="M54.4725 1.27932C53.9268 1.1465 53.3671 1.01369 52.8983 0.908835L52.6044 0.845923C50.9812 0.594275 47.7628 1.09757 44.0337 1.73368C44.3555 1.69174 44.6774 1.6498 44.9922 1.61485C51.1702 0.908835 52.9543 1.02767 54.4725 1.27233V1.27932Z" fill="currentColor"/>
<path d="M49.9176 0.406021C49.4279 0.343109 48.8262 0.273207 48.3574 0.217285C48.3504 0.217285 48.3434 0.217285 48.3364 0.217285C48.2454 0.238256 48.2314 0.245246 44.0405 1.74115C48.9171 0.447962 49.3999 0.433982 50.0505 0.420001C50.0086 0.420001 49.9666 0.406021 49.9246 0.406021H49.9176Z" fill="currentColor"/>
<path d="M29.1036 85.4206C29.2085 85.4556 29.3204 85.4975 29.4324 85.5325C30.216 85.7981 31.1815 86.0987 31.9302 86.3294C32.6998 86.5531 33.7423 86.7977 34.5189 86.9795C24.3599 84.4979 15.6982 78.9407 8.76465 70.4546L10.7167 72.8592C10.9616 73.1318 11.1785 73.3765 11.3744 73.6002C12.095 74.3481 12.9486 75.2219 13.8231 76.0538C14.3619 76.5431 15.0335 77.1372 15.9571 77.9551C16.4328 78.3396 16.9926 78.766 17.5663 79.1854C22.4918 82.8133 25.8572 84.1484 29.1036 85.4206Z" fill="currentColor"/>
<path d="M46.2376 0.118834C46.1746 0.0978631 46.0907 0.062912 46.0207 0.0419413C46.0207 0.0419413 46.0137 0.0419413 46.0067 0.0419413C45.5519 0.0209707 45.2721 0.0139804 45.2441 0.0139804C44.9852 0.0139804 44.6634 0 44.3905 0C44.9083 0.0209707 44.9222 0.0349511 45.1531 0.342521C45.0552 0.696692 44.682 1.16271 44.0337 1.74056C46.1047 0.594169 46.1676 0.370482 46.2446 0.118834H46.2376Z" fill="currentColor"/>
<path d="M2.96433 60.1159C11.0383 79.1573 31.2513 86.4481 38.3948 87.6504C38.4297 87.6504 38.4647 87.6574 38.4997 87.6644C38.8775 87.7133 39.3533 87.7623 39.7101 87.7972L40.4587 87.8601C40.4587 87.8601 40.4867 87.8601 40.5007 87.8601C36.2888 87.4687 7.30918 78.9336 0.79541 52.6504C0.865375 53.0418 0.935341 53.4193 1.00531 53.7758C1.48807 55.6073 2.2297 58.0049 2.85939 59.8293C2.89437 59.9272 2.92935 60.0111 2.96433 60.109V60.1159Z" fill="currentColor"/>
<path d="M42.8025 0.342572C43.803 0.720043 43.852 0.93674 44.0339 1.74062C44.7685 0.104904 43.2503 0.0699531 41.9069 0.0419922C41.4382 0.0699531 40.8155 0.111894 40.3467 0.139855L39.8989 0.181797C40.5846 0.132865 42.0119 0.0419922 42.8025 0.335581V0.342572Z" fill="currentColor"/>
<path d="M43.0404 87.9926C43.2083 87.9926 43.3762 87.9996 43.5441 87.9996H43.6141C43.6141 87.9996 43.6701 87.9996 43.698 87.9996C43.8869 87.9996 44.0759 87.9996 44.2648 87.9996C44.4257 87.9996 44.5866 87.9996 44.7265 87.9996C44.7335 87.9996 44.7405 87.9996 44.7545 87.9996C41.4172 87.9436 -6.43208 69.825 1.29909 33.0215C1.29909 33.0215 1.29909 33.0215 1.29909 33.0285C1.03322 34.063 0.774347 35.4611 0.550458 36.5096C0.333566 37.8447 0.158652 39.6482 0.0117253 40.9973C-0.778882 74.0121 38.6605 87.5732 43.0404 87.9996V87.9926Z" fill="currentColor"/>
<path d="M35.8271 0.769007C35.7361 0.789978 35.6452 0.803958 35.5542 0.824929C40.9345 -0.0977804 43.1874 1.23036 44.034 1.74065C42.5087 0.0629946 39.8571 0.0979458 35.8271 0.769007Z" fill="currentColor"/>
<path d="M5.59511 22.3819C-13.8412 59.8146 40.5987 86.2516 47.1125 87.8943C47.1545 87.8943 47.2035 87.8943 47.2454 87.8873L47.5323 87.8663C47.5743 87.8663 47.6232 87.8593 47.6722 87.8524C48.0081 87.8244 48.3999 87.7825 48.7357 87.7475C48.7777 87.7475 48.8197 87.7405 48.8616 87.7335C41.1515 81.8757 31.7691 78.6882 24.3318 72.39C20.6936 69.3073 12.1718 62.0864 7.19032 52.4329C-2.77274 33.1189 6.09886 20.8022 10.4437 15.4966C10.2898 15.6713 10.1429 15.8461 9.99593 16.0208L9.26129 16.8946C8.10686 18.4814 6.65858 20.6414 5.6231 22.319C5.6091 22.34 5.60211 22.361 5.58811 22.3819H5.59511Z" fill="currentColor"/>
<path d="M33.8399 1.18866C33.8399 1.18866 33.8958 1.17468 33.9168 1.16769C33.8469 1.18167 33.7699 1.19565 33.7069 1.21662C33.2242 1.32147 32.5875 1.49623 32.1047 1.62904C31.1182 1.90166 29.8099 2.30709 28.8583 2.66359C28.2706 2.88728 27.494 3.18087 26.9133 3.42553C26.2206 3.71912 25.3111 4.14552 24.6324 4.46008C23.9328 4.78862 23.0232 5.26396 22.3656 5.65541C21.5819 6.10977 20.6234 6.70394 19.7628 7.25617C10.9682 13.3027 4.02066 23.0051 4.97918 33.9518C7.24606 59.7597 36.5055 77.4659 47.5181 84.1346C50.0601 85.6725 51.4058 86.742 51.5551 87.3431C51.5551 87.3431 51.604 87.3361 51.625 87.3291C52.2267 87.2173 52.9894 87.0565 53.5911 86.9307C53.612 86.9307 53.633 86.9237 53.654 86.9167C53.8709 86.8468 54.0248 86.5323 54.1718 86.3645C53.675 85.3998 52.6885 84.7078 47.3921 81.2407C33.7629 72.3211 20.0497 62.0665 12.0527 47.5268C-6.00537 14.7147 29.0262 -2.25752 44.0338 1.74088C41.1232 0.615459 37.583 0.489635 33.8399 1.18866Z" fill="currentColor"/>
<path d="M49.0714 77.5707C57.3623 83.4215 59.3423 84.8195 56.7186 86.1127C56.7466 86.1057 56.7746 86.0987 56.8026 86.0848C57.2014 85.9589 57.6632 85.8052 58.1179 85.6584C58.4258 85.5535 58.7266 85.4487 59.0345 85.3368C62.7496 83.6102 59.5102 81.2335 51.7791 75.5435C43.2293 69.2523 32.5806 61.4233 23.5481 49.9733C-3.1157 16.1686 25.3392 -0.558995 44.0339 1.74079C22.7925 -2.85878 -22.9089 26.7518 49.0714 77.5707Z" fill="currentColor"/>
<path d="M53.9481 70.9861C63.6173 78.3957 67.2415 81.1708 62.4419 83.9319C62.4769 83.911 62.5189 83.897 62.5539 83.883C63.3585 83.4986 64.359 82.9743 65.1286 82.5758C68.8717 80.3879 67.3745 77.8505 65.2056 75.4388C56.1101 65.331 44.0271 58.6413 34.7147 48.7851C4.72756 17.0705 24.8426 1.30056 44.0341 1.74094C24.4788 -0.0415649 -10.4479 21.6491 53.9481 70.9861Z" fill="currentColor"/>
<path d="M61.4203 64.862C70.6347 72.2367 73.9161 76.2001 68.9975 80.1846C69.8371 79.5904 70.9076 78.7585 71.7402 78.1154C72.167 77.7659 72.6008 77.3885 73.0275 77.025C76.8546 73.5299 74.7067 71.6355 48.9875 49.0082C11.71 16.2031 28.5086 4.62028 40.6616 2.20166C29.6421 4.25678 -1.07969 14.826 61.4203 64.862Z" fill="currentColor"/>
<path d="M43.5442 1.78271C42.6346 1.86667 41.6621 2.0066 40.6616 2.20251C41.956 1.96462 42.9775 1.83869 43.5442 1.78271Z" fill="currentColor"/>
<path d="M44.0337 1.74023C44.0337 1.74023 43.8308 1.75423 43.5439 1.78221C43.7119 1.76822 43.8728 1.75423 44.0337 1.74023Z" fill="currentColor"/>
<path d="M59.6988 50.4201C74.9792 62.7089 80.7163 68.3291 75.7418 74.4315C75.7768 74.3966 75.8048 74.3616 75.8398 74.3267C76.6234 73.4878 77.5609 72.3764 78.2955 71.5306C78.3095 71.5096 78.3235 71.4956 78.3445 71.4747C82.6964 65.7776 78.5404 59.78 60.5943 45.8555C13.7876 9.51335 38.5903 2.73285 44.0336 1.74023C40.0665 2.24353 6.78404 7.87066 59.6988 50.4201Z" fill="currentColor"/>
<path d="M62.8616 40.5849C80.157 53.4888 84.9146 60.0876 81.6752 66.6864C81.8082 66.4697 81.9341 66.253 82.06 66.0363L82.179 65.8266C82.2699 65.6728 82.3469 65.533 82.4309 65.3862L83.4174 63.4848C83.5363 63.2402 83.6552 62.9955 83.7672 62.7649C87.6293 53.9222 72.9995 43.2831 63.2884 36.223C31.664 13.2461 35.3652 4.78797 44.0339 1.74023C36.6316 3.66954 23.646 11.3168 62.8616 40.5849Z" fill="currentColor"/>
<path d="M63.7085 30.5682C78.807 41.1934 87.8535 48.3024 85.9714 57.173C86.0624 56.8724 86.1533 56.5718 86.2373 56.2783C86.5381 55.1738 86.839 53.9295 87.0839 52.9369C88.3782 44.1013 79.2478 37.3627 64.2472 27.1081C54.3331 20.3345 35.8833 7.7172 44.0342 1.74756C31.2516 7.73119 55.6835 24.9271 63.7085 30.5752V30.5682Z" fill="currentColor"/>
<path d="M64.8135 22.7532C81.829 33.7767 87.6082 38.7817 87.916 46.3801C87.923 46.2333 87.937 46.0795 87.944 45.9327L88 44.0803L87.958 42.2838C87.951 42.0741 87.937 41.8784 87.93 41.6687C87.2793 33.6999 76.6446 27.129 63.2043 18.8317C53.752 12.9948 43.0333 6.37508 44.0408 1.74756C39.612 6.42402 54.7805 16.2523 64.8205 22.7602L64.8135 22.7532Z" fill="currentColor"/>
<path d="M63.7149 15.714C79.3871 24.6056 85.2852 28.9185 87.1603 35.4334C86.9224 34.308 86.5446 32.882 86.2228 31.6727C86.1528 31.421 86.0758 31.1764 86.0059 30.9247C83.4591 24.305 74.9164 19.5517 60.0977 11.7645C49.6169 6.25625 46.1676 4.10326 44.0337 1.74756C45.2511 5.24966 52.9962 9.63952 63.7149 15.721V15.714Z" fill="currentColor"/>
<path d="M83.7598 25.1854C83.6968 25.0526 83.6339 24.9198 83.5709 24.787L82.6824 23.0255L82.0806 21.9769C81.9687 21.7882 81.8568 21.5925 81.7448 21.4037C79.7228 18.2721 76.0706 15.9374 70.8442 13.1972C62.2105 8.68152 52.9401 5.64078 44.0405 1.74023C46.8181 3.50177 51.9186 5.85048 58.3764 8.81434C75.5109 16.6783 80.8003 20.0826 83.7668 25.1854H83.7598Z" fill="currentColor"/>
<path d="M78.4216 16.6231C78.3377 16.5252 78.2677 16.4273 78.1767 16.3225C78.1208 16.2596 78.0718 16.1967 78.0158 16.1267C77.9529 16.0499 77.8829 15.966 77.8129 15.8891C77.1622 15.1341 76.4346 14.3233 75.8539 13.6662C72.0198 9.74468 61.3151 5.73229 44.0337 1.73389C70.2497 9.5839 75.3222 13.2677 78.4216 16.6161V16.6231Z" fill="currentColor"/>
<path d="M71.229 9.47841C70.5854 8.98909 69.8857 8.47182 69.291 8.02444C69.1651 7.94056 69.0461 7.85668 68.9202 7.77279C64.7642 5.15146 56.3964 3.11731 44.0405 1.74023C51.7297 2.87964 65.4779 5.45204 71.7818 9.92578C71.5929 9.772 71.4179 9.6252 71.236 9.47841H71.229Z" fill="currentColor"/>
<path d="M53.7867 1.73333C54.8152 1.87313 55.8227 2.05488 56.8162 2.28555C58.5793 2.57914 58.7962 2.64904 60.1395 3.08244C60.1046 3.06846 60.0556 3.04749 60.0206 3.03351C59.3489 2.76788 58.4394 2.46031 57.7537 2.21565H57.7397C56.1305 1.69837 54.2345 1.62148 52.0376 1.5376C52.1355 1.54459 52.2405 1.55857 52.3384 1.56556C51.219 1.46071 50.0785 1.40479 48.9241 1.40479C47.147 1.48867 46.9091 1.50964 44.0405 1.74032C48.6023 1.55158 50.6732 1.58653 53.7937 1.73333H53.7867ZM52.9401 1.62148C53.143 1.64245 53.3459 1.67041 53.5488 1.69138C53.3459 1.66342 53.143 1.64245 52.9401 1.62148Z" fill="currentColor"/>
</svg>
