<svg width="88" height="88" viewBox="0 0 88 88" fill="none" xmlns="http://www.w3.org/2000/svg">
<path d="M52.94 1.62109C53.1429 1.64208 53.3458 1.67007 53.5487 1.69106C53.3458 1.66307 53.1429 1.64208 52.94 1.62109Z" fill="black"/>
<path d="M65.6735 5.7318L64.5611 5.13065C64.5261 5.11666 64.4981 5.09569 64.4631 5.08171C64.3442 5.0188 64.2322 4.96288 64.1133 4.90696C64.1902 4.94191 64.2672 4.97686 64.3442 5.0188C64.1693 4.92793 63.9943 4.83706 63.8124 4.73919L63.0288 4.38269C63.0988 4.41764 63.1688 4.45259 63.2317 4.48055C62.2802 4.04017 61.3007 3.64173 60.3002 3.28523C56.0253 2.27864 51.6105 1.85922 44.0193 1.7334C58.0893 2.42543 62.9239 4.43162 64.5471 5.12366C64.9249 5.31938 65.2957 5.51511 65.6665 5.72481L65.6735 5.7318Z" fill="black"/>
<path d="M54.4721 1.2798C53.9264 1.14699 53.3666 1.01418 52.8979 0.909323L52.604 0.846411C50.9808 0.594763 47.7624 1.09806 44.0333 1.73417C44.3551 1.69223 44.6769 1.65029 44.9918 1.61534C51.1697 0.909323 52.9538 1.02816 54.4721 1.27281V1.2798Z" fill="black"/>
<path d="M49.9174 0.405533C49.4276 0.342621 48.8259 0.272719 48.3571 0.216797C48.3501 0.216797 48.3432 0.216797 48.3362 0.216797C48.2452 0.237768 48.2312 0.244758 44.0403 1.74066C48.9169 0.447474 49.3996 0.433494 50.0503 0.419513C50.0083 0.419513 49.9663 0.405533 49.9244 0.405533H49.9174Z" fill="black"/>
<path d="M29.1029 85.4211C29.2078 85.4561 29.3197 85.498 29.4317 85.533C30.2153 85.7986 31.1808 86.0992 31.9294 86.3299C32.6991 86.5536 33.7415 86.7982 34.5182 86.98C24.3592 84.4984 15.6975 78.9412 8.76395 70.4551L10.716 72.8597C10.9609 73.1323 11.1777 73.377 11.3737 73.6007C12.0943 74.3486 12.9479 75.2224 13.8224 76.0542C14.3612 76.5436 15.0328 77.1377 15.9564 77.9556C16.4321 78.34 16.9919 78.7664 17.5656 79.1859C22.4911 82.8138 25.8565 84.1489 29.1029 85.4211Z" fill="black"/>
<path d="M46.2372 0.118834C46.1742 0.0978631 46.0902 0.062912 46.0203 0.0419413C46.0203 0.0419413 46.0133 0.0419413 46.0063 0.0419413C45.5515 0.0209707 45.2717 0.0139804 45.2437 0.0139804C44.9848 0.0139804 44.663 0 44.3901 0C44.9078 0.0209707 44.9218 0.0349511 45.1527 0.342521C45.0548 0.696692 44.6816 1.16271 44.0333 1.74056C46.1042 0.594169 46.1672 0.370482 46.2442 0.118834H46.2372Z" fill="black"/>
<path d="M2.96382 60.1159C11.0378 79.1573 31.2508 86.4481 38.3942 87.6504C38.4292 87.6504 38.4642 87.6574 38.4992 87.6644C38.877 87.7133 39.3528 87.7623 39.7096 87.7972L40.4582 87.8601C40.4582 87.8601 40.4862 87.8601 40.5002 87.8601C36.2883 87.4687 7.30866 78.9336 0.794891 52.6504C0.864857 53.0418 0.934822 53.4193 1.00479 53.7758C1.48755 55.6073 2.22918 58.0049 2.85887 59.8293C2.89385 59.9272 2.92883 60.0111 2.96382 60.109V60.1159Z" fill="black"/>
<path d="M42.8021 0.342572C43.8026 0.720043 43.8516 0.93674 44.0335 1.74062C44.7681 0.104904 43.2499 0.0699531 41.9066 0.0419922C41.4378 0.0699531 40.8151 0.111894 40.3463 0.139855L39.8986 0.181797C40.5842 0.132865 42.0115 0.0419922 42.8021 0.335581V0.342572Z" fill="black"/>
<path d="M43.0399 87.9926C43.2078 87.9926 43.3757 87.9996 43.5436 87.9996H43.6136C43.6136 87.9996 43.6696 87.9996 43.6976 87.9996C43.8865 87.9996 44.0754 87.9996 44.2643 87.9996C44.4252 87.9996 44.5861 87.9996 44.726 87.9996C44.733 87.9996 44.74 87.9996 44.754 87.9996C41.4167 87.9436 -6.43256 69.825 1.2986 33.0215C1.2986 33.0215 1.2986 33.0215 1.2986 33.0285C1.03273 34.063 0.773858 35.4611 0.54997 36.5096C0.333077 37.8447 0.158164 39.6482 0.011237 40.9973C-0.779371 74.0121 38.6601 87.5732 43.0399 87.9996V87.9926Z" fill="black"/>
<path d="M35.8264 0.769007C35.7354 0.789978 35.6445 0.803958 35.5535 0.824929C40.9338 -0.0977804 43.1867 1.23036 44.0333 1.74065C42.508 0.0629946 39.8564 0.0979458 35.8264 0.769007Z" fill="black"/>
<path d="M5.59456 22.3815C-13.8418 59.8141 40.5982 86.2511 47.112 87.8938C47.1539 87.8938 47.2029 87.8938 47.2449 87.8868L47.5317 87.8658C47.5737 87.8658 47.6227 87.8589 47.6717 87.8519C48.0075 87.8239 48.3993 87.782 48.7352 87.747C48.7771 87.747 48.8191 87.74 48.8611 87.733C41.1509 81.8752 31.7686 78.6877 24.3313 72.3895C20.6931 69.3068 12.1713 62.0859 7.18977 52.4324C-2.77329 33.1184 6.09831 20.8017 10.4432 15.4961C10.2892 15.6708 10.1423 15.8456 9.99538 16.0204L9.26074 16.8941C8.10631 18.4809 6.65803 20.6409 5.62255 22.3185C5.60855 22.3395 5.60156 22.3605 5.58756 22.3815H5.59456Z" fill="black"/>
<path d="M33.8391 1.18866C33.8391 1.18866 33.8951 1.17468 33.9161 1.16769C33.8461 1.18167 33.7692 1.19565 33.7062 1.21662C33.2234 1.32147 32.5868 1.49623 32.104 1.62904C31.1175 1.90166 29.8091 2.30709 28.8576 2.66359C28.2699 2.88728 27.4933 3.18087 26.9126 3.42553C26.2199 3.71912 25.3104 4.14552 24.6317 4.46008C23.932 4.78862 23.0225 5.26396 22.3648 5.65541C21.5812 6.10977 20.6227 6.70394 19.7621 7.25617C10.9675 13.3027 4.01993 23.0051 4.97845 33.9518C7.24532 59.7597 36.5048 77.4659 47.5173 84.1346C50.0594 85.6725 51.4051 86.742 51.5543 87.3431C51.5543 87.3431 51.6033 87.3361 51.6243 87.3291C52.226 87.2173 52.9886 87.0565 53.5903 86.9307C53.6113 86.9307 53.6323 86.9237 53.6533 86.9167C53.8702 86.8468 54.0241 86.5323 54.171 86.3645C53.6743 85.3998 52.6878 84.7078 47.3914 81.2407C33.7622 72.3211 20.049 62.0665 12.0519 47.5268C-6.0061 14.7147 29.0255 -2.25752 44.0331 1.74088C41.1225 0.615459 37.5823 0.489635 33.8391 1.18866Z" fill="black"/>
<path d="M49.0711 77.5702C57.362 83.421 59.342 84.819 56.7183 86.1122C56.7463 86.1052 56.7743 86.0983 56.8023 86.0843C57.2011 85.9584 57.6629 85.8047 58.1177 85.6579C58.4255 85.553 58.7264 85.4482 59.0342 85.3363C62.7494 83.6097 59.51 81.2331 51.7788 75.543C43.229 69.2518 32.5803 61.4228 23.5478 49.9728C-3.11597 16.1681 25.3389 -0.559483 44.0336 1.7403C22.7922 -2.85927 -22.9092 26.7513 49.0711 77.5702Z" fill="black"/>
<path d="M53.9477 70.9861C63.6169 78.3957 67.2411 81.1708 62.4415 83.9319C62.4765 83.911 62.5185 83.897 62.5534 83.883C63.358 83.4986 64.3585 82.9743 65.1282 82.5758C68.8713 80.3879 67.3741 77.8505 65.2051 75.4388C56.1096 65.331 44.0266 58.6413 34.7143 48.7851C4.72714 17.0705 24.8422 1.30056 44.0336 1.74094C24.4783 -0.0415649 -10.4483 21.6491 53.9477 70.9861Z" fill="black"/>
<path d="M61.4196 64.8625C70.6341 72.2372 73.9154 76.2006 68.9969 80.185C69.8365 79.5909 70.9069 78.759 71.7395 78.1159C72.1663 77.7664 72.6001 77.389 73.0269 77.0255C76.854 73.5304 74.706 71.636 48.9868 49.0087C11.7093 16.2036 28.508 4.62076 40.6609 2.20215C29.6414 4.25727 -1.08036 14.8265 61.4196 64.8625Z" fill="black"/>
<path d="M43.5435 1.78223C42.634 1.86618 41.6615 2.00612 40.6609 2.20202C41.9553 1.96414 42.9768 1.8382 43.5435 1.78223Z" fill="black"/>
<path d="M44.0333 1.74023C44.0333 1.74023 43.8304 1.75423 43.5436 1.78221C43.7115 1.76822 43.8724 1.75423 44.0333 1.74023Z" fill="black"/>
<path d="M59.6983 50.4201C74.9787 62.7089 80.7158 68.3291 75.7413 74.4315C75.7763 74.3966 75.8043 74.3616 75.8392 74.3267C76.6229 73.4878 77.5604 72.3764 78.295 71.5306C78.309 71.5096 78.323 71.4956 78.344 71.4747C82.6958 65.7776 78.5399 59.78 60.5938 45.8555C13.787 9.51335 38.5897 2.73285 44.033 1.74023C40.066 2.24353 6.78352 7.87066 59.6983 50.4201Z" fill="black"/>
<path d="M62.8609 40.5849C80.1563 53.4888 84.914 60.0876 81.6746 66.6864C81.8075 66.4697 81.9335 66.253 82.0594 66.0363L82.1783 65.8266C82.2693 65.6728 82.3463 65.533 82.4302 65.3862L83.4167 63.4848C83.5357 63.2402 83.6546 62.9955 83.7665 62.7649C87.6286 53.9222 72.9989 43.2831 63.2877 36.223C31.6634 13.2461 35.3646 4.78797 44.0333 1.74023C36.6309 3.66954 23.6454 11.3168 62.8609 40.5849Z" fill="black"/>
<path d="M63.7079 30.5687C78.8064 41.1938 87.8529 48.3029 85.9708 57.1735C86.0618 56.8729 86.1527 56.5723 86.2367 56.2787C86.5375 55.1743 86.8384 53.93 87.0833 52.9374C88.3776 44.1018 79.2471 37.3632 64.2466 27.1086C54.3325 20.335 35.8827 7.71769 44.0336 1.74805C31.251 7.73167 55.6828 24.9276 63.7079 30.5757V30.5687Z" fill="black"/>
<path d="M64.813 22.7537C81.8286 33.7772 87.6077 38.7822 87.9156 46.3806C87.9226 46.2338 87.9366 46.08 87.9436 45.9332L87.9995 44.0808L87.9575 42.2843C87.9505 42.0746 87.9366 41.8789 87.9296 41.6692C87.2789 33.7003 76.6442 27.1295 63.2038 18.8321C53.7515 12.9953 43.0328 6.37557 44.0403 1.74805C39.6115 6.4245 54.78 16.2528 64.82 22.7607L64.813 22.7537Z" fill="black"/>
<path d="M63.7145 15.7145C79.3867 24.6061 85.2848 28.919 87.1599 35.4339C86.922 34.3085 86.5442 32.8825 86.2223 31.6732C86.1524 31.4215 86.0754 31.1769 86.0054 30.9252C83.4587 24.3055 74.9159 19.5521 60.0973 11.765C49.6165 6.25674 46.1672 4.10375 44.0333 1.74805C45.2507 5.25015 52.9958 9.64001 63.7145 15.7215V15.7145Z" fill="black"/>
<path d="M83.7596 25.1854C83.6966 25.0526 83.6336 24.9198 83.5707 24.787L82.6821 23.0255L82.0804 21.9769C81.9685 21.7882 81.8565 21.5925 81.7446 21.4037C79.7226 18.2721 76.0704 15.9374 70.844 13.1972C62.2103 8.68152 52.9399 5.64078 44.0403 1.74023C46.8179 3.50177 51.9184 5.85048 58.3762 8.81434C75.5107 16.6783 80.8 20.0826 83.7666 25.1854H83.7596Z" fill="black"/>
<path d="M78.4212 16.6226C78.3372 16.5247 78.2673 16.4268 78.1763 16.322C78.1203 16.2591 78.0714 16.1962 78.0154 16.1263C77.9524 16.0494 77.8825 15.9655 77.8125 15.8886C77.1618 15.1336 76.4342 14.3228 75.8535 13.6657C72.0194 9.74419 61.3147 5.7318 44.0333 1.7334C70.2493 9.58341 75.3217 13.2673 78.4212 16.6156V16.6226Z" fill="black"/>
<path d="M71.2288 9.47841C70.5851 8.98909 69.8855 8.47182 69.2908 8.02444C69.1648 7.94056 69.0459 7.85668 68.9199 7.77279C64.764 5.15146 56.3962 3.11731 44.0403 1.74023C51.7295 2.87964 65.4776 5.45204 71.7815 9.92578C71.5926 9.772 71.4177 9.6252 71.2358 9.47841H71.2288Z" fill="black"/>
<path d="M53.7865 1.73284C54.8149 1.87264 55.8224 2.05439 56.8159 2.28506C58.5791 2.57865 58.796 2.64856 60.1393 3.08195C60.1043 3.06797 60.0553 3.047 60.0204 3.03302C59.3487 2.76739 58.4391 2.45982 57.7535 2.21516H57.7395C56.1303 1.69789 54.2342 1.62099 52.0373 1.53711C52.1353 1.5441 52.2402 1.55808 52.3382 1.56507C51.2187 1.46022 50.0783 1.4043 48.9239 1.4043C47.1467 1.48818 46.9089 1.50915 44.0403 1.73983C48.602 1.55109 50.673 1.58604 53.7934 1.73284H53.7865ZM52.9399 1.62099C53.1428 1.64196 53.3457 1.66993 53.5486 1.6909C53.3457 1.66294 53.1428 1.64196 52.9399 1.62099Z" fill="black"/>
</svg>
