<svg width="88" height="86" viewBox="0 0 88 86" fill="none" xmlns="http://www.w3.org/2000/svg">
<g opacity="0.9">
<path d="M86.7067 52.8289C87.421 42.9363 70.5889 33.6595 49.1113 32.1087C27.6336 30.5578 9.64339 37.3202 8.92907 47.2128C8.21475 57.1054 25.0468 66.3822 46.5245 67.9331C68.0022 69.4839 85.9923 62.7215 86.7067 52.8289Z" stroke="#222222" stroke-width="0.8" stroke-miterlimit="10"/>
<path d="M85.2829 50.7629C85.5632 41.091 68.7645 32.7569 47.7621 32.1483C26.7596 31.5396 9.50654 38.8868 9.22624 48.5587C8.94595 58.2306 25.7446 66.5647 46.747 67.1734C67.7495 67.782 85.0026 60.4348 85.2829 50.7629Z" stroke="#222222" stroke-width="0.8" stroke-miterlimit="10"/>
<path d="M46.9875 66.4282C67.5113 66.095 84.0247 58.1622 83.8713 48.7096C83.7178 39.2571 66.9556 31.8644 46.4319 32.1975C25.9081 32.5307 9.39468 40.4636 9.54813 49.9161C9.70157 59.3686 26.4638 66.7614 46.9875 66.4282Z" stroke="#222222" stroke-width="0.8" stroke-miterlimit="10"/>
<path d="M47.2066 65.6737C67.2539 64.3984 83.0293 55.8797 82.4419 46.6465C81.8546 37.4134 65.1268 30.9624 45.0795 32.2377C25.0322 33.513 9.25683 42.0318 9.8442 51.2649C10.4316 60.498 27.1593 66.9491 47.2066 65.6737Z" stroke="#222222" stroke-width="0.8" stroke-miterlimit="10"/>
<path d="M47.4174 64.9237C66.9906 62.7074 82.0306 53.6048 81.0101 44.5924C79.9897 35.5801 63.2952 30.0707 43.722 32.2869C24.1489 34.5032 9.10889 43.6058 10.1293 52.6182C11.1498 61.6305 27.8443 67.1399 47.4174 64.9237Z" stroke="#222222" stroke-width="0.8" stroke-miterlimit="10"/>
<path d="M47.6353 64.1815C66.7308 61.0236 81.0318 51.3342 79.5774 42.5395C78.123 33.7448 61.4641 29.1752 42.3686 32.333C23.2731 35.4909 8.9721 45.1803 10.4265 53.975C11.8808 62.7697 28.5398 67.3393 47.6353 64.1815Z" stroke="#222222" stroke-width="0.8" stroke-miterlimit="10"/>
<path d="M47.8597 63.4167C66.4798 59.316 80.0437 49.0419 78.1557 40.4688C76.2676 31.8958 59.6425 28.2702 41.0225 32.3709C22.4024 36.4716 8.83839 46.7457 10.7264 55.3188C12.6145 63.8919 29.2396 67.5174 47.8597 63.4167Z" stroke="#222222" stroke-width="0.8" stroke-miterlimit="10"/>
<path d="M48.0659 62.6819C66.2081 57.6404 79.033 46.7802 76.7112 38.4251C74.3894 30.07 57.8001 27.3838 39.6579 32.4253C21.5158 37.4668 8.69081 48.3269 11.0126 56.682C13.3344 65.0371 29.9237 67.7234 48.0659 62.6819Z" stroke="#222222" stroke-width="0.8" stroke-miterlimit="10"/>
<path d="M48.3035 61.8997C65.9676 55.9139 78.0528 44.4677 75.2965 36.334C72.5402 28.2003 55.9862 26.4591 38.3222 32.4449C20.6581 38.4307 8.57297 49.8769 11.3292 58.0106C14.0855 66.1443 30.6395 67.8856 48.3035 61.8997Z" stroke="#222222" stroke-width="0.8" stroke-miterlimit="10"/>
<path d="M48.5219 61.1594C65.7109 54.232 77.0595 42.2002 73.8699 34.2856C70.6802 26.3709 54.16 25.5706 36.971 32.4979C19.782 39.4253 8.43329 51.4571 11.623 59.3718C14.8127 67.2864 31.3329 68.0867 48.5219 61.1594Z" stroke="#222222" stroke-width="0.8" stroke-miterlimit="10"/>
<path d="M48.733 60.425C65.4454 52.5572 76.056 39.9394 72.4324 32.2425C68.8089 24.5455 52.3233 24.6841 35.6109 32.5519C18.8985 40.4197 8.28787 53.0375 11.9114 60.7344C15.535 68.4314 32.0205 68.2928 48.733 60.425Z" stroke="#222222" stroke-width="0.8" stroke-miterlimit="10"/>
<path d="M48.9609 59.6539C65.1958 50.8428 75.0671 37.6386 71.0091 30.1616C66.9511 22.6846 50.5005 23.7661 34.2656 32.5773C18.0307 41.3884 8.15941 54.5926 12.2174 62.0696C16.2754 69.5466 32.726 68.4651 48.9609 59.6539Z" stroke="#222222" stroke-width="0.8" stroke-miterlimit="10"/>
<path d="M49.1789 58.9126C64.9379 49.1606 74.0731 35.3726 69.5828 28.1164C65.0925 20.8602 48.6771 22.8834 32.9181 32.6354C17.159 42.3874 8.02384 56.1753 12.5141 63.4316C17.0044 70.6878 33.4198 68.6646 49.1789 58.9126Z" stroke="#222222" stroke-width="0.8" stroke-miterlimit="10"/>
<path d="M49.407 58.1314C64.689 47.4348 73.0853 33.0599 68.1606 26.0241C63.2359 18.9883 46.8552 21.956 31.5732 32.6526C16.2912 43.3492 7.89489 57.7241 12.8196 64.7599C17.7442 71.7957 34.125 68.828 49.407 58.1314Z" stroke="#222222" stroke-width="0.8" stroke-miterlimit="10"/>
<path d="M49.6291 57.3838C64.4348 45.7454 72.0929 30.7839 66.7337 23.9663C61.3746 17.1488 45.0278 21.0569 30.222 32.6953C15.4163 44.3337 7.75824 59.2953 13.1173 66.1128C18.4764 72.9304 34.8233 69.0223 49.6291 57.3838Z" stroke="#222222" stroke-width="0.8" stroke-miterlimit="10"/>
<path d="M49.8424 56.6349C64.1728 44.0543 71.0949 28.5077 65.3034 21.9107C59.5119 15.3137 43.1998 20.1644 28.8695 32.7451C14.5391 45.3258 7.61701 60.8723 13.4085 67.4693C19.2001 74.0663 35.5121 69.2156 49.8424 56.6349Z" stroke="#222222" stroke-width="0.8" stroke-miterlimit="10"/>
<path d="M50.068 55.8705C63.9199 42.3483 70.1027 26.2172 63.8779 19.8406C57.653 13.4639 41.3776 19.2565 27.5258 32.7787C13.674 46.3008 7.49108 62.432 13.7159 68.8086C19.9408 75.1852 36.2162 69.3927 50.068 55.8705Z" stroke="#222222" stroke-width="0.8" stroke-miterlimit="10"/>
<path d="M50.2843 55.1207C63.66 40.6561 69.1047 23.9382 62.4455 17.7804C55.7863 11.6225 39.5448 18.3565 26.1692 32.8211C12.7935 47.2858 7.34873 64.0037 14.0079 70.1615C20.6671 76.3194 36.9086 69.5854 50.2843 55.1207Z" stroke="#222222" stroke-width="0.8" stroke-miterlimit="10"/>
<path d="M50.4989 54.3745C63.3986 38.9684 68.1074 21.6658 61.0161 15.7282C53.9248 9.79053 37.7188 17.4662 24.8191 32.8723C11.9193 48.2785 7.21054 65.581 14.3018 71.5186C21.3931 77.4563 37.5991 69.7806 50.4989 54.3745Z" stroke="#222222" stroke-width="0.8" stroke-miterlimit="10"/>
<path d="M50.7191 53.6116C63.1414 37.2636 67.1115 19.3755 59.5866 13.6576C52.0617 7.93966 35.8912 16.5571 23.4689 32.9051C11.0466 49.2531 7.07641 67.1412 14.6013 72.8591C22.1263 78.577 38.2967 69.9596 50.7191 53.6116Z" stroke="#222222" stroke-width="0.8" stroke-miterlimit="10"/>
<path d="M50.9372 52.8585C62.882 35.5693 66.1136 17.0963 58.1552 11.5979C50.1967 6.09957 34.0619 15.6579 22.1171 32.9471C10.1723 50.2363 6.94066 68.7093 14.8991 74.2076C22.8575 79.706 38.9923 70.1476 50.9372 52.8585Z" stroke="#222222" stroke-width="0.8" stroke-miterlimit="10"/>
<path d="M51.162 52.1328C62.6335 33.9024 65.1296 14.8427 56.7374 9.56188C48.3451 4.28108 32.2424 14.7789 20.7709 33.0094C9.29946 51.2398 6.80327 70.2995 15.1955 75.5803C23.5878 80.8611 39.6906 70.3633 51.162 52.1328Z" stroke="#222222" stroke-width="0.8" stroke-miterlimit="10"/>
</g>
</svg>
