<svg width="81" height="30" viewBox="0 0 81 30" fill="none" xmlns="http://www.w3.org/2000/svg">
<rect y="7" width="16" height="16" rx="8" fill="#F2887A"/>
<path d="M37.688 19.1C37.688 19.66 37.632 20.276 37.52 20.948C37.408 21.62 37.152 22.252 36.752 22.844C36.352 23.42 35.776 23.908 35.024 24.308C34.272 24.692 33.256 24.884 31.976 24.884C31.256 24.884 30.56 24.78 29.888 24.572C29.216 24.38 28.616 24.076 28.088 23.66C27.56 23.228 27.136 22.684 26.816 22.028C26.496 21.356 26.336 20.548 26.336 19.604V18.116H29.744V18.884C29.744 19.3 29.776 19.684 29.84 20.036C29.904 20.388 30.016 20.692 30.176 20.948C30.336 21.188 30.552 21.38 30.824 21.524C31.112 21.668 31.48 21.74 31.928 21.74C32.424 21.74 32.808 21.652 33.08 21.476C33.352 21.3 33.544 21.076 33.656 20.804C33.784 20.516 33.856 20.212 33.872 19.892C33.904 19.556 33.92 19.236 33.92 18.932V7.364H37.688V19.1ZM41.9519 7.364H47.2559L51.2639 19.148H51.3119L55.1039 7.364H60.4079V24.5H56.8799V12.356H56.8319L52.6319 24.5H49.7279L45.5279 12.476H45.4799V24.5H41.9519V7.364ZM76.1094 13.124C76.0454 12.692 75.9014 12.3 75.6774 11.948C75.4534 11.58 75.1734 11.26 74.8374 10.988C74.5014 10.716 74.1174 10.508 73.6854 10.364C73.2694 10.204 72.8294 10.124 72.3654 10.124C71.5174 10.124 70.7974 10.292 70.2054 10.628C69.6134 10.948 69.1334 11.388 68.7654 11.948C68.3974 12.492 68.1254 13.116 67.9494 13.82C67.7894 14.524 67.7094 15.252 67.7094 16.004C67.7094 16.724 67.7894 17.428 67.9494 18.116C68.1254 18.788 68.3974 19.396 68.7654 19.94C69.1334 20.484 69.6134 20.924 70.2054 21.26C70.7974 21.58 71.5174 21.74 72.3654 21.74C73.5174 21.74 74.4134 21.388 75.0534 20.684C75.7094 19.98 76.1094 19.052 76.2534 17.9H79.9014C79.8054 18.972 79.5574 19.94 79.1574 20.804C78.7574 21.668 78.2294 22.404 77.5734 23.012C76.9174 23.62 76.1494 24.084 75.2694 24.404C74.3894 24.724 73.4214 24.884 72.3654 24.884C71.0534 24.884 69.8694 24.66 68.8134 24.212C67.7734 23.748 66.8934 23.116 66.1734 22.316C65.4534 21.516 64.9014 20.58 64.5174 19.508C64.1334 18.42 63.9414 17.252 63.9414 16.004C63.9414 14.724 64.1334 13.54 64.5174 12.452C64.9014 11.348 65.4534 10.388 66.1734 9.572C66.8934 8.756 67.7734 8.116 68.8134 7.652C69.8694 7.188 71.0534 6.956 72.3654 6.956C73.3094 6.956 74.1974 7.092 75.0294 7.364C75.8774 7.636 76.6294 8.036 77.2854 8.564C77.9574 9.076 78.5094 9.716 78.9414 10.484C79.3734 11.252 79.6454 12.132 79.7574 13.124H76.1094Z" fill="#505050"/>
</svg>
