<svg viewBox="0 0 89 78" fill="none" xmlns="http://www.w3.org/2000/svg">
<g opacity="0.9">
<path d="M49.9182 67.9389C47.6497 67.9389 45.34 67.8566 43.0127 67.6862C18.764 65.9348 -0.307091 55.3679 0.503943 44.1309C0.897706 38.6535 5.86969 33.852 14.4972 30.6078C23.066 27.3872 34.2324 26.0825 45.9512 26.9288C70.1999 28.6802 89.2651 39.2471 88.4541 50.484C88.0603 55.9614 83.0883 60.763 74.4608 64.0071C67.5964 66.5872 59.0629 67.9389 49.9123 67.9389H49.9182ZM39.0398 27.1462C29.948 27.1462 21.4733 28.4862 14.6618 31.0486C6.21644 34.2222 1.35612 38.8827 0.974107 44.1662C0.180705 55.1445 19.0519 65.4881 43.0421 67.2219C54.6904 68.0623 65.7921 66.7693 74.2962 63.5722C82.7416 60.3986 87.6019 55.7381 87.9839 50.4546C88.7773 39.4763 69.9061 29.1327 45.9159 27.399C43.5945 27.2285 41.2966 27.1462 39.0398 27.1462Z" fill="currentColor"/>
<path d="M46.0275 66.8809C45.1107 66.8809 44.1939 66.8691 43.2712 66.8397C19.5514 66.1521 0.521512 56.6489 0.838873 45.6588C0.991677 40.299 5.64043 35.4093 13.9153 31.883C22.1314 28.3862 32.9687 26.6407 44.4231 26.9757C68.137 27.6633 87.1669 37.1665 86.8496 48.1566C86.6968 53.5165 82.048 58.4062 73.7731 61.9324C66.2211 65.1472 56.4534 66.8809 46.0217 66.8809H46.0275ZM41.6668 27.4047C31.2996 27.4047 21.5966 29.1267 14.1034 32.3179C6.0048 35.7678 1.46184 40.5105 1.31491 45.6706C1.00343 56.4021 19.8335 65.6878 43.2888 66.3696C54.6786 66.6987 65.4453 64.9708 73.6027 61.4975C81.7013 58.0477 86.2442 53.3049 86.3911 48.1448C86.7026 37.4133 67.8726 28.1276 44.4172 27.4459C43.5004 27.4165 42.5836 27.4047 41.6726 27.4047H41.6668Z" fill="currentColor"/>
<path d="M42.0195 66.0054C31.382 66.0054 21.4028 64.1776 13.7803 60.81C5.73458 57.2603 1.26215 52.4235 1.17987 47.187C1.09759 41.9447 5.41135 36.9668 13.3336 33.1585C21.1971 29.3796 31.6994 27.1992 42.8952 27.017C54.091 26.8289 64.6579 28.6743 72.6448 32.1947C80.6905 35.7444 85.163 40.5812 85.2511 45.8177C85.4216 56.5609 66.709 65.6057 43.5299 65.9818C43.0245 65.9877 42.5249 65.9936 42.0254 65.9936L42.0195 66.0054ZM44.4056 27.4813C43.9061 27.4813 43.4065 27.4813 42.9011 27.493C31.7699 27.6752 21.3382 29.838 13.5334 33.5875C5.7816 37.3077 1.56188 42.1386 1.64415 47.1812C1.72643 52.2237 6.09896 56.9136 13.9683 60.3869C21.8906 63.8837 32.3753 65.7115 43.5182 65.5293C66.4387 65.1591 84.9455 56.3259 84.7751 45.8412C84.6928 40.7987 80.3144 36.1088 72.4509 32.6354C64.8871 29.2973 54.9725 27.4813 44.3997 27.4813H44.4056Z" fill="currentColor"/>
<path d="M38.0938 65.3295C29.2723 65.3295 21.0386 63.9954 14.4622 61.4624C6.4341 58.3652 1.83237 53.8399 1.50913 48.721C0.845023 38.2246 18.723 28.5098 41.3673 27.0758C52.3104 26.3823 62.7186 27.6929 70.6879 30.7666C78.716 33.8638 83.3177 38.3891 83.641 43.508C84.3051 54.0044 66.4271 63.7192 43.7828 65.1532C41.8669 65.2766 39.9627 65.3354 38.0938 65.3354V65.3295ZM47.0622 27.3579C45.1992 27.3579 43.3067 27.4167 41.3967 27.5401C19.011 28.9623 1.32694 38.4479 1.97929 48.6857C2.29078 53.6107 6.78673 57.9891 14.6326 61.0158C22.5372 64.066 32.8808 65.3648 43.7534 64.6713C66.1391 63.2491 83.8173 53.7635 83.1708 43.5198C82.8593 38.5948 78.3634 34.2164 70.5175 31.1897C63.9998 28.6743 55.8249 27.352 47.0622 27.352V27.3579Z" fill="currentColor"/>
<path d="M34.3674 64.8536C27.2738 64.8536 20.6562 63.9191 15.1494 62.1031C7.13899 59.4584 2.41384 55.2504 1.84377 50.2491C0.685989 39.9995 17.7236 29.6206 39.833 27.117C50.5117 25.9063 60.773 26.688 68.7246 29.315C76.7351 31.9597 81.4602 36.1677 82.0303 41.169C83.1881 51.4186 66.1505 61.7975 44.041 64.3011C40.7557 64.6714 37.5116 64.8594 34.3674 64.8594V64.8536ZM49.5126 27.0347C46.3801 27.0347 43.1536 27.2169 39.8859 27.5872C18.0409 30.0614 1.18554 40.1993 2.31393 50.1962C2.8605 55.0036 7.46811 59.0764 15.2963 61.6564C23.1834 64.26 33.3742 65.0357 43.9881 63.8309C65.839 61.3567 82.6944 51.2129 81.566 41.2219C81.0194 36.4145 76.4118 32.3476 68.5836 29.7617C63.1238 27.9574 56.5591 27.0347 49.5184 27.0347H49.5126Z" fill="currentColor"/>
<path d="M30.9179 64.583C25.4228 64.583 20.2921 63.9659 15.8373 62.7493C7.83867 60.5572 2.9901 56.6607 2.18494 51.7827C0.527614 41.7741 16.7365 30.737 38.3053 27.1696C48.7253 25.4477 58.8339 25.6945 66.7738 27.8749C74.7724 30.067 79.621 33.9635 80.4262 38.8415C82.0776 48.8442 65.8746 59.8872 44.3058 63.4546C39.7334 64.2127 35.2199 64.5888 30.9237 64.5888L30.9179 64.583ZM51.6932 26.5055C47.4206 26.5055 42.9306 26.8817 38.3817 27.6339C17.0656 31.1543 1.03892 41.9563 2.64923 51.7005C3.425 56.3904 8.15015 60.1517 15.9608 62.2909C23.836 64.4478 33.874 64.6946 44.2235 62.9844C65.5396 59.4582 81.5722 48.662 79.9619 38.912C79.1861 34.2221 74.461 30.4608 66.6503 28.3215C62.2367 27.1109 57.1413 26.4997 51.6932 26.4997V26.5055Z" fill="currentColor"/>
<path d="M27.7969 64.5125C23.7535 64.5125 19.951 64.1422 16.5247 63.3959C8.54367 61.6563 3.57168 58.0712 2.51969 53.3167C0.374565 43.5549 15.7431 31.8478 36.777 27.2167C46.9385 24.9776 56.8942 24.7013 64.8165 26.4292C72.7975 28.1688 77.7695 31.7538 78.8215 36.5083C80.9666 46.2642 65.604 57.9713 44.5641 62.6025C38.7987 63.8719 33.098 64.5125 27.7969 64.5125ZM53.5384 25.7768C48.2726 25.7768 42.6071 26.4116 36.877 27.6751C16.0957 32.2533 0.885869 43.7077 2.9781 53.2109C3.98308 57.7833 8.83165 61.2331 16.6246 62.9316C24.4822 64.6477 34.3674 64.3656 44.4642 62.144C65.2455 57.5658 80.4494 46.1114 78.3631 36.6141C77.3581 32.0418 72.5095 28.5919 64.7166 26.8935C61.3196 26.153 57.5466 25.7827 53.5443 25.7827L53.5384 25.7768Z" fill="currentColor"/>
<path d="M25.0407 64.6242C22.2844 64.6242 19.6573 64.4303 17.2066 64.0307C9.23729 62.7377 4.14188 59.4759 2.85481 54.8389C0.216012 45.3299 14.75 32.9645 35.2433 27.2638C45.1461 24.5133 54.949 23.7023 62.8537 24.9835C70.8229 26.2706 75.9183 29.5382 77.2054 34.1752C79.8442 43.6843 65.3161 56.0496 44.817 61.7504C37.982 63.6486 31.1881 64.6242 25.0407 64.6242ZM55.0195 24.8601C48.9133 24.8601 42.1664 25.8298 35.3667 27.7163C15.1202 33.3466 0.73907 45.4533 3.31322 54.7155C4.5474 59.1703 9.51351 62.3146 17.2889 63.5722C25.1288 64.8417 34.8612 64.0365 44.6994 61.2978C64.9459 55.6735 79.327 43.5609 76.7588 34.3045C75.5246 29.8556 70.5585 26.7055 62.7831 25.4478C60.3618 25.054 57.7582 24.8601 55.0254 24.8601H55.0195Z" fill="currentColor"/>
<path d="M22.6603 64.9182C21.0147 64.9182 19.422 64.8359 17.8999 64.6772C9.9482 63.8368 4.72937 60.8924 3.19546 56.373C0.0629901 47.1166 13.7506 34.0813 33.715 27.3168C43.3592 24.0492 53.0094 22.7092 60.8964 23.5437C68.848 24.3842 74.0669 27.3286 75.6008 31.848C78.7332 41.1044 65.0456 54.1397 45.0812 60.9042C37.3059 63.5371 29.5188 64.9182 22.6603 64.9182ZM56.1301 23.7729C49.3245 23.7729 41.5903 25.1482 33.8619 27.7635C14.1503 34.4398 0.591925 47.2048 3.64212 56.2202C5.11138 60.5516 10.1892 63.3902 17.9469 64.2071C25.7692 65.0299 35.3488 63.6958 44.9284 60.4516C64.6459 53.7753 78.2043 41.0103 75.1482 31.9949C73.679 27.6636 68.6012 24.8249 60.8435 24.008C59.3331 23.8493 57.758 23.7729 56.1242 23.7729H56.1301Z" fill="currentColor"/>
<path d="M20.6386 65.3645C19.9451 65.3645 19.2575 65.3469 18.5875 65.3175C10.6535 64.9296 5.30536 62.2967 3.53637 57.9007C-0.0897751 48.8911 12.7575 35.1917 32.1811 27.3694C41.5609 23.5904 51.0641 21.7215 58.9335 22.1035C66.8675 22.4914 72.2156 25.1243 73.9846 29.5204C77.6108 38.5299 64.7635 52.2293 45.3399 60.0517C36.7594 63.5074 28.0789 65.3704 20.6386 65.3704V65.3645ZM56.8824 22.5208C49.5008 22.5208 40.885 24.3721 32.3574 27.8043C13.1747 35.5326 0.445037 48.9558 3.97127 57.7243C5.66974 61.9382 10.8651 64.4712 18.611 64.8473C26.4157 65.2235 35.8484 63.3663 45.1694 59.6109C64.3521 51.8826 77.0877 38.4594 73.5556 29.6908C71.8571 25.477 66.6618 22.9439 58.9159 22.5678C58.2517 22.5325 57.57 22.5208 56.8824 22.5208Z" fill="currentColor"/>
<path d="M18.9464 65.9582C11.2063 65.9582 5.86408 63.6485 3.87764 59.4288C-0.242179 50.6661 11.7646 36.3085 30.6535 27.4165C39.7747 23.1204 49.1251 20.7225 56.9768 20.652C64.8756 20.5697 70.3648 22.9029 72.3747 27.1755C76.4945 35.9382 64.4818 50.2959 45.5988 59.1879C36.4777 63.484 27.1273 65.8818 19.2755 65.9465C19.1639 65.9465 19.0522 65.9465 18.9464 65.9465V65.9582ZM57.3118 21.128C57.2001 21.128 57.0944 21.128 56.9827 21.128C49.1956 21.1927 39.9157 23.5788 30.8533 27.8455C12.2054 36.6258 0.292633 50.7073 4.30078 59.2349C6.22846 63.3312 11.5648 65.5762 19.2696 65.4881C27.0567 65.4234 36.3366 63.0373 45.399 58.7706C64.0469 49.9903 75.9597 35.9088 71.9516 27.3871C70.0533 23.3437 64.8579 21.128 57.3118 21.128Z" fill="currentColor"/>
<path d="M17.583 66.6814C10.9419 66.6814 6.24027 64.6891 4.21856 60.963C-0.394924 52.4531 10.7774 37.4313 29.1255 27.4756C37.9881 22.6682 47.1857 19.7355 55.0198 19.2183C62.9245 18.7011 68.5135 20.6993 70.7644 24.8544C75.3779 33.3644 64.2057 48.3861 45.8575 58.3419C36.9949 63.1493 27.7973 66.082 19.9632 66.5991C19.1463 66.652 18.347 66.6814 17.5771 66.6814H17.583ZM57.4118 19.6062C56.6536 19.6062 55.8661 19.6297 55.0492 19.6885C47.2797 20.1998 38.1468 23.1089 29.343 27.887C11.2299 37.7193 0.139888 52.4531 4.62996 60.7397C6.78684 64.7244 12.2231 66.6344 19.9338 66.129C27.7033 65.6177 36.8362 62.7085 45.64 57.9305C63.759 48.0982 74.8431 33.3644 70.3531 25.0778C68.4195 21.5163 63.8707 19.6062 57.4118 19.6062Z" fill="currentColor"/>
<path d="M16.513 67.504C10.7711 67.504 6.59249 65.7761 4.5649 62.4908C-0.542257 54.2336 9.7896 38.5477 27.5971 27.5224C36.2011 22.1978 45.2459 18.7362 53.0624 17.7723C60.9494 16.8026 66.6619 18.4893 69.1537 22.5151C74.2609 30.7783 63.929 46.4641 46.1216 57.4836C37.5176 62.8082 28.4728 66.2698 20.6563 67.2336C19.1988 67.4158 17.8177 67.504 16.513 67.504ZM57.2116 17.978C55.9245 17.978 54.561 18.0662 53.1152 18.2425C45.3575 19.2005 36.3833 22.6385 27.838 27.922C10.2539 38.8122 -0.0133224 54.2042 4.95867 62.244C7.35063 66.1111 12.8986 67.7155 20.5916 66.7693C28.3493 65.8114 37.3236 62.3733 45.8688 57.0898C63.4589 46.2055 73.7202 30.8135 68.7482 22.7737C66.8088 19.6354 62.7771 17.9839 57.2057 17.9839L57.2116 17.978Z" fill="currentColor"/>
<path d="M15.6786 68.4266C10.6713 68.4266 6.93351 66.9279 4.90592 64.0246C-0.694908 56.0142 8.79653 39.6643 26.0692 27.581C34.4087 21.7451 43.3007 17.7546 51.1054 16.3382C58.9689 14.916 64.8107 16.2853 67.5436 20.1936C73.1444 28.204 63.653 44.554 46.3803 56.6372C38.0408 62.4731 29.1488 66.4636 21.344 67.88C19.3165 68.2444 17.4182 68.4266 15.6786 68.4266ZM56.7768 16.2618C55.0607 16.2618 53.1918 16.444 51.1877 16.8025C43.4476 18.2013 34.6203 22.1683 26.3337 27.963C9.27845 39.8993 -0.165974 55.9554 5.28793 63.7543C7.9091 67.5039 13.5805 68.8027 21.2559 67.4157C28.996 66.017 37.8233 62.05 46.11 56.2552C63.1652 44.3189 72.6096 28.2686 67.1557 20.4698C65.2163 17.7017 61.6195 16.2677 56.7768 16.2677V16.2618Z" fill="currentColor"/>
<path d="M15.038 69.4198C10.6361 69.4198 7.25679 68.1092 5.24684 65.5527C-0.847663 57.795 7.80924 40.7868 24.5353 27.6339C32.6163 21.2809 41.3555 16.7614 49.1426 14.8984C56.9943 13.0236 62.9536 14.0756 65.9274 17.8604C72.0219 25.6181 63.3709 42.6263 46.6389 55.7733C38.558 62.1264 29.8188 66.6458 22.0317 68.5089C19.4928 69.1142 17.1479 69.4139 15.038 69.4139V69.4198ZM56.1421 14.4635C54.0734 14.4635 51.7637 14.7573 49.2542 15.3568C41.5318 17.2022 32.8572 21.6922 24.8292 28.0042C8.30291 40.9925 -0.318729 57.7068 5.6171 65.2588C8.46747 68.8909 14.2622 69.8841 21.92 68.0563C29.6425 66.2109 38.317 61.7209 46.3451 55.4089C62.8714 42.4206 71.4871 25.7063 65.5572 18.1543C63.6413 15.7094 60.3912 14.4635 56.1421 14.4635Z" fill="currentColor"/>
<path d="M14.5502 70.4838C10.6479 70.4838 7.57417 69.3377 5.5936 67.0809C-0.994573 59.5701 6.82191 41.9036 23.0132 27.6929C30.8356 20.8285 39.4219 15.7743 47.1914 13.4704C55.0255 11.1431 61.1083 11.8778 64.3171 15.5392C70.9053 23.05 63.0888 40.7165 46.8975 54.9272C39.0752 61.7916 30.4888 66.8459 22.7193 69.1555C19.7162 70.0488 16.9775 70.4896 14.5502 70.4896V70.4838ZM55.3605 12.6006C52.9862 12.6006 50.2827 13.0355 47.3207 13.9171C39.6159 16.2092 31.0883 21.2223 23.3188 28.0455C7.32146 42.0858 -0.471515 59.4584 5.94035 66.7695C9.0258 70.2898 14.9381 70.9715 22.5783 68.703C30.2831 66.411 38.8107 61.3978 46.5802 54.5746C62.5716 40.5343 70.3705 23.1617 63.9528 15.8507C62.0603 13.6938 59.1101 12.6065 55.3487 12.6065L55.3605 12.6006Z" fill="currentColor"/>
<path d="M14.18 71.6063C10.6949 71.6063 7.87388 70.6013 5.92857 68.609C-1.1474 61.3508 5.82278 43.0203 21.4793 27.7458C29.0371 20.3701 37.4707 14.7869 45.2284 12.0306C53.0449 9.25074 59.2452 9.67389 62.7009 13.2119C69.7769 20.47 62.8067 38.8006 47.1502 54.075C39.5923 61.4507 31.1588 67.0339 23.4011 69.7903C19.9865 71.0068 16.8834 71.6063 14.18 71.6063ZM54.4495 10.6789C51.8049 10.6789 48.7488 11.2724 45.3812 12.4714C37.6882 15.2042 29.3192 20.7521 21.8025 28.0808C6.34584 43.1731 -0.624345 61.2039 6.26944 68.2799C9.5841 71.6827 15.614 72.0588 23.2483 69.3436C30.9413 66.6108 39.3102 61.0628 46.827 53.7342C62.2895 38.6419 69.2597 20.6111 62.3659 13.5351C60.5147 11.6309 57.8112 10.6789 54.4554 10.6789H54.4495Z" fill="currentColor"/>
<path d="M13.9155 72.7756C10.7772 72.7756 8.17953 71.8941 6.28124 70.1368C-1.28841 63.1314 4.84724 44.1368 19.9571 27.8044C27.2564 19.9115 35.5372 13.7994 43.2773 10.5964C51.0761 7.36403 57.3999 7.46982 61.0906 10.8844C68.6603 17.8898 62.5246 36.8786 47.4147 53.2168C40.1154 61.1097 31.8347 67.2218 24.0946 70.4248C20.3098 71.994 16.8776 72.7756 13.9155 72.7756ZM53.4446 8.70988C50.5531 8.70988 47.1797 9.47977 43.4477 11.0254C35.7723 14.2049 27.5503 20.2759 20.2921 28.1218C5.36442 44.266 -0.782981 62.961 6.5986 69.7901C10.1483 73.0754 16.2957 73.1459 23.9124 69.9899C31.5878 66.8104 39.8098 60.7394 47.0621 52.8936C61.9957 36.7493 68.1431 18.0544 60.7674 11.2253C58.9573 9.55029 56.4654 8.70988 53.4505 8.70988H53.4446Z" fill="currentColor"/>
<path d="M13.7216 73.9864C10.8772 73.9864 8.46756 73.2107 6.61629 71.6591C-1.44116 64.9064 3.85407 45.2535 18.4233 27.8574C25.464 19.4533 33.592 12.8122 41.3085 9.15665C49.0839 5.47762 55.531 5.26017 59.4628 8.55719C67.5202 15.3099 62.225 34.9628 47.6558 52.3589C40.615 60.7631 32.4871 67.4041 24.7705 71.0597C20.6566 73.005 16.9129 73.9864 13.7158 73.9864H13.7216ZM52.3633 6.70005C49.2426 6.70005 45.5694 7.66388 41.5142 9.5798C33.8564 13.2059 25.7814 19.8059 18.7877 28.1572C4.383 45.3593 -0.941606 64.7124 6.92189 71.3006C10.7008 74.4684 16.9717 74.2333 24.5766 70.6365C32.2344 67.0104 40.3094 60.4104 47.3031 52.0591C61.7078 34.8629 67.0324 15.5097 59.1689 8.91569C57.4058 7.43468 55.0961 6.70005 52.3633 6.70005Z" fill="currentColor"/>
<path d="M13.5922 75.2323C11.0004 75.2323 8.76122 74.5506 6.96284 73.1871C-1.58827 66.6812 2.87241 46.376 16.9009 27.9162C23.6772 18.9948 31.6523 11.8248 39.3572 7.72261C47.1149 3.59104 53.6854 3.06211 57.8523 6.22984C66.4034 12.7357 61.9427 33.041 47.9142 51.5008C41.1379 60.4163 33.1627 67.5922 25.4579 71.6943C21.0443 74.0452 17.0126 75.2323 13.5922 75.2323ZM51.2229 4.65479C47.8848 4.65479 43.9295 5.82432 39.5805 8.13988C31.9344 12.2127 24.0181 19.3357 17.2771 28.1983C3.40135 46.4524 -1.0946 66.4638 7.25082 72.811C11.2648 75.8671 17.6532 75.3205 25.2405 71.283C32.8865 67.2102 40.8029 60.0872 47.5439 51.2187C61.4196 32.9646 65.9156 12.9532 57.5702 6.60597C55.8541 5.30127 53.7089 4.65479 51.2229 4.65479Z" fill="currentColor"/>
<path d="M13.5158 76.5076C11.1415 76.5076 9.04924 75.914 7.30964 74.7092C-1.72927 68.456 1.89099 47.4867 15.3788 27.969C21.8965 18.5363 29.7188 10.8374 37.406 6.28853C45.1461 1.70442 51.8342 0.858129 56.242 3.90832C65.2809 10.1615 61.6606 31.1308 48.1728 50.6485C41.6551 60.0812 33.8328 67.7801 26.1456 72.329C21.4616 75.103 17.1596 76.5076 13.5158 76.5076ZM50.0299 2.57423C46.4743 2.57423 42.2605 3.95534 37.647 6.68817C30.0186 11.2076 22.2491 18.8537 15.7667 28.2334C2.41993 47.5396 -1.25323 68.215 7.5741 74.3213C11.8232 77.2598 18.335 76.4077 25.9046 71.9235C33.5331 67.4099 41.3025 59.758 47.7849 50.3782C61.1317 31.0721 64.8049 10.3966 55.9775 4.29033C54.3202 3.1443 52.3102 2.57423 50.0299 2.57423Z" fill="currentColor"/>
<path d="M13.4806 77.8123C11.2943 77.8123 9.33138 77.2892 7.65642 76.2313C-1.88204 70.2309 0.903679 48.6033 13.8567 28.0219C20.1158 18.0779 27.7853 9.84413 35.4549 4.84864C43.1715 -0.18212 49.983 -1.34578 54.6258 1.581C64.1584 7.58147 61.3727 29.209 48.4197 49.7905C42.1606 59.7344 34.491 67.9682 26.8215 72.9637C21.8906 76.1784 17.33 77.8123 13.4688 77.8123H13.4806ZM48.7958 0.470233C45.0286 0.470233 40.562 2.08055 35.7076 5.2424C28.0968 10.2026 20.4743 18.3835 14.2563 28.2746C1.43849 48.6327 -1.41188 69.9723 7.90325 75.8376C12.3816 78.6586 19.0168 77.5008 26.5747 72.5758C34.1854 67.6156 41.808 59.4347 48.0259 49.5436C60.8379 29.1796 63.6883 7.84594 54.379 1.98064C52.7746 0.969783 50.8939 0.470233 48.7958 0.470233Z" fill="currentColor"/>
</g>
</svg>
